<svg width="12" height="12" viewBox="0 0 12 12" fill="none" xmlns="http://www.w3.org/2000/svg">
<g clip-path="url(#clip0_3559_129)">
<path d="M6.8751 3.62012C6.8751 3.38805 6.78291 3.16549 6.61882 3.0014C6.45472 2.8373 6.23216 2.74512 6.0001 2.74512C5.76804 2.74512 5.54548 2.8373 5.38138 3.0014C5.21729 3.16549 5.1251 3.38805 5.1251 3.62012V4.37012C5.12443 4.38695 5.12716 4.40374 5.13314 4.41949C5.13912 4.43524 5.14822 4.44961 5.1599 4.46176C5.17157 4.4739 5.18558 4.48356 5.20108 4.49015C5.21658 4.49674 5.23326 4.50013 5.2501 4.50012H6.7501C6.78325 4.50012 6.81505 4.48695 6.83849 4.46351C6.86193 4.44006 6.8751 4.40827 6.8751 4.37512V3.62012Z" fill="black"/>
<path d="M12 1C12 0.734784 11.8946 0.48043 11.7071 0.292893C11.5196 0.105357 11.2652 0 11 0L1 0C0.734784 0 0.48043 0.105357 0.292893 0.292893C0.105357 0.48043 0 0.734784 0 1L0 4.655C0.00934785 6.37022 0.601306 8.03135 1.67878 9.36593C2.75626 10.7005 4.25529 11.6293 5.93 12C5.96315 12.0049 5.99685 12.0049 6.03 12C6.06317 12.0047 6.09683 12.0047 6.13 12C7.80237 11.6146 9.29415 10.6724 10.3607 9.32781C11.4273 7.98326 12.0053 6.3162 12 4.6V1ZM3.75 7.745V5C3.75 4.86739 3.80268 4.74021 3.89645 4.64645C3.99021 4.55268 4.11739 4.5 4.25 4.5H4.375V3.62C4.375 3.18902 4.54621 2.7757 4.85095 2.47095C5.1557 2.1662 5.56902 1.995 6 1.995C6.43098 1.995 6.8443 2.1662 7.14905 2.47095C7.45379 2.7757 7.625 3.18902 7.625 3.62V4.5H7.75C7.88261 4.5 8.00979 4.55268 8.10355 4.64645C8.19732 4.74021 8.25 4.86739 8.25 5V7.75C8.25 7.88261 8.19732 8.00979 8.10355 8.10355C8.00979 8.19732 7.88261 8.25 7.75 8.25H4.25C4.18392 8.25 4.11849 8.23691 4.0575 8.21147C3.99651 8.18603 3.94116 8.14875 3.89467 8.10179C3.84817 8.05483 3.81145 7.99912 3.78662 7.93788C3.76178 7.87664 3.74934 7.81108 3.75 7.745Z" fill="black"/>
<path d="M5.375 6.62012C5.375 6.78588 5.44085 6.94485 5.55806 7.06206C5.67527 7.17927 5.83424 7.24512 6 7.24512C6.16576 7.24512 6.32473 7.17927 6.44194 7.06206C6.55915 6.94485 6.625 6.78588 6.625 6.62012C6.625 6.45436 6.55915 6.29539 6.44194 6.17818C6.32473 6.06097 6.16576 5.99512 6 5.99512C5.83424 5.99512 5.67527 6.06097 5.55806 6.17818C5.44085 6.29539 5.375 6.45436 5.375 6.62012Z" fill="black"/>
</g>
<defs>
<clipPath id="clip0_3559_129">
<rect width="12" height="12" fill="white"/>
</clipPath>
</defs>
</svg>
