<svg width="57" height="47" viewBox="0 0 57 47" fill="none" xmlns="http://www.w3.org/2000/svg">
<path d="M40.8214 44.6475H22.7384C21.4209 44.6475 20.1573 44.1241 19.2256 43.1924C18.294 42.2608 17.7706 40.9972 17.7706 39.6796C17.7706 38.3621 18.294 37.0985 19.2256 36.1668C20.1573 35.2352 21.4209 34.7118 22.7384 34.7118H27.3834L10.8404 17.9453C9.96958 17.0961 9.44053 15.957 9.35355 14.7438C9.26656 13.5306 9.62769 12.3276 10.3685 11.3629C10.8127 10.827 11.3712 10.3972 12.0029 10.105C12.6347 9.81272 13.3238 9.66541 14.0198 9.6738C14.6424 9.66109 15.2609 9.77572 15.8376 10.0106C16.4142 10.2456 16.9367 10.5958 17.3731 11.04L27.4579 21.1247L37.5923 13.5239C38.5073 12.8372 39.6397 12.5042 40.7808 12.5864C41.9219 12.6685 42.9949 13.1603 43.8021 13.971C48.4944 18.6732 52.0242 24.4058 54.1104 30.7127L54.2594 31.1846" stroke="white" stroke-width="4" stroke-miterlimit="10"/>
<path d="M24.8266 18.5922C25.4721 17.0608 25.7853 15.4099 25.7457 13.7486C25.7211 11.4015 25.0013 9.11441 23.6774 7.17622C22.3535 5.23804 20.4848 3.73574 18.3075 2.85913C16.1301 1.98252 13.7418 1.77094 11.4443 2.2511C9.14671 2.73127 7.04303 3.88165 5.39899 5.5569C3.75496 7.23214 2.64435 9.35709 2.20748 11.6633C1.77061 13.9694 2.02707 16.3534 2.94448 18.5138C3.86188 20.6743 5.39906 22.5144 7.3618 23.8016C9.32454 25.0888 11.6248 25.7654 13.9719 25.7459C15.2825 25.7497 16.5843 25.5313 17.822 25.1001" stroke="white" stroke-width="4" stroke-miterlimit="10"/>
</svg>
