<svg width="45" height="45" viewBox="0 0 45 45" fill="none" xmlns="http://www.w3.org/2000/svg">
<path fill-rule="evenodd" clip-rule="evenodd" d="M21.0075 33.0561L11.9607 24.0046C12.9553 22.3381 13.9463 20.6151 14.9303 18.9042C18.2016 13.2161 21.3953 7.66307 24.3873 4.77467C32.5122 -3.35448 43.6416 1.35906 43.6416 1.35906C43.6416 1.35906 48.3527 12.494 40.2279 20.6231C37.3644 23.5919 31.9016 26.7395 26.2598 29.99C24.502 31.0027 22.7268 32.0255 21.0075 33.0561ZM27.9007 12.016C27.9007 9.20491 30.1786 6.92479 32.9902 6.92479C35.8016 6.92479 38.0796 9.20491 38.0796 12.016C38.0796 14.827 35.8016 17.1072 32.9902 17.1072C30.1786 17.1072 27.9007 14.827 27.9007 12.016ZM14.7291 11.2691C10.1634 10.0536 5.8793 12.3054 2.07832 15.7946C1.31554 16.4948 1.4749 17.719 2.36171 18.2535L8.4986 21.9523L8.5057 21.9403C9.39032 20.4582 10.3792 18.7414 11.381 17.002C12.5252 15.0155 13.687 12.9984 14.7291 11.2691ZM23.0588 36.5194L26.7551 42.6585C27.2895 43.546 28.5145 43.7054 29.2148 42.9417C32.7025 39.138 34.9529 34.8504 33.7353 30.2814C32.0571 31.2934 30.2923 32.3123 28.5441 33.3197L28.2774 33.4733C26.5118 34.4904 24.7637 35.4978 23.0754 36.5098L23.0588 36.5194ZM8.37272 30.0947C9.23699 30.0794 10.0955 30.2385 10.8969 30.5624C11.6984 30.8863 12.4264 31.3683 13.0375 31.9797C13.6486 32.5913 14.1303 33.3194 14.454 34.1211C14.7776 34.9228 14.9365 35.7814 14.9213 36.6457C14.906 37.5101 14.7169 38.3626 14.3652 39.1524C14.0153 39.938 13.5116 40.6456 12.8838 41.2332C12.1703 41.9169 11.0535 42.4518 10.0178 42.8636C8.91365 43.3027 7.65368 43.6948 6.47725 44.0163C5.29694 44.3387 4.16959 44.5978 3.31824 44.7669C2.89546 44.8508 2.52254 44.916 2.23673 44.9549C2.09952 44.9736 1.94801 44.9909 1.80818 44.9974C1.74479 45.0003 1.63025 45.0035 1.49928 44.9909C1.4365 44.9848 1.31498 44.9704 1.17046 44.9273C1.07501 44.8987 0.704605 44.7858 0.396091 44.4258C0.131937 44.1175 0.0600338 43.7958 0.0427156 43.7183C0.0149504 43.5942 0.00645864 43.4888 0.00324576 43.4332C-0.00341884 43.3175 0.00161928 43.2149 0.00556676 43.1538C0.0141288 43.0214 0.0323734 42.8758 0.0522345 42.7392C0.093341 42.4563 0.160133 42.0863 0.245704 41.6642C0.41782 40.8159 0.67914 39.6931 1.0029 38.5172C1.32554 37.3452 1.71848 36.0906 2.15775 34.9906C2.57004 33.9581 3.10446 32.8459 3.78646 32.1335C4.37384 31.5054 5.08112 31.0013 5.8666 30.6512C6.65614 30.2992 7.50845 30.11 8.37272 30.0947Z" fill="url(#paint0_linear_3544_141)"/>
<defs>
<linearGradient id="paint0_linear_3544_141" x1="4.98632" y1="15.6133" x2="46.0707" y2="21.8319" gradientUnits="userSpaceOnUse">
<stop stop-color="#FFD600"/>
<stop offset="1" stop-color="#80FF00"/>
</linearGradient>
</defs>
</svg>
