<svg width="122" height="34" viewBox="0 0 122 34" fill="none" xmlns="http://www.w3.org/2000/svg">
<path d="M8.99418 5.1659V4.77994C8.99418 4.56911 8.95849 4.34044 8.88821 4.09503C8.81794 3.84962 8.67181 3.62095 8.44871 3.41012C8.22561 3.19929 7.91551 3.01858 7.51728 2.86576C7.11793 2.71406 6.58027 2.63709 5.90093 2.63709C5.26845 2.63709 4.75867 2.71406 4.37271 2.86576C3.98564 3.01858 3.6878 3.21156 3.47698 3.44582C3.26615 3.68007 3.13118 3.9199 3.07317 4.16642C3.01517 4.41183 2.98616 4.6405 2.98616 4.85133V21.2267C2.98616 21.4375 3.01517 21.6662 3.07317 21.9116C3.13118 22.1581 3.26727 22.3924 3.47698 22.6144C3.6878 22.8375 3.98676 23.0249 4.37271 23.1766C4.75979 23.3294 5.26845 23.4052 5.90093 23.4052C6.57915 23.4052 7.11793 23.3294 7.51728 23.1766C7.91551 23.0249 8.22561 22.843 8.44871 22.6322C8.67069 22.4214 8.81794 22.1927 8.88821 21.9473C8.95849 21.7019 8.99418 21.4855 8.99418 21.2981V20.911H11.9815V21.79C11.9815 22.0711 11.9346 22.4459 11.8409 22.9144C11.7472 23.3829 11.5007 23.8514 11.1036 24.32C10.7042 24.7885 10.1074 25.1934 9.31098 25.5325C8.51452 25.8716 7.41354 26.0423 6.00802 26.0423C4.60251 26.0423 3.50152 25.8727 2.70506 25.5325C1.90749 25.1934 1.30512 24.7885 0.895737 24.32C0.485237 23.8514 0.233136 23.3774 0.140551 22.8966C0.0468499 22.4169 0 22.0477 0 21.79V4.25566C0 3.99798 0.0468499 3.62876 0.140551 3.1491C0.233136 2.66944 0.485237 2.19424 0.895737 1.72573C1.30512 1.25723 1.9086 0.853419 2.70506 0.513195C3.50152 0.174087 4.60251 0.00341797 6.00802 0.00341797C7.41354 0.00341797 8.51452 0.172971 9.31098 0.513195C10.1074 0.853419 10.7042 1.25723 11.1036 1.72573C11.5007 2.19424 11.7472 2.66944 11.8409 3.1491C11.9346 3.62987 11.9815 3.99798 11.9815 4.25566V5.16925H8.99418V5.1659Z" fill="white"/>
<path d="M14.4414 0.316895H17.393V25.7924H14.4414V0.316895Z" fill="white"/>
<path d="M32.7833 20.9088V21.8224C32.7833 22.2675 32.7008 22.7248 32.5379 23.1922C32.3739 23.6607 32.1274 24.088 31.7994 24.475C31.4715 24.861 31.0621 25.1778 30.5691 25.4232C30.0771 25.6686 29.4915 25.7924 28.8122 25.7924H20.8364V0.316895H28.8122C29.4915 0.316895 30.0771 0.439598 30.5691 0.686121C31.061 0.931528 31.4704 1.24833 31.7994 1.63429C32.1274 2.02136 32.3728 2.44859 32.5379 2.9171C32.7008 3.3856 32.7833 3.84295 32.7833 4.28692V20.9077V20.9088ZM29.8317 5.20162V4.88482C29.8317 4.29919 29.6499 3.80168 29.2874 3.39118C28.9237 2.9818 28.4385 2.77655 27.8294 2.77655H23.8237V23.3328H27.8294C28.4385 23.3328 28.9237 23.1286 29.2874 22.7181C29.6499 22.3087 29.8317 21.8224 29.8317 21.2602V5.20162Z" fill="white"/>
<path d="M48.1734 25.7921H45.1862V14.0203C45.1393 14.0437 44.8872 14.1374 44.431 14.3014C43.9736 14.4654 43.4761 14.6405 42.9373 14.8279L40.8291 15.5307C40.548 15.601 40.278 15.7192 40.0215 15.8821C39.8106 16.0226 39.6176 16.2044 39.4414 16.4264C39.2663 16.6495 39.1781 16.9362 39.1781 17.2876V25.7909H36.2266V4.28544C36.2266 4.02777 36.2734 3.65854 36.3671 3.17888C36.4597 2.69922 36.7062 2.22402 37.1045 1.75552C37.5027 1.28701 38.1006 0.883204 38.897 0.54298C39.6935 0.203872 40.7945 0.0332031 42.2 0.0332031C43.6055 0.0332031 44.7065 0.202756 45.503 0.54298C46.2994 0.883204 46.8962 1.28701 47.2956 1.75552C47.6927 2.22402 47.9392 2.69922 48.0329 3.17888C48.1266 3.65966 48.1734 4.02777 48.1734 4.28544V25.7909V25.7921ZM40.2323 12.7732C40.7242 12.5981 41.2217 12.4218 41.7259 12.2467C42.229 12.0704 42.6864 11.9132 43.0957 11.7715C43.5051 11.6309 43.7338 11.5495 43.7807 11.5261C44.3897 11.3153 44.7768 11.023 44.9408 10.6471C45.1036 10.2734 45.1862 9.93316 45.1862 9.62863V4.81419C45.1862 4.60336 45.1505 4.37468 45.0802 4.12928C45.0099 3.88387 44.8638 3.65408 44.6407 3.44437C44.4176 3.23354 44.1075 3.05171 43.7093 2.90001C43.311 2.7483 42.7722 2.67133 42.0929 2.67133C41.4604 2.67133 40.9507 2.7483 40.5647 2.90001C40.1776 3.05283 39.8798 3.24581 39.669 3.48006C39.4581 3.71431 39.3232 3.95415 39.2652 4.20067C39.206 4.44608 39.177 4.67475 39.177 4.88558V13.1435C39.3879 13.0733 39.7392 12.9494 40.2312 12.7743L40.2323 12.7732Z" fill="white"/>
<path d="M63.565 20.9088V21.8224C63.565 22.2675 63.4825 22.7248 63.3196 23.1922C63.1557 23.6607 62.9091 24.088 62.5812 24.475C62.2532 24.861 61.8438 25.1778 61.3508 25.4232C60.8589 25.6686 60.2732 25.7924 59.5939 25.7924H51.6182V0.316895H59.5939C60.2732 0.316895 60.8589 0.439598 61.3508 0.686121C61.8427 0.931528 62.2521 1.24833 62.5812 1.63429C62.9091 2.02136 63.1545 2.44859 63.3196 2.9171C63.4825 3.3856 63.565 3.84295 63.565 4.28692V20.9077V20.9088ZM60.6123 5.20162V4.88482C60.6123 4.29919 60.4305 3.80168 60.068 3.39118C59.7043 2.9818 59.2191 2.77655 58.61 2.77655H54.6043V23.3328H58.61C59.2191 23.3328 59.7043 23.1286 60.068 22.7181C60.4305 22.3087 60.6123 21.8224 60.6123 21.2602V5.20162Z" fill="white"/>
<path d="M77.866 25.7923H70.9778C70.2985 25.7923 69.7129 25.6696 69.2209 25.4231C68.729 25.1776 68.3196 24.8608 67.9917 24.4749C67.6637 24.0878 67.4172 23.6606 67.2532 23.1921C67.0892 22.7236 67.0078 22.2673 67.0078 21.8223V4.2879C67.0078 3.84393 67.0892 3.38658 67.2532 2.91808C67.4172 2.44957 67.6626 2.02234 67.9917 1.63526C68.3196 1.24931 68.729 0.932507 69.2209 0.687099C69.7129 0.440576 70.2985 0.317871 70.9778 0.317871H77.866V2.77752H71.9628C71.3538 2.77752 70.8674 2.98389 70.5049 3.39216C70.1412 3.80266 69.9605 4.30017 69.9605 4.8858V11.668H76.321V14.4433H69.9605V21.2601C69.9605 21.8223 70.1412 22.3086 70.5049 22.718C70.8674 23.1274 71.3538 23.3326 71.9628 23.3326H77.866V25.7923Z" fill="white"/>
<path d="M92.1672 25.7923H85.2791C84.5998 25.7923 84.0141 25.6696 83.5222 25.4231C83.0303 25.1776 82.6209 24.8608 82.2929 24.4749C81.965 24.0878 81.7185 23.6606 81.5545 23.1921C81.3905 22.7236 81.3091 22.2673 81.3091 21.8223V4.2879C81.3091 3.84393 81.3905 3.38658 81.5545 2.91808C81.7185 2.44957 81.9639 2.02234 82.2929 1.63526C82.6209 1.24931 83.0303 0.932507 83.5222 0.687099C84.0141 0.440576 84.5998 0.317871 85.2791 0.317871H92.1672V2.77752H86.2641C85.655 2.77752 85.1687 2.98389 84.8061 3.39216C84.4425 3.80266 84.2618 4.30017 84.2618 4.8858V11.668H90.6223V14.4433H84.2618V21.2601C84.2618 21.8223 84.4425 22.3086 84.8061 22.718C85.1687 23.1274 85.655 23.3326 86.2641 23.3326H92.1672V25.7923Z" fill="#B6C327"/>
<path d="M104.606 5.1659V4.77994C104.606 4.56911 104.57 4.34044 104.5 4.09503C104.43 3.84962 104.284 3.62095 104.061 3.41012C103.837 3.19929 103.527 3.01858 103.129 2.86576C102.73 2.71406 102.192 2.63709 101.513 2.63709C100.88 2.63709 100.37 2.71406 99.9845 2.86576C99.5975 3.01858 99.2996 3.21156 99.0888 3.44582C98.878 3.68007 98.743 3.9199 98.685 4.16642C98.627 4.41183 98.598 4.6405 98.598 4.85133V21.2267C98.598 21.4375 98.627 21.6662 98.685 21.9116C98.743 22.1581 98.8791 22.3924 99.0888 22.6144C99.2996 22.8375 99.5986 23.0249 99.9845 23.1766C100.372 23.3294 100.88 23.4052 101.513 23.4052C102.191 23.4052 102.73 23.3294 103.129 23.1766C103.527 23.0249 103.837 22.843 104.061 22.6322C104.283 22.4214 104.43 22.1927 104.5 21.9473C104.57 21.7019 104.606 21.4855 104.606 21.2981V20.911H107.593V21.79C107.593 22.0711 107.546 22.4459 107.453 22.9144C107.359 23.3829 107.113 23.8514 106.715 24.32C106.316 24.7885 105.719 25.1934 104.923 25.5325C104.126 25.8716 103.025 26.0423 101.62 26.0423C100.214 26.0423 99.1133 25.8727 98.3169 25.5325C97.5193 25.1934 96.9169 24.7885 96.5076 24.32C96.0971 23.8514 95.845 23.3774 95.7524 22.8966C95.6587 22.4169 95.6118 22.0477 95.6118 21.79V4.25566C95.6118 3.99798 95.6587 3.62876 95.7524 3.1491C95.845 2.66944 96.0971 2.19424 96.5076 1.72573C96.9169 1.25723 97.5204 0.853419 98.3169 0.513195C99.1133 0.174087 100.214 0.00341797 101.62 0.00341797C103.025 0.00341797 104.126 0.172971 104.923 0.513195C105.719 0.853419 106.316 1.25723 106.715 1.72573C107.113 2.19424 107.359 2.66944 107.453 3.1491C107.546 3.62987 107.593 3.99798 107.593 4.25566V5.16925H104.606V5.1659Z" fill="#B6C327"/>
<path d="M122 21.4352V21.7866C122 22.0677 121.953 22.4425 121.86 22.911C121.766 23.3795 121.519 23.848 121.122 24.3165C120.723 24.785 120.126 25.19 119.33 25.5291C118.533 25.8682 117.432 26.0388 116.027 26.0388C114.621 26.0388 113.52 25.8693 112.724 25.5291C111.927 25.19 111.329 24.785 110.931 24.3165C110.532 23.848 110.286 23.3739 110.194 22.8932C110.1 22.4135 110.053 22.0443 110.053 21.7866V4.25224C110.053 3.99456 110.1 3.62534 110.194 3.14568C110.286 2.66602 110.533 2.19082 110.931 1.72231C111.329 1.25381 111.927 0.850001 112.724 0.509777C113.52 0.170669 114.621 0 116.027 0C117.432 0 118.533 0.169553 119.33 0.509777C120.126 0.850001 120.723 1.25381 121.122 1.72231C121.519 2.19082 121.766 2.66602 121.86 3.14568C121.953 3.62645 122 3.99456 122 4.25224V21.4352ZM119.013 20.9087H119.049V5.16583H119.013V4.77987C119.013 4.56904 118.977 4.34036 118.907 4.09496C118.837 3.84955 118.696 3.62087 118.485 3.41005C118.274 3.19922 117.963 3.01851 117.554 2.86569C117.144 2.71398 116.599 2.63701 115.92 2.63701C115.287 2.63701 114.777 2.71398 114.391 2.86569C114.004 3.01851 113.706 3.21149 113.496 3.44574C113.285 3.68 113.15 3.91983 113.092 4.16635C113.033 4.41176 113.004 4.64043 113.004 4.85126V21.2266C113.004 21.4375 113.033 21.6661 113.092 21.9115C113.15 22.1581 113.285 22.3923 113.496 22.6143C113.706 22.8374 114.005 23.0248 114.391 23.1765C114.778 23.3293 115.287 23.4052 115.92 23.4052C116.598 23.4052 117.143 23.3293 117.554 23.1765C117.963 23.0248 118.274 22.843 118.485 22.6321C118.696 22.4213 118.837 22.1926 118.907 21.9472C118.977 21.7018 119.013 21.4854 119.013 21.298V20.9109V20.9087Z" fill="#B6C327"/>
<path d="M4.72314 33.7937V30.126H6.27814C6.44657 30.126 6.60274 30.1617 6.74553 30.2319C6.88831 30.3022 7.01213 30.3959 7.11475 30.5108C7.21738 30.6257 7.29881 30.7573 7.35793 30.9035C7.41705 31.0496 7.44605 31.1968 7.44605 31.3452C7.44605 31.4936 7.41816 31.6509 7.36351 31.797C7.30885 31.9431 7.23076 32.0736 7.13148 32.1874C7.03221 32.3012 6.91062 32.3926 6.77007 32.4607C6.6284 32.5299 6.47335 32.5644 6.30491 32.5644H5.43706V33.7937H4.72426H4.72314ZM5.43594 31.9386H6.26252C6.39303 31.9386 6.50235 31.8851 6.59047 31.778C6.6786 31.6709 6.7221 31.527 6.7221 31.3441C6.7221 31.2515 6.70871 31.1678 6.68083 31.0931C6.65294 31.0195 6.61724 30.9559 6.57262 30.9046C6.52801 30.8533 6.47558 30.8142 6.41534 30.7886C6.3551 30.7629 6.29375 30.7495 6.2324 30.7495H5.43706V31.9375L5.43594 31.9386Z" fill="white"/>
<path d="M13.1741 33.1676V33.7922H10.6274V30.1245H13.1273V30.7492H11.3402V31.6327H12.8852V32.2116H11.3402V33.1676H13.1741Z" fill="white"/>
<path d="M17.1303 31.4434V33.7937H16.4175V30.126H16.9696L18.8816 32.5332V30.1316H19.5944V33.7937H19.0155L17.1303 31.4434Z" fill="white"/>
<path d="M25.23 31.0861C25.2054 31.0616 25.1619 31.0292 25.0983 30.988C25.0347 30.9467 24.9567 30.9065 24.8663 30.8664C24.7748 30.8262 24.6756 30.7927 24.5696 30.766C24.4625 30.7381 24.3543 30.7247 24.2439 30.7247C24.0475 30.7247 23.9014 30.7604 23.8044 30.8329C23.7084 30.9054 23.6593 31.0069 23.6593 31.1374C23.6593 31.2133 23.6772 31.2757 23.714 31.3259C23.7497 31.3761 23.8021 31.4196 23.8713 31.4576C23.9404 31.4955 24.0275 31.5301 24.1323 31.5613C24.2372 31.5925 24.3588 31.6249 24.4971 31.6595C24.6756 31.7074 24.8384 31.7599 24.9857 31.8145C25.1318 31.8692 25.2556 31.9384 25.3571 32.0209C25.4586 32.1034 25.5367 32.2027 25.5925 32.3176C25.6471 32.4325 25.675 32.5753 25.675 32.7437C25.675 32.9401 25.6382 33.1085 25.5635 33.2468C25.4899 33.3863 25.3895 33.4989 25.2634 33.5848C25.1374 33.6707 24.9935 33.7343 24.8295 33.7733C24.6666 33.8135 24.4948 33.8324 24.3153 33.8324C24.0397 33.8324 23.7675 33.7912 23.4987 33.7086C23.2299 33.6261 22.9889 33.509 22.7759 33.3573L23.0916 32.7426C23.1228 32.7738 23.1786 32.814 23.2589 32.8642C23.3403 32.9144 23.4351 32.9646 23.5456 33.0137C23.656 33.0639 23.7776 33.1063 23.9126 33.1408C24.0464 33.1754 24.1847 33.1922 24.3253 33.1922C24.7179 33.1922 24.9143 33.0661 24.9143 32.8151C24.9143 32.7359 24.892 32.669 24.8473 32.6132C24.8027 32.5586 24.7391 32.5095 24.6566 32.4682C24.574 32.4269 24.4737 32.389 24.3565 32.3544C24.2394 32.3198 24.1089 32.2819 23.9639 32.2406C23.7887 32.1927 23.6359 32.1403 23.5065 32.0834C23.3771 32.0265 23.27 31.9595 23.1841 31.8815C23.0983 31.8045 23.0336 31.7141 22.9901 31.6126C22.9466 31.5111 22.9254 31.3895 22.9254 31.249C22.9254 31.0627 22.9599 30.8976 23.0291 30.7526C23.0983 30.6076 23.1931 30.4871 23.3158 30.3912C23.4374 30.2952 23.5801 30.2216 23.7419 30.1714C23.9036 30.1212 24.0777 30.0967 24.2639 30.0967C24.5216 30.0967 24.7603 30.1368 24.9767 30.2183C25.1931 30.2997 25.3828 30.3945 25.5445 30.5049L25.2288 31.0839L25.23 31.0861Z" fill="white"/>
<path d="M29.8796 30.126H30.5098L31.9042 33.7937H31.1702L30.8289 32.879H29.5483L29.2125 33.7937H28.4785L29.8785 30.126H29.8796ZM30.7006 32.3781L30.1941 30.9369L29.6676 32.3781H30.7006Z" fill="white"/>
<path d="M34.9932 33.7937V30.126H36.3262C36.6262 30.126 36.8884 30.1739 37.1137 30.271C37.339 30.368 37.5276 30.4986 37.6793 30.6636C37.831 30.8287 37.9447 31.0228 38.0206 31.2448C38.0965 31.4668 38.1344 31.7033 38.1344 31.9554C38.1344 32.2342 38.092 32.4863 38.0072 32.7117C37.9224 32.937 37.802 33.13 37.6436 33.2906C37.4852 33.4513 37.2944 33.5751 37.0724 33.6621C36.8505 33.7502 36.6017 33.7937 36.3262 33.7937H34.9932ZM37.416 31.9543C37.416 31.7791 37.3915 31.6174 37.3435 31.469C37.2955 31.3207 37.2253 31.1935 37.1316 31.0864C37.039 30.9793 36.9241 30.8968 36.788 30.8388C36.6519 30.7808 36.498 30.7507 36.3262 30.7507H35.706V33.1679H36.3262C36.5013 33.1679 36.6575 33.1367 36.7936 33.0753C36.9297 33.0129 37.0434 32.9281 37.1349 32.8199C37.2264 32.7117 37.2955 32.5834 37.3446 32.435C37.3926 32.2867 37.4171 32.1272 37.4171 31.9543H37.416Z" fill="white"/>
<path d="M42.2927 30.126H42.9229L44.3173 33.7937H43.5833L43.2419 32.879H41.9614L41.6256 33.7937H40.8916L42.2915 30.126H42.2927ZM43.1137 32.3781L42.6072 30.9369L42.0807 32.3781H43.1137Z" fill="white"/>
<path d="M51.1719 33.7937V30.126H52.7269C52.8953 30.126 53.0515 30.1617 53.1943 30.2319C53.337 30.3022 53.4609 30.3959 53.5635 30.5108C53.6661 30.6257 53.7475 30.7573 53.8067 30.9035C53.8658 31.0496 53.8948 31.1968 53.8948 31.3452C53.8948 31.4936 53.8669 31.6509 53.8122 31.797C53.7576 31.9431 53.6795 32.0736 53.5802 32.1874C53.4798 32.3012 53.3593 32.3926 53.2188 32.4607C53.0771 32.5299 52.9221 32.5644 52.7536 32.5644H51.8858V33.7937H51.173H51.1719ZM51.8847 31.9386H52.7112C52.8418 31.9386 52.9511 31.8851 53.0392 31.778C53.1273 31.6709 53.1708 31.527 53.1708 31.3441C53.1708 31.2515 53.1574 31.1678 53.1296 31.0931C53.1017 31.0195 53.066 30.9559 53.0213 30.9046C52.9767 30.8533 52.9243 30.8142 52.8641 30.7886C52.8038 30.7629 52.7425 30.7495 52.6811 30.7495H51.8858V31.9375L51.8847 31.9386Z" fill="white"/>
<path d="M57.8874 30.126H58.5176L59.912 33.7937H59.178L58.8367 32.879H57.5561L57.2203 33.7937H56.4863L57.8863 30.126H57.8874ZM58.7084 32.3781L58.2019 30.9369L57.6754 32.3781H58.7084Z" fill="white"/>
<path d="M63.0005 33.7937V30.126H64.6224C64.7908 30.126 64.947 30.1617 65.0898 30.2319C65.2326 30.3022 65.3553 30.3959 65.459 30.5108C65.5628 30.6257 65.6431 30.7573 65.7022 30.9035C65.7602 31.0496 65.7903 31.1968 65.7903 31.3452C65.7903 31.5828 65.7312 31.7992 65.6118 31.9933C65.4925 32.1885 65.3319 32.328 65.1288 32.4138L65.9655 33.7926H65.1645L64.416 32.5633H63.7133V33.7926H63.0005V33.7937ZM63.7133 31.9386H64.6068C64.6726 31.9386 64.7328 31.923 64.7897 31.8918C64.8466 31.8606 64.8957 31.8193 64.937 31.7657C64.9782 31.7122 65.0106 31.6497 65.0351 31.5772C65.0586 31.5047 65.0708 31.4278 65.0708 31.3452C65.0708 31.2627 65.0574 31.1801 65.0296 31.1076C65.0017 31.0351 64.9649 30.9726 64.918 30.9191C64.8712 30.8655 64.8176 30.8243 64.7574 30.7953C64.6971 30.7663 64.6358 30.7518 64.5744 30.7518H63.7122V31.9398L63.7133 31.9386Z" fill="white"/>
<path d="M70.1086 30.126H70.7388L72.1332 33.7937H71.3992L71.0579 32.879H69.7773L69.4415 33.7937H68.7075L70.1075 30.126H70.1086ZM70.9296 32.3781L70.4231 30.9369L69.8966 32.3781H70.9296Z" fill="white"/>
<path d="M78.9878 33.7937V30.126H80.5428C80.7112 30.126 80.8674 30.1617 81.0102 30.2319C81.153 30.3022 81.2768 30.3959 81.3794 30.5108C81.482 30.6257 81.5635 30.7573 81.6226 30.9035C81.6817 31.0496 81.7107 31.1968 81.7107 31.3452C81.7107 31.4936 81.6828 31.6509 81.6282 31.797C81.5735 31.9431 81.4954 32.0736 81.3961 32.1874C81.2969 32.3012 81.1753 32.3926 81.0347 32.4607C80.893 32.5299 80.738 32.5644 80.5696 32.5644H79.7017V33.7937H78.9889H78.9878ZM79.7006 31.9386H80.5272C80.6577 31.9386 80.767 31.8851 80.8551 31.778C80.9432 31.6709 80.9867 31.527 80.9867 31.3441C80.9867 31.2515 80.9734 31.1678 80.9455 31.0931C80.9176 31.0195 80.8819 30.9559 80.8373 30.9046C80.7927 30.8533 80.7402 30.8142 80.68 30.7886C80.6198 30.7629 80.5584 30.7495 80.497 30.7495H79.7017V31.9375L79.7006 31.9386Z" fill="white"/>
<path d="M87.4388 33.1676V33.7922H84.8921V30.1245H87.3919V30.7492H85.6049V31.6327H87.1498V32.2116H85.6049V33.1676H87.4388Z" fill="white"/>
<path d="M92.791 31.0861C92.7664 31.0616 92.7229 31.0292 92.6594 30.988C92.5958 30.9467 92.5177 30.9065 92.4273 30.8664C92.3359 30.8262 92.2366 30.7927 92.1306 30.766C92.0235 30.7381 91.9153 30.7247 91.8049 30.7247C91.6086 30.7247 91.4624 30.7604 91.3654 30.8329C91.2695 30.9054 91.2204 31.0069 91.2204 31.1374C91.2204 31.2133 91.2382 31.2757 91.275 31.3259C91.3107 31.3761 91.3632 31.4196 91.4323 31.4576C91.5015 31.4955 91.5885 31.5301 91.6933 31.5613C91.7982 31.5925 91.9198 31.6249 92.0581 31.6595C92.2366 31.7074 92.3995 31.7599 92.5467 31.8145C92.6928 31.8692 92.8166 31.9384 92.9182 32.0209C93.0197 32.1034 93.0977 32.2027 93.1535 32.3176C93.2082 32.4325 93.2361 32.5753 93.2361 32.7437C93.2361 32.9401 93.1993 33.1085 93.1245 33.2468C93.0509 33.3863 92.9505 33.4989 92.8245 33.5848C92.6984 33.6707 92.5545 33.7343 92.3905 33.7733C92.2277 33.8135 92.0559 33.8324 91.8763 33.8324C91.6008 33.8324 91.3286 33.7912 91.0597 33.7086C90.7909 33.6261 90.55 33.509 90.3369 33.3573L90.6526 32.7426C90.6838 32.7738 90.7396 32.814 90.8199 32.8642C90.9014 32.9144 90.9962 32.9646 91.1066 33.0137C91.217 33.0639 91.3386 33.1063 91.4736 33.1408C91.6075 33.1754 91.7458 33.1922 91.8863 33.1922C92.279 33.1922 92.4753 33.0661 92.4753 32.8151C92.4753 32.7359 92.453 32.669 92.4084 32.6132C92.3638 32.5586 92.3002 32.5095 92.2176 32.4682C92.1351 32.4269 92.0347 32.389 91.9176 32.3544C91.8004 32.3198 91.6699 32.2819 91.5249 32.2406C91.3498 32.1927 91.197 32.1403 91.0676 32.0834C90.9382 32.0265 90.8311 31.9595 90.7452 31.8815C90.6593 31.8045 90.5946 31.7141 90.5511 31.6126C90.5076 31.5111 90.4864 31.3895 90.4864 31.249C90.4864 31.0627 90.521 30.8976 90.5901 30.7526C90.6593 30.6076 90.7541 30.4871 90.8768 30.3912C90.9984 30.2952 91.1412 30.2216 91.3029 30.1714C91.4647 30.1212 91.6387 30.0967 91.825 30.0967C92.0827 30.0967 92.3214 30.1368 92.5378 30.2183C92.7542 30.2997 92.9438 30.3945 93.1056 30.5049L92.7899 31.0839L92.791 31.0861Z" fill="white"/>
<path d="M98.6425 31.0861C98.618 31.0616 98.5745 31.0292 98.5109 30.988C98.4473 30.9467 98.3692 30.9065 98.2789 30.8664C98.1874 30.8262 98.0882 30.7927 97.9822 30.766C97.8751 30.7381 97.7669 30.7247 97.6565 30.7247C97.4601 30.7247 97.314 30.7604 97.217 30.8329C97.121 30.9054 97.0719 31.0069 97.0719 31.1374C97.0719 31.2133 97.0898 31.2757 97.1266 31.3259C97.1623 31.3761 97.2147 31.4196 97.2839 31.4576C97.353 31.4955 97.4401 31.5301 97.5449 31.5613C97.6498 31.5925 97.7714 31.6249 97.9097 31.6595C98.0882 31.7074 98.251 31.7599 98.3983 31.8145C98.5444 31.8692 98.6682 31.9384 98.7697 32.0209C98.8712 32.1034 98.9493 32.2027 99.0051 32.3176C99.0597 32.4325 99.0876 32.5753 99.0876 32.7437C99.0876 32.9401 99.0508 33.1085 98.9761 33.2468C98.9025 33.3863 98.8021 33.4989 98.676 33.5848C98.55 33.6707 98.4061 33.7343 98.2421 33.7733C98.0792 33.8135 97.9074 33.8324 97.7278 33.8324C97.4523 33.8324 97.1801 33.7912 96.9113 33.7086C96.6425 33.6261 96.4015 33.509 96.1885 33.3573L96.5042 32.7426C96.5354 32.7738 96.5912 32.814 96.6715 32.8642C96.7529 32.9144 96.8477 32.9646 96.9582 33.0137C97.0686 33.0639 97.1902 33.1063 97.3252 33.1408C97.459 33.1754 97.5973 33.1922 97.7379 33.1922C98.1305 33.1922 98.3269 33.0661 98.3269 32.8151C98.3269 32.7359 98.3046 32.669 98.2599 32.6132C98.2153 32.5586 98.1517 32.5095 98.0692 32.4682C97.9866 32.4269 97.8862 32.389 97.7691 32.3544C97.652 32.3198 97.5215 32.2819 97.3765 32.2406C97.2013 32.1927 97.0485 32.1403 96.9191 32.0834C96.7897 32.0265 96.6826 31.9595 96.5967 31.8815C96.5108 31.8045 96.4462 31.7141 96.4026 31.6126C96.3591 31.5111 96.3379 31.3895 96.3379 31.249C96.3379 31.0627 96.3725 30.8976 96.4417 30.7526C96.5108 30.6076 96.6057 30.4871 96.7284 30.3912C96.85 30.2952 96.9927 30.2216 97.1545 30.1714C97.3162 30.1212 97.4903 30.0967 97.6765 30.0967C97.9342 30.0967 98.1729 30.1368 98.3893 30.2183C98.6057 30.2997 98.7954 30.3945 98.9571 30.5049L98.6414 31.0839L98.6425 31.0861Z" fill="white"/>
<path d="M103.876 33.8196C103.607 33.8196 103.364 33.7672 103.145 33.6623C102.926 33.5575 102.739 33.418 102.582 33.244C102.424 33.07 102.303 32.8715 102.217 32.6472C102.131 32.423 102.087 32.1944 102.087 31.9601C102.087 31.7259 102.133 31.4816 102.225 31.2573C102.316 31.0331 102.441 30.8357 102.602 30.6628C102.762 30.491 102.952 30.3538 103.173 30.2523C103.394 30.1508 103.632 30.1006 103.891 30.1006C104.15 30.1006 104.399 30.1552 104.617 30.2634C104.836 30.3716 105.022 30.5144 105.177 30.6896C105.332 30.8647 105.453 31.0655 105.539 31.2886C105.625 31.5128 105.668 31.7392 105.668 31.9701C105.668 32.2144 105.624 32.4476 105.534 32.6696C105.445 32.8915 105.321 33.0879 105.163 33.2585C105.004 33.4292 104.815 33.5653 104.595 33.6668C104.374 33.7683 104.135 33.8185 103.877 33.8185L103.876 33.8196ZM102.811 31.9601C102.811 32.1185 102.835 32.2713 102.884 32.4197C102.932 32.568 103.002 32.6986 103.092 32.8123C103.184 32.9261 103.295 33.0176 103.428 33.0856C103.561 33.1548 103.712 33.1894 103.88 33.1894C104.048 33.1894 104.205 33.1537 104.337 33.0834C104.47 33.0131 104.582 32.9194 104.673 32.8023C104.765 32.6852 104.834 32.5535 104.879 32.4074C104.926 32.2613 104.949 32.1118 104.949 31.9601C104.949 31.8084 104.924 31.6489 104.874 31.5005C104.824 31.3522 104.753 31.2217 104.662 31.1079C104.57 30.9941 104.459 30.9037 104.326 30.8368C104.193 30.7699 104.045 30.7364 103.879 30.7364C103.713 30.7364 103.553 30.7721 103.419 30.8424C103.285 30.9127 103.173 31.0064 103.084 31.1213C102.994 31.2362 102.926 31.3678 102.879 31.5139C102.833 31.66 102.81 31.8095 102.81 31.9612L102.811 31.9601Z" fill="white"/>
<path d="M109.817 30.126H110.447L111.841 33.7937H111.107L110.766 32.879H109.485L109.15 33.7937H108.416L109.815 30.126H109.817ZM110.638 32.3781L110.131 30.9369L109.605 32.3781H110.638Z" fill="white"/>
<path d="M117.058 31.0861C117.034 31.0616 116.99 31.0292 116.926 30.988C116.863 30.9467 116.785 30.9065 116.694 30.8664C116.603 30.8262 116.504 30.7927 116.398 30.766C116.291 30.7381 116.182 30.7247 116.072 30.7247C115.876 30.7247 115.73 30.7604 115.632 30.8329C115.537 30.9054 115.487 31.0069 115.487 31.1374C115.487 31.2133 115.505 31.2757 115.542 31.3259C115.578 31.3761 115.63 31.4196 115.699 31.4576C115.769 31.4955 115.856 31.5301 115.96 31.5613C116.065 31.5925 116.187 31.6249 116.325 31.6595C116.504 31.7074 116.667 31.7599 116.814 31.8145C116.96 31.8692 117.084 31.9384 117.185 32.0209C117.287 32.1034 117.365 32.2027 117.421 32.3176C117.475 32.4325 117.503 32.5753 117.503 32.7437C117.503 32.9401 117.466 33.1085 117.392 33.2468C117.318 33.3863 117.218 33.4989 117.092 33.5848C116.965 33.6707 116.822 33.7343 116.658 33.7733C116.495 33.8135 116.323 33.8324 116.143 33.8324C115.868 33.8324 115.596 33.7912 115.327 33.7086C115.058 33.6261 114.817 33.509 114.604 33.3573L114.92 32.7426C114.951 32.7738 115.007 32.814 115.087 32.8642C115.168 32.9144 115.263 32.9646 115.374 33.0137C115.484 33.0639 115.606 33.1063 115.741 33.1408C115.875 33.1754 116.013 33.1922 116.153 33.1922C116.546 33.1922 116.742 33.0661 116.742 32.8151C116.742 32.7359 116.72 32.669 116.675 32.6132C116.631 32.5586 116.567 32.5095 116.485 32.4682C116.402 32.4269 116.302 32.389 116.185 32.3544C116.068 32.3198 115.937 32.2819 115.792 32.2406C115.617 32.1927 115.464 32.1403 115.335 32.0834C115.205 32.0265 115.098 31.9595 115.012 31.8815C114.926 31.8045 114.862 31.7141 114.818 31.6126C114.775 31.5111 114.753 31.3895 114.753 31.249C114.753 31.0627 114.788 30.8976 114.857 30.7526C114.926 30.6076 115.021 30.4871 115.144 30.3912C115.265 30.2952 115.408 30.2216 115.57 30.1714C115.732 30.1212 115.906 30.0967 116.092 30.0967C116.35 30.0967 116.588 30.1368 116.805 30.2183C117.021 30.2997 117.211 30.3945 117.373 30.5049L117.057 31.0839L117.058 31.0861Z" fill="white"/>
</svg>
