<svg width="445" height="124" viewBox="0 0 445 124" fill="none" xmlns="http://www.w3.org/2000/svg">
<path d="M32.8067 18.8426V17.4348C32.8067 16.6658 32.6765 15.8317 32.4202 14.9365C32.1638 14.0414 31.6308 13.2073 30.817 12.4383C30.0033 11.6693 28.8722 11.0102 27.4196 10.4527C25.963 9.89938 24.0018 9.61863 21.5239 9.61863C19.2169 9.61863 17.3575 9.89938 15.9497 10.4527C14.5378 11.0102 13.4514 11.7141 12.6824 12.5685C11.9134 13.423 11.4211 14.2977 11.2095 15.1969C10.998 16.0921 10.8922 16.9262 10.8922 17.6952V77.4251C10.8922 78.1941 10.998 79.0282 11.2095 79.9233C11.4211 80.8225 11.9175 81.677 12.6824 82.4867C13.4514 83.3004 14.5419 83.984 15.9497 84.5374C17.3615 85.0948 19.2169 85.3715 21.5239 85.3715C23.9977 85.3715 25.963 85.0948 27.4196 84.5374C28.8722 83.984 30.0033 83.3208 30.817 82.5518C31.6267 81.7828 32.1638 80.9487 32.4202 80.0535C32.6765 79.1584 32.8067 78.3691 32.8067 77.6855V76.2736H43.7029V79.4798C43.7029 80.5052 43.532 81.8723 43.1903 83.5812C42.8485 85.2901 41.9493 86.999 40.5008 88.7079C39.0442 90.4168 36.8674 91.8937 33.9622 93.1306C31.0571 94.3676 27.0412 94.9901 21.9145 94.9901C16.7878 94.9901 12.7719 94.3716 9.86683 93.1306C6.95764 91.8937 4.76049 90.4168 3.26724 88.7079C1.76993 86.999 0.850376 85.2697 0.512666 83.5161C0.170887 81.7665 0 80.4197 0 79.4798V15.5225C0 14.5826 0.170887 13.2358 0.512666 11.4862C0.850376 9.73663 1.76993 8.00332 3.26724 6.29443C4.76049 4.58553 6.96171 3.11263 9.86683 1.87164C12.7719 0.634729 16.7878 0.012207 21.9145 0.012207C27.0412 0.012207 31.0571 0.630661 33.9622 1.87164C36.8674 3.11263 39.0442 4.58553 40.5008 6.29443C41.9493 8.00332 42.8485 9.73663 43.1903 11.4862C43.532 13.2399 43.7029 14.5826 43.7029 15.5225V18.8548H32.8067V18.8426Z" fill="#191912"/>
<path d="M52.6748 1.15527H63.4408V94.0784H52.6748V1.15527Z" fill="#191912"/>
<path d="M119.578 76.2652V79.5976C119.578 81.221 119.277 82.8892 118.683 84.594C118.085 86.3029 117.185 87.8613 115.989 89.2732C114.793 90.681 113.3 91.8365 111.501 92.7316C109.707 93.6268 107.571 94.0784 105.093 94.0784H76.001V1.15527H105.093C107.571 1.15527 109.707 1.60284 111.501 2.50204C113.296 3.39718 114.789 4.55272 115.989 5.96052C117.185 7.37239 118.08 8.93074 118.683 10.6396C119.277 12.3485 119.578 14.0167 119.578 15.6361V76.2612V76.2652ZM108.812 18.9725V17.817C108.812 15.6809 108.149 13.8662 106.826 12.3689C105.5 10.8756 103.73 10.127 101.508 10.127H86.8972V85.1067H101.508C103.73 85.1067 105.5 84.3621 106.826 82.8648C108.149 81.3716 108.812 79.5976 108.812 77.5469V18.9725Z" fill="#191912"/>
<path d="M175.715 94.0787H164.819V51.1407C164.648 51.2261 163.728 51.5679 162.064 52.166C160.396 52.7641 158.581 53.4029 156.616 54.0865L148.926 56.6498C147.901 56.9062 146.916 57.3375 145.98 57.9315C145.211 58.4442 144.507 59.1074 143.864 59.9171C143.226 60.7308 142.904 61.7765 142.904 63.0582V94.0746H132.138V15.6323C132.138 14.6924 132.309 13.3457 132.651 11.5961C132.989 9.84649 133.888 8.11318 135.34 6.40429C136.793 4.6954 138.974 3.22249 141.879 1.98151C144.784 0.744593 148.8 0.12207 153.927 0.12207C159.053 0.12207 163.069 0.740524 165.974 1.98151C168.879 3.22249 171.056 4.6954 172.513 6.40429C173.961 8.11318 174.861 9.84649 175.202 11.5961C175.544 13.3497 175.715 14.6924 175.715 15.6323V94.0746V94.0787ZM146.749 46.5918C148.544 45.953 150.358 45.3101 152.197 44.6713C154.032 44.0284 155.701 43.4547 157.194 42.938C158.687 42.4253 159.521 42.1283 159.692 42.0429C161.914 41.2739 163.325 40.2078 163.924 38.8367C164.518 37.4736 164.819 36.2326 164.819 35.1218V17.5609C164.819 16.7919 164.689 15.9578 164.432 15.0627C164.176 14.1676 163.643 13.3294 162.829 12.5644C162.015 11.7954 160.884 11.1322 159.432 10.5789C157.979 10.0255 156.014 9.74477 153.536 9.74477C151.229 9.74477 149.37 10.0255 147.962 10.5789C146.55 11.1363 145.463 11.8402 144.694 12.6946C143.925 13.5491 143.433 14.4239 143.222 15.3231C143.006 16.2182 142.9 17.0523 142.9 17.8213V47.9426C143.669 47.6863 144.951 47.2346 146.745 46.5958L146.749 46.5918Z" fill="#191912"/>
<path d="M231.856 76.2652V79.5976C231.856 81.221 231.555 82.8892 230.961 84.594C230.363 86.3029 229.464 87.8613 228.267 89.2732C227.071 90.681 225.578 91.8365 223.78 92.7316C221.985 93.6268 219.849 94.0784 217.371 94.0784H188.279V1.15527H217.371C219.849 1.15527 221.985 1.60284 223.78 2.50204C225.574 3.39718 227.067 4.55272 228.267 5.96052C229.464 7.37239 230.359 8.93074 230.961 10.6396C231.555 12.3485 231.856 14.0167 231.856 15.6361V76.2612V76.2652ZM221.086 18.9725V17.817C221.086 15.6809 220.423 13.8662 219.1 12.3689C217.774 10.8756 216.004 10.127 213.782 10.127H199.171V85.1067H213.782C216.004 85.1067 217.774 84.3621 219.1 82.8648C220.423 81.3716 221.086 79.5976 221.086 77.5469V18.9725Z" fill="#191912"/>
<path d="M284.018 94.0787H258.893C256.416 94.0787 254.279 93.6312 252.485 92.732C250.691 91.8368 249.198 90.6813 248.001 89.2735C246.805 87.8616 245.906 86.3033 245.308 84.5944C244.71 82.8855 244.413 81.2213 244.413 79.5979V15.6405C244.413 14.0211 244.71 12.3529 245.308 10.644C245.906 8.93514 246.801 7.37679 248.001 5.96492C249.198 4.55712 250.691 3.40158 252.485 2.50644C254.279 1.60724 256.416 1.15967 258.893 1.15967H284.018V10.1314H262.486C260.265 10.1314 258.491 10.8841 257.168 12.3733C255.842 13.8706 255.183 15.6853 255.183 17.8214V42.5597H278.383V52.6828H255.183V77.5472C255.183 79.5979 255.842 81.3719 257.168 82.8651C258.491 84.3584 260.265 85.107 262.486 85.107H284.018V94.0787Z" fill="#191912"/>
<path d="M336.184 94.0787H311.059C308.582 94.0787 306.445 93.6312 304.651 92.732C302.857 91.8368 301.364 90.6813 300.167 89.2735C298.971 87.8616 298.072 86.3033 297.474 84.5944C296.876 82.8855 296.579 81.2213 296.579 79.5979V15.6405C296.579 14.0211 296.876 12.3529 297.474 10.644C298.072 8.93514 298.967 7.37679 300.167 5.96492C301.364 4.55712 302.857 3.40158 304.651 2.50644C306.445 1.60724 308.582 1.15967 311.059 1.15967H336.184V10.1314H314.652C312.431 10.1314 310.657 10.8841 309.334 12.3733C308.008 13.8706 307.349 15.6853 307.349 17.8214V42.5597H330.549V52.6828H307.349V77.5472C307.349 79.5979 308.008 81.3719 309.334 82.8651C310.657 84.3584 312.431 85.107 314.652 85.107H336.184V94.0787Z" fill="#B6C327"/>
<path d="M381.555 18.8426V17.4348C381.555 16.6658 381.425 15.8317 381.169 14.9365C380.912 14.0414 380.379 13.2073 379.566 12.4383C378.752 11.6693 377.621 11.0102 376.168 10.4527C374.712 9.89938 372.75 9.61863 370.272 9.61863C367.965 9.61863 366.106 9.89938 364.698 10.4527C363.286 11.0102 362.2 11.7141 361.431 12.5685C360.662 13.423 360.17 14.2977 359.958 15.1969C359.746 16.0921 359.641 16.9262 359.641 17.6952V77.4251C359.641 78.1941 359.746 79.0282 359.958 79.9233C360.17 80.8225 360.666 81.677 361.431 82.4867C362.2 83.3004 363.29 83.984 364.698 84.5374C366.11 85.0948 367.965 85.3715 370.272 85.3715C372.746 85.3715 374.712 85.0948 376.168 84.5374C377.621 83.984 378.752 83.3208 379.566 82.5518C380.375 81.7828 380.912 80.9487 381.169 80.0535C381.425 79.1584 381.555 78.3691 381.555 77.6855V76.2736H392.451V79.4798C392.451 80.5052 392.281 81.8723 391.939 83.5812C391.597 85.2901 390.698 86.999 389.249 88.7079C387.793 90.4168 385.616 91.8937 382.711 93.1306C379.806 94.3676 375.79 94.9901 370.663 94.9901C365.536 94.9901 361.521 94.3716 358.615 93.1306C355.706 91.8937 353.509 90.4168 352.016 88.7079C350.518 86.999 349.599 85.2697 349.261 83.5161C348.919 81.7665 348.749 80.4197 348.749 79.4798V15.5225C348.749 14.5826 348.919 13.2358 349.261 11.4862C349.599 9.73663 350.518 8.00332 352.016 6.29443C353.509 4.58553 355.71 3.11263 358.615 1.87164C361.521 0.634729 365.536 0.012207 370.663 0.012207C375.79 0.012207 379.806 0.630661 382.711 1.87164C385.616 3.11263 387.793 4.58553 389.249 6.29443C390.698 8.00332 391.597 9.73663 391.939 11.4862C392.281 13.2399 392.451 14.5826 392.451 15.5225V18.8548H381.555V18.8426Z" fill="#B6C327"/>
<path d="M445 78.186V79.4676C445 80.493 444.829 81.8601 444.487 83.569C444.146 85.2779 443.246 86.9868 441.798 88.6957C440.341 90.4046 438.165 91.8815 435.259 93.1184C432.354 94.3554 428.338 94.9779 423.212 94.9779C418.085 94.9779 414.069 94.3594 411.164 93.1184C408.259 91.8815 406.078 90.4046 404.625 88.6957C403.169 86.9868 402.274 85.2575 401.936 83.5039C401.594 81.7543 401.423 80.4075 401.423 79.4676V15.5102C401.423 14.5704 401.594 13.2236 401.936 11.474C402.274 9.72442 403.173 7.99111 404.625 6.28222C406.078 4.57333 408.259 3.10042 411.164 1.85944C414.069 0.622522 418.085 0 423.212 0C428.338 0 432.354 0.618454 435.259 1.85944C438.165 3.10042 440.341 4.57333 441.798 6.28222C443.246 7.99111 444.146 9.72442 444.487 11.474C444.829 13.2277 445 14.5704 445 15.5102V78.186ZM434.104 76.2655H434.234V18.8426H434.104V17.4348C434.104 16.6658 433.974 15.8317 433.717 14.9365C433.461 14.0414 432.948 13.2073 432.179 12.4383C431.41 11.6693 430.275 11.0102 428.782 10.4527C427.289 9.89938 425.299 9.61863 422.821 9.61863C420.514 9.61863 418.655 9.89938 417.247 10.4527C415.835 11.0102 414.749 11.7141 413.98 12.5685C413.211 13.423 412.718 14.2977 412.507 15.1969C412.291 16.0921 412.185 16.9262 412.185 17.6952V77.4251C412.185 78.1941 412.291 79.0282 412.507 79.9233C412.718 80.8225 413.211 81.677 413.98 82.4867C414.749 83.3004 415.839 83.984 417.247 84.5374C418.659 85.0948 420.514 85.3715 422.821 85.3715C425.295 85.3715 427.285 85.0948 428.782 84.5374C430.275 83.984 431.41 83.3208 432.179 82.5518C432.948 81.7828 433.461 80.9487 433.717 80.0535C433.974 79.1584 434.104 78.3691 434.104 77.6855V76.2736V76.2655Z" fill="#B6C327"/>
<path d="M17.2271 123.264V109.886H22.899C23.5133 109.886 24.083 110.016 24.6038 110.272C25.1246 110.529 25.5762 110.87 25.9505 111.289C26.3249 111.709 26.6219 112.189 26.8375 112.722C27.0532 113.255 27.159 113.792 27.159 114.333C27.159 114.874 27.0573 115.448 26.8579 115.981C26.6585 116.514 26.3737 116.99 26.0116 117.405C25.6495 117.82 25.206 118.154 24.6933 118.402C24.1766 118.654 23.611 118.78 22.9966 118.78H19.8311V123.264H17.2311H17.2271ZM19.827 116.498H22.842C23.318 116.498 23.7168 116.302 24.0382 115.912C24.3597 115.521 24.5183 114.996 24.5183 114.329C24.5183 113.991 24.4695 113.686 24.3678 113.413C24.2661 113.145 24.1359 112.913 23.9731 112.726C23.8104 112.539 23.6191 112.396 23.3994 112.303C23.1797 112.209 22.9559 112.16 22.7321 112.16H19.8311V116.493L19.827 116.498Z" fill="#171711"/>
<path d="M48.0522 120.982V123.26H38.7632V109.882H47.8814V112.16H41.3631V115.383H46.9984V117.495H41.3631V120.982H48.0522Z" fill="#171711"/>
<path d="M62.4842 114.691V123.264H59.8843V109.886H61.8983L68.8722 118.666V109.906H71.4722V123.264H69.3605L62.4842 114.691Z" fill="#171711"/>
<path d="M92.028 113.389C91.9385 113.3 91.7798 113.182 91.5479 113.031C91.316 112.881 91.0312 112.734 90.7016 112.588C90.3679 112.441 90.0058 112.319 89.6193 112.222C89.2287 112.12 88.834 112.071 88.4312 112.071C87.7151 112.071 87.1821 112.201 86.8281 112.466C86.4782 112.73 86.2992 113.1 86.2992 113.576C86.2992 113.853 86.3642 114.081 86.4985 114.264C86.6287 114.447 86.82 114.606 87.0722 114.744C87.3245 114.883 87.6418 115.009 88.0243 115.123C88.4068 115.237 88.8503 115.355 89.3548 115.481C90.0058 115.656 90.5999 115.847 91.1369 116.046C91.67 116.246 92.1216 116.498 92.4919 116.799C92.8621 117.1 93.1469 117.462 93.3504 117.881C93.5497 118.3 93.6515 118.821 93.6515 119.436C93.6515 120.152 93.5172 120.766 93.2446 121.271C92.976 121.779 92.6099 122.19 92.1501 122.503C91.6903 122.817 91.1654 123.049 90.5673 123.191C89.9733 123.337 89.3467 123.407 88.6916 123.407C87.6866 123.407 86.6938 123.256 85.7132 122.955C84.7327 122.654 83.8538 122.227 83.0767 121.673L84.2281 119.431C84.3421 119.545 84.5455 119.692 84.8385 119.875C85.1355 120.058 85.4813 120.241 85.8841 120.42C86.2869 120.603 86.7304 120.758 87.2228 120.884C87.711 121.01 88.2156 121.071 88.7282 121.071C90.1604 121.071 90.8765 120.611 90.8765 119.696C90.8765 119.407 90.7952 119.163 90.6324 118.959C90.4697 118.76 90.2377 118.581 89.9367 118.431C89.6356 118.28 89.2694 118.142 88.8421 118.016C88.4149 117.889 87.9389 117.751 87.4099 117.6C86.7711 117.426 86.2137 117.234 85.7417 117.027C85.2697 116.819 84.8791 116.575 84.5658 116.29C84.2525 116.01 84.0166 115.68 83.8579 115.31C83.6992 114.94 83.6219 114.496 83.6219 113.983C83.6219 113.304 83.748 112.702 84.0003 112.173C84.2525 111.644 84.5984 111.204 85.046 110.854C85.4895 110.505 86.0103 110.236 86.6002 110.053C87.1902 109.87 87.8249 109.78 88.5044 109.78C89.4443 109.78 90.3151 109.927 91.1044 110.224C91.8937 110.521 92.5854 110.867 93.1754 111.269L92.0239 113.381L92.028 113.389Z" fill="#171711"/>
<path d="M108.987 109.886H111.286L116.372 123.264H113.694L112.449 119.928H107.778L106.554 123.264H103.876L108.983 109.886H108.987ZM111.982 118.101L110.134 112.844L108.214 118.101H111.982Z" fill="#171711"/>
<path d="M127.638 123.264V109.886H132.5C133.595 109.886 134.551 110.061 135.373 110.415C136.195 110.769 136.882 111.245 137.436 111.847C137.989 112.449 138.404 113.157 138.681 113.967C138.958 114.776 139.096 115.639 139.096 116.559C139.096 117.576 138.941 118.495 138.632 119.317C138.323 120.139 137.883 120.843 137.306 121.429C136.728 122.015 136.032 122.466 135.222 122.784C134.413 123.105 133.505 123.264 132.5 123.264H127.638ZM136.476 116.555C136.476 115.916 136.386 115.326 136.211 114.785C136.036 114.243 135.78 113.78 135.438 113.389C135.1 112.998 134.681 112.697 134.185 112.486C133.688 112.274 133.127 112.164 132.5 112.164H130.238V120.981H132.5C133.139 120.981 133.709 120.867 134.205 120.644C134.702 120.416 135.117 120.107 135.45 119.712C135.784 119.317 136.036 118.849 136.215 118.308C136.39 117.767 136.48 117.185 136.48 116.555H136.476Z" fill="#171711"/>
<path d="M154.264 109.886H156.563L161.649 123.264H158.972L157.727 119.928H153.056L151.831 123.264H149.154L154.26 109.886H154.264ZM157.259 118.101L155.412 112.844L153.491 118.101H157.259Z" fill="#171711"/>
<path d="M186.652 123.264V109.886H192.324C192.938 109.886 193.508 110.016 194.029 110.272C194.549 110.529 195.001 110.87 195.375 111.289C195.75 111.709 196.047 112.189 196.262 112.722C196.478 113.255 196.584 113.792 196.584 114.333C196.584 114.874 196.482 115.448 196.283 115.981C196.083 116.514 195.798 116.99 195.436 117.405C195.07 117.82 194.631 118.154 194.118 118.402C193.601 118.654 193.036 118.78 192.421 118.78H189.256V123.264H186.656H186.652ZM189.252 116.498H192.267C192.743 116.498 193.142 116.302 193.463 115.912C193.784 115.521 193.943 114.996 193.943 114.329C193.943 113.991 193.894 113.686 193.793 113.413C193.691 113.145 193.561 112.913 193.398 112.726C193.235 112.539 193.044 112.396 192.824 112.303C192.604 112.209 192.381 112.16 192.157 112.16H189.256V116.493L189.252 116.498Z" fill="#171711"/>
<path d="M211.146 109.886H213.445L218.531 123.264H215.854L214.609 119.928H209.938L208.713 123.264H206.036L211.142 109.886H211.146ZM214.141 118.101L212.293 112.844L210.373 118.101H214.141Z" fill="#171711"/>
<path d="M229.797 123.264V109.886H235.713C236.328 109.886 236.897 110.016 237.418 110.272C237.939 110.529 238.387 110.87 238.765 111.289C239.143 111.709 239.436 112.189 239.652 112.722C239.864 113.255 239.973 113.792 239.973 114.333C239.973 115.2 239.758 115.989 239.322 116.697C238.887 117.409 238.301 117.918 237.561 118.231L240.612 123.26H237.691L234.961 118.776H232.397V123.26H229.797V123.264ZM232.397 116.498H235.656C235.896 116.498 236.116 116.441 236.324 116.327C236.531 116.213 236.71 116.062 236.861 115.867C237.011 115.672 237.129 115.444 237.219 115.179C237.304 114.915 237.349 114.634 237.349 114.333C237.349 114.032 237.3 113.731 237.199 113.466C237.097 113.202 236.963 112.974 236.792 112.779C236.621 112.583 236.425 112.433 236.206 112.327C235.986 112.221 235.762 112.168 235.538 112.168H232.393V116.502L232.397 116.498Z" fill="#171711"/>
<path d="M255.724 109.886H258.023L263.109 123.264H260.431L259.186 119.928H254.515L253.291 123.264H250.613L255.72 109.886H255.724ZM258.718 118.101L256.871 112.844L254.951 118.101H258.718Z" fill="#171711"/>
<path d="M288.111 123.264V109.886H293.783C294.398 109.886 294.967 110.016 295.488 110.272C296.009 110.529 296.46 110.87 296.835 111.289C297.209 111.709 297.506 112.189 297.722 112.722C297.937 113.255 298.043 113.792 298.043 114.333C298.043 114.874 297.942 115.448 297.742 115.981C297.543 116.514 297.258 116.99 296.896 117.405C296.534 117.82 296.09 118.154 295.578 118.402C295.061 118.654 294.495 118.78 293.881 118.78H290.715V123.264H288.115H288.111ZM290.711 116.498H293.726C294.202 116.498 294.601 116.302 294.922 115.912C295.244 115.521 295.403 114.996 295.403 114.329C295.403 113.991 295.354 113.686 295.252 113.413C295.15 113.145 295.02 112.913 294.857 112.726C294.695 112.539 294.503 112.396 294.284 112.303C294.064 112.209 293.84 112.16 293.616 112.16H290.715V116.493L290.711 116.498Z" fill="#171711"/>
<path d="M318.937 120.982V123.26H309.647V109.882H318.766V112.16H312.247V115.383H317.883V117.495H312.247V120.982H318.937Z" fill="#171711"/>
<path d="M338.459 113.389C338.369 113.3 338.21 113.182 337.979 113.031C337.747 112.881 337.462 112.734 337.132 112.588C336.799 112.441 336.436 112.319 336.05 112.222C335.659 112.12 335.265 112.071 334.862 112.071C334.146 112.071 333.613 112.201 333.259 112.466C332.909 112.73 332.73 113.1 332.73 113.576C332.73 113.853 332.795 114.081 332.929 114.264C333.059 114.447 333.251 114.606 333.503 114.744C333.755 114.883 334.073 115.009 334.455 115.123C334.837 115.237 335.281 115.355 335.785 115.481C336.436 115.656 337.031 115.847 337.568 116.046C338.101 116.246 338.552 116.498 338.923 116.799C339.293 117.1 339.578 117.462 339.781 117.881C339.98 118.3 340.082 118.821 340.082 119.436C340.082 120.152 339.948 120.766 339.675 121.271C339.407 121.779 339.041 122.19 338.581 122.503C338.121 122.817 337.596 123.049 336.998 123.191C336.404 123.337 335.777 123.407 335.122 123.407C334.117 123.407 333.124 123.256 332.144 122.955C331.163 122.654 330.284 122.227 329.507 121.673L330.659 119.431C330.773 119.545 330.976 119.692 331.269 119.875C331.566 120.058 331.912 120.241 332.315 120.42C332.718 120.603 333.161 120.758 333.653 120.884C334.142 121.01 334.646 121.071 335.159 121.071C336.591 121.071 337.307 120.611 337.307 119.696C337.307 119.407 337.226 119.163 337.063 118.959C336.9 118.76 336.668 118.581 336.367 118.431C336.066 118.28 335.7 118.142 335.273 118.016C334.846 117.889 334.37 117.751 333.841 117.6C333.202 117.426 332.644 117.234 332.172 117.027C331.7 116.819 331.31 116.575 330.996 116.29C330.683 116.01 330.447 115.68 330.289 115.31C330.13 114.94 330.053 114.496 330.053 113.983C330.053 113.304 330.179 112.702 330.431 112.173C330.683 111.644 331.029 111.204 331.477 110.854C331.92 110.505 332.441 110.236 333.031 110.053C333.621 109.87 334.256 109.78 334.935 109.78C335.875 109.78 336.746 109.927 337.535 110.224C338.324 110.521 339.016 110.867 339.606 111.269L338.455 113.381L338.459 113.389Z" fill="#171711"/>
<path d="M359.803 113.389C359.714 113.3 359.555 113.182 359.323 113.031C359.091 112.881 358.807 112.734 358.477 112.588C358.143 112.441 357.781 112.319 357.395 112.222C357.004 112.12 356.609 112.071 356.207 112.071C355.49 112.071 354.957 112.201 354.603 112.466C354.254 112.73 354.075 113.1 354.075 113.576C354.075 113.853 354.14 114.081 354.274 114.264C354.404 114.447 354.595 114.606 354.848 114.744C355.1 114.883 355.417 115.009 355.8 115.123C356.182 115.237 356.626 115.355 357.13 115.481C357.781 115.656 358.375 115.847 358.912 116.046C359.445 116.246 359.897 116.498 360.267 116.799C360.637 117.1 360.922 117.462 361.126 117.881C361.325 118.3 361.427 118.821 361.427 119.436C361.427 120.152 361.293 120.766 361.02 121.271C360.751 121.779 360.385 122.19 359.925 122.503C359.466 122.817 358.941 123.049 358.343 123.191C357.749 123.337 357.122 123.407 356.467 123.407C355.462 123.407 354.469 123.256 353.489 122.955C352.508 122.654 351.629 122.227 350.852 121.673L352.004 119.431C352.117 119.545 352.321 119.692 352.614 119.875C352.911 120.058 353.257 120.241 353.66 120.42C354.062 120.603 354.506 120.758 354.998 120.884C355.486 121.01 355.991 121.071 356.504 121.071C357.936 121.071 358.652 120.611 358.652 119.696C358.652 119.407 358.571 119.163 358.408 118.959C358.245 118.76 358.013 118.581 357.712 118.431C357.411 118.28 357.045 118.142 356.618 118.016C356.19 117.889 355.714 117.751 355.185 117.6C354.547 117.426 353.989 117.234 353.517 117.027C353.045 116.819 352.655 116.575 352.341 116.29C352.028 116.01 351.792 115.68 351.633 115.31C351.475 114.94 351.397 114.496 351.397 113.983C351.397 113.304 351.523 112.702 351.776 112.173C352.028 111.644 352.374 111.204 352.821 110.854C353.265 110.505 353.786 110.236 354.376 110.053C354.966 109.87 355.6 109.78 356.28 109.78C357.22 109.78 358.09 109.927 358.88 110.224C359.669 110.521 360.361 110.867 360.951 111.269L359.799 113.381L359.803 113.389Z" fill="#171711"/>
<path d="M378.89 123.357C377.909 123.357 377.022 123.166 376.225 122.784C375.427 122.401 374.744 121.893 374.17 121.258C373.596 120.623 373.153 119.899 372.84 119.081C372.526 118.263 372.368 117.429 372.368 116.575C372.368 115.72 372.534 114.829 372.868 114.011C373.202 113.194 373.657 112.473 374.243 111.843C374.829 111.216 375.521 110.716 376.327 110.345C377.132 109.975 378.003 109.792 378.947 109.792C379.891 109.792 380.798 109.991 381.596 110.386C382.393 110.781 383.073 111.302 383.638 111.94C384.204 112.579 384.643 113.311 384.957 114.125C385.27 114.943 385.428 115.769 385.428 116.611C385.428 117.502 385.266 118.353 384.94 119.162C384.615 119.972 384.163 120.688 383.585 121.311C383.008 121.933 382.316 122.43 381.514 122.8C380.709 123.17 379.838 123.353 378.894 123.353L378.89 123.357ZM375.008 116.575C375.008 117.152 375.094 117.71 375.273 118.251C375.448 118.792 375.704 119.268 376.034 119.683C376.367 120.098 376.774 120.432 377.258 120.68C377.743 120.932 378.292 121.058 378.906 121.058C379.521 121.058 380.09 120.928 380.574 120.672C381.059 120.416 381.466 120.074 381.799 119.647C382.133 119.219 382.385 118.739 382.552 118.206C382.723 117.673 382.804 117.128 382.804 116.575C382.804 116.021 382.715 115.439 382.532 114.898C382.348 114.357 382.092 113.881 381.758 113.466C381.425 113.051 381.018 112.722 380.534 112.477C380.05 112.233 379.508 112.111 378.902 112.111C378.296 112.111 377.714 112.241 377.226 112.498C376.738 112.754 376.327 113.096 376.001 113.515C375.676 113.934 375.427 114.414 375.257 114.947C375.086 115.48 375.004 116.025 375.004 116.579L375.008 116.575Z" fill="#171711"/>
<path d="M400.561 109.886H402.86L407.945 123.264H405.268L404.023 119.928H399.352L398.127 123.264H395.45L400.557 109.886H400.561ZM403.555 118.101L401.708 112.844L399.788 118.101H403.555Z" fill="#171711"/>
<path d="M426.975 113.389C426.886 113.3 426.727 113.182 426.495 113.031C426.263 112.881 425.978 112.734 425.649 112.588C425.315 112.441 424.953 112.319 424.567 112.222C424.176 112.12 423.781 112.071 423.378 112.071C422.662 112.071 422.129 112.201 421.775 112.466C421.425 112.73 421.246 113.1 421.246 113.576C421.246 113.853 421.311 114.081 421.446 114.264C421.576 114.447 421.767 114.606 422.019 114.744C422.272 114.883 422.589 115.009 422.972 115.123C423.354 115.237 423.798 115.355 424.302 115.481C424.953 115.656 425.547 115.847 426.084 116.046C426.617 116.246 427.069 116.498 427.439 116.799C427.809 117.1 428.094 117.462 428.298 117.881C428.497 118.3 428.599 118.821 428.599 119.436C428.599 120.152 428.464 120.766 428.192 121.271C427.923 121.779 427.557 122.19 427.097 122.503C426.638 122.817 426.113 123.049 425.515 123.191C424.92 123.337 424.294 123.407 423.639 123.407C422.634 123.407 421.641 123.256 420.66 122.955C419.68 122.654 418.801 122.227 418.024 121.673L419.175 119.431C419.289 119.545 419.493 119.692 419.786 119.875C420.083 120.058 420.429 120.241 420.831 120.42C421.234 120.603 421.678 120.758 422.17 120.884C422.658 121.01 423.163 121.071 423.675 121.071C425.108 121.071 425.824 120.611 425.824 119.696C425.824 119.407 425.742 119.163 425.58 118.959C425.417 118.76 425.185 118.581 424.884 118.431C424.583 118.28 424.217 118.142 423.789 118.016C423.362 117.889 422.886 117.751 422.357 117.6C421.718 117.426 421.161 117.234 420.689 117.027C420.217 116.819 419.826 116.575 419.513 116.29C419.2 116.01 418.964 115.68 418.805 115.31C418.646 114.94 418.569 114.496 418.569 113.983C418.569 113.304 418.695 112.702 418.948 112.173C419.2 111.644 419.546 111.204 419.993 110.854C420.437 110.505 420.957 110.236 421.547 110.053C422.137 109.87 422.772 109.78 423.452 109.78C424.392 109.78 425.262 109.927 426.052 110.224C426.841 110.521 427.533 110.867 428.123 111.269L426.971 113.381L426.975 113.389Z" fill="#171711"/>
</svg>
