<svg width="26" height="26" viewBox="0 0 26 26" fill="none" xmlns="http://www.w3.org/2000/svg">
<path d="M6.90403 3.98047C5.67542 4.62656 4.66272 5.58595 3.98096 6.7497" stroke="#005A32" stroke-width="1.5" stroke-linecap="round" stroke-linejoin="round"/>
<path d="M5.82692 0.75C4.6181 1.09361 3.51717 1.74039 2.62863 2.62893C1.74009 3.51747 1.09342 4.6183 0.75 5.82692" stroke="#005A32" stroke-width="1.5" stroke-linecap="round" stroke-linejoin="round"/>
<path d="M4.13477 19.6729H21.3655" stroke="#005A32" stroke-width="1.5" stroke-linecap="round" stroke-linejoin="round"/>
<path d="M21.3655 19.6731C21.3655 19.6731 19.6425 18.1817 19.6425 12.8213C19.6425 8.53901 16.6994 4.75 12.7502 4.75C8.80086 4.75 5.85784 8.53901 5.85784 12.8213C5.85784 18.2102 4.13477 19.6731 4.13477 19.6731" stroke="#005A32" stroke-width="1.5" stroke-linecap="round" stroke-linejoin="round"/>
<path d="M14.4422 23.0576C14.4422 23.5064 14.264 23.9369 13.9466 24.2543C13.6292 24.5717 13.1987 24.7499 12.7499 24.7499C12.3011 24.7499 11.8706 24.5717 11.5532 24.2543C11.2359 23.9369 11.0576 23.5064 11.0576 23.0576" stroke="#005A32" stroke-width="1.5" stroke-linecap="round" stroke-linejoin="round"/>
<path d="M12.75 4.75008V2.44238" stroke="#005A32" stroke-width="1.5" stroke-linecap="round" stroke-linejoin="round"/>
<path d="M18.75 3.98047C19.3282 4.30315 19.8593 4.70361 20.3286 5.17064C20.7965 5.63944 21.1972 6.17085 21.5192 6.7497" stroke="#005A32" stroke-width="1.5" stroke-linecap="round" stroke-linejoin="round"/>
<path d="M19.6729 0.75C20.8817 1.09361 21.9826 1.74039 22.8711 2.62893C23.7597 3.51747 24.4064 4.6183 24.7498 5.82692" stroke="#005A32" stroke-width="1.5" stroke-linecap="round" stroke-linejoin="round"/>
</svg>
