<svg width="1065" height="99" viewBox="0 0 1065 99" fill="none" xmlns="http://www.w3.org/2000/svg">
<rect x="1.5" y="1.5" width="308" height="39" rx="12.5" stroke="#B8C429" stroke-width="3"/>
<rect x="364.5" y="1.5" width="308" height="39" rx="12.5" stroke="#B8C429" stroke-width="3"/>
<rect x="727.5" y="1.5" width="308" height="39" rx="12.5" stroke="#B8C429" stroke-width="3"/>
<rect x="187.5" y="58.5" width="309" height="39" rx="12.5" stroke="#B8C429" stroke-width="3"/>
<rect x="550.5" y="58.5" width="308" height="39" rx="12.5" stroke="#B8C429" stroke-width="3"/>
<path d="M91.8937 27V13H98.4537C100.134 13 101.414 13.3333 102.294 14C103.174 14.6533 103.614 15.5333 103.614 16.64C103.614 17.3867 103.44 18.0267 103.094 18.56C102.747 19.08 102.28 19.4867 101.694 19.78C101.12 20.06 100.494 20.2 99.8137 20.2L100.174 19.48C100.96 19.48 101.667 19.6267 102.294 19.92C102.92 20.2 103.414 20.6133 103.774 21.16C104.147 21.7067 104.334 22.3867 104.334 23.2C104.334 24.4 103.874 25.3333 102.954 26C102.034 26.6667 100.667 27 98.8537 27H91.8937ZM94.4937 24.96H98.6937C99.667 24.96 100.414 24.8 100.934 24.48C101.454 24.16 101.714 23.6467 101.714 22.94C101.714 22.2467 101.454 21.74 100.934 21.42C100.414 21.0867 99.667 20.92 98.6937 20.92H94.2937V18.9H98.1737C99.0803 18.9 99.7737 18.74 100.254 18.42C100.747 18.1 100.994 17.62 100.994 16.98C100.994 16.3267 100.747 15.84 100.254 15.52C99.7737 15.2 99.0803 15.04 98.1737 15.04H94.4937V24.96ZM106.869 27V16.32H109.369V27H106.869ZM108.129 14.56C107.662 14.56 107.275 14.4133 106.969 14.12C106.675 13.8267 106.529 13.4733 106.529 13.06C106.529 12.6333 106.675 12.28 106.969 12C107.275 11.7067 107.662 11.56 108.129 11.56C108.595 11.56 108.975 11.7 109.269 11.98C109.575 12.2467 109.729 12.5867 109.729 13C109.729 13.44 109.582 13.8133 109.289 14.12C108.995 14.4133 108.609 14.56 108.129 14.56ZM117.45 27.14C116.356 27.14 115.383 26.9067 114.53 26.44C113.676 25.96 113.003 25.3067 112.51 24.48C112.016 23.6533 111.77 22.7133 111.77 21.66C111.77 20.5933 112.016 19.6533 112.51 18.84C113.003 18.0133 113.676 17.3667 114.53 16.9C115.383 16.4333 116.356 16.2 117.45 16.2C118.556 16.2 119.536 16.4333 120.39 16.9C121.256 17.3667 121.93 18.0067 122.41 18.82C122.903 19.6333 123.15 20.58 123.15 21.66C123.15 22.7133 122.903 23.6533 122.41 24.48C121.93 25.3067 121.256 25.96 120.39 26.44C119.536 26.9067 118.556 27.14 117.45 27.14ZM117.45 25C118.063 25 118.61 24.8667 119.09 24.6C119.57 24.3333 119.943 23.9467 120.21 23.44C120.49 22.9333 120.63 22.34 120.63 21.66C120.63 20.9667 120.49 20.3733 120.21 19.88C119.943 19.3733 119.57 18.9867 119.09 18.72C118.61 18.4533 118.07 18.32 117.47 18.32C116.856 18.32 116.31 18.4533 115.83 18.72C115.363 18.9867 114.99 19.3733 114.71 19.88C114.43 20.3733 114.29 20.9667 114.29 21.66C114.29 22.34 114.43 22.9333 114.71 23.44C114.99 23.9467 115.363 24.3333 115.83 24.6C116.31 24.8667 116.85 25 117.45 25ZM130.06 27.14C129.034 27.14 128.107 26.9133 127.28 26.46C126.467 25.9933 125.827 25.3533 125.36 24.54C124.894 23.7267 124.66 22.7667 124.66 21.66C124.66 20.5533 124.894 19.5933 125.36 18.78C125.827 17.9667 126.467 17.3333 127.28 16.88C128.107 16.4267 129.034 16.2 130.06 16.2C130.954 16.2 131.754 16.4 132.46 16.8C133.167 17.1867 133.727 17.78 134.14 18.58C134.554 19.38 134.76 20.4067 134.76 21.66C134.76 22.9 134.56 23.9267 134.16 24.74C133.76 25.54 133.207 26.14 132.5 26.54C131.794 26.94 130.98 27.14 130.06 27.14ZM130.36 25C130.96 25 131.494 24.8667 131.96 24.6C132.44 24.3333 132.82 23.9467 133.1 23.44C133.394 22.9333 133.54 22.34 133.54 21.66C133.54 20.9667 133.394 20.3733 133.1 19.88C132.82 19.3733 132.44 18.9867 131.96 18.72C131.494 18.4533 130.96 18.32 130.36 18.32C129.76 18.32 129.22 18.4533 128.74 18.72C128.274 18.9867 127.894 19.3733 127.6 19.88C127.32 20.3733 127.18 20.9667 127.18 21.66C127.18 22.34 127.32 22.9333 127.6 23.44C127.894 23.9467 128.274 24.3333 128.74 24.6C129.22 24.8667 129.76 25 130.36 25ZM133.6 27V24.48L133.7 21.64L133.5 18.8V12.16H135.98V27H133.6ZM139.271 27V16.32H141.771V27H139.271ZM140.531 14.56C140.064 14.56 139.678 14.4133 139.371 14.12C139.078 13.8267 138.931 13.4733 138.931 13.06C138.931 12.6333 139.078 12.28 139.371 12C139.678 11.7067 140.064 11.56 140.531 11.56C140.998 11.56 141.378 11.7 141.671 11.98C141.978 12.2467 142.131 12.5867 142.131 13C142.131 13.44 141.984 13.8133 141.691 14.12C141.398 14.4133 141.011 14.56 140.531 14.56ZM149.892 31.02C148.905 31.02 147.939 30.8867 146.992 30.62C146.059 30.3667 145.292 29.9933 144.692 29.5L145.812 27.62C146.279 28.0067 146.865 28.3133 147.572 28.54C148.292 28.78 149.019 28.9 149.752 28.9C150.925 28.9 151.785 28.6267 152.332 28.08C152.879 27.5467 153.152 26.74 153.152 25.66V23.76L153.352 21.34L153.272 18.92V16.32H155.652V25.38C155.652 27.3133 155.159 28.7333 154.172 29.64C153.185 30.56 151.759 31.02 149.892 31.02ZM149.572 26.52C148.559 26.52 147.639 26.3067 146.812 25.88C145.999 25.44 145.352 24.8333 144.872 24.06C144.405 23.2867 144.172 22.38 144.172 21.34C144.172 20.3133 144.405 19.4133 144.872 18.64C145.352 17.8667 145.999 17.2667 146.812 16.84C147.639 16.4133 148.559 16.2 149.572 16.2C150.479 16.2 151.292 16.38 152.012 16.74C152.732 17.1 153.305 17.66 153.732 18.42C154.172 19.18 154.392 20.1533 154.392 21.34C154.392 22.5267 154.172 23.5067 153.732 24.28C153.305 25.04 152.732 25.6067 152.012 25.98C151.292 26.34 150.479 26.52 149.572 26.52ZM149.952 24.4C150.579 24.4 151.139 24.2733 151.632 24.02C152.125 23.7533 152.505 23.3933 152.772 22.94C153.052 22.4733 153.192 21.94 153.192 21.34C153.192 20.74 153.052 20.2133 152.772 19.76C152.505 19.2933 152.125 18.94 151.632 18.7C151.139 18.4467 150.579 18.32 149.952 18.32C149.325 18.32 148.759 18.4467 148.252 18.7C147.759 18.94 147.372 19.2933 147.092 19.76C146.825 20.2133 146.692 20.74 146.692 21.34C146.692 21.94 146.825 22.4733 147.092 22.94C147.372 23.3933 147.759 23.7533 148.252 24.02C148.759 24.2733 149.325 24.4 149.952 24.4ZM163.959 27.14C162.772 27.14 161.732 26.9067 160.839 26.44C159.959 25.96 159.272 25.3067 158.779 24.48C158.299 23.6533 158.059 22.7133 158.059 21.66C158.059 20.5933 158.292 19.6533 158.759 18.84C159.239 18.0133 159.892 17.3667 160.719 16.9C161.559 16.4333 162.512 16.2 163.579 16.2C164.619 16.2 165.545 16.4267 166.359 16.88C167.172 17.3333 167.812 17.9733 168.279 18.8C168.745 19.6267 168.979 20.6 168.979 21.72C168.979 21.8267 168.972 21.9467 168.959 22.08C168.959 22.2133 168.952 22.34 168.939 22.46H160.039V20.8H167.619L166.639 21.32C166.652 20.7067 166.525 20.1667 166.259 19.7C165.992 19.2333 165.625 18.8667 165.159 18.6C164.705 18.3333 164.179 18.2 163.579 18.2C162.965 18.2 162.425 18.3333 161.959 18.6C161.505 18.8667 161.145 19.24 160.879 19.72C160.625 20.1867 160.499 20.74 160.499 21.38V21.78C160.499 22.42 160.645 22.9867 160.939 23.48C161.232 23.9733 161.645 24.3533 162.179 24.62C162.712 24.8867 163.325 25.02 164.019 25.02C164.619 25.02 165.159 24.9267 165.639 24.74C166.119 24.5533 166.545 24.26 166.919 23.86L168.259 25.4C167.779 25.96 167.172 26.3933 166.439 26.7C165.719 26.9933 164.892 27.14 163.959 27.14ZM174.68 27.14C173.787 27.14 172.927 27.0267 172.1 26.8C171.287 26.56 170.64 26.2733 170.16 25.94L171.12 24.04C171.6 24.3467 172.174 24.6 172.84 24.8C173.507 25 174.174 25.1 174.84 25.1C175.627 25.1 176.194 24.9933 176.54 24.78C176.9 24.5667 177.08 24.28 177.08 23.92C177.08 23.6267 176.96 23.4067 176.72 23.26C176.48 23.1 176.167 22.98 175.78 22.9C175.394 22.82 174.96 22.7467 174.48 22.68C174.014 22.6133 173.54 22.5267 173.06 22.42C172.594 22.3 172.167 22.1333 171.78 21.92C171.394 21.6933 171.08 21.3933 170.84 21.02C170.6 20.6467 170.48 20.1533 170.48 19.54C170.48 18.86 170.674 18.2733 171.06 17.78C171.447 17.2733 171.987 16.8867 172.68 16.62C173.387 16.34 174.22 16.2 175.18 16.2C175.9 16.2 176.627 16.28 177.36 16.44C178.094 16.6 178.7 16.8267 179.18 17.12L178.22 19.02C177.714 18.7133 177.2 18.5067 176.68 18.4C176.174 18.28 175.667 18.22 175.16 18.22C174.4 18.22 173.834 18.3333 173.46 18.56C173.1 18.7867 172.92 19.0733 172.92 19.42C172.92 19.74 173.04 19.98 173.28 20.14C173.52 20.3 173.834 20.4267 174.22 20.52C174.607 20.6133 175.034 20.6933 175.5 20.76C175.98 20.8133 176.454 20.9 176.92 21.02C177.387 21.14 177.814 21.3067 178.2 21.52C178.6 21.72 178.92 22.0067 179.16 22.38C179.4 22.7533 179.52 23.24 179.52 23.84C179.52 24.5067 179.32 25.0867 178.92 25.58C178.534 26.0733 177.98 26.46 177.26 26.74C176.54 27.0067 175.68 27.14 174.68 27.14ZM185.693 27.14C184.52 27.14 183.613 26.84 182.973 26.24C182.333 25.6267 182.013 24.7267 182.013 23.54V13.96H184.513V23.48C184.513 23.9867 184.64 24.38 184.893 24.66C185.16 24.94 185.527 25.08 185.993 25.08C186.553 25.08 187.02 24.9333 187.393 24.64L188.093 26.42C187.8 26.66 187.44 26.84 187.013 26.96C186.587 27.08 186.147 27.14 185.693 27.14ZM180.253 18.4V16.4H187.373V18.4H180.253ZM194.598 27.14C193.505 27.14 192.532 26.9067 191.678 26.44C190.825 25.96 190.152 25.3067 189.658 24.48C189.165 23.6533 188.918 22.7133 188.918 21.66C188.918 20.5933 189.165 19.6533 189.658 18.84C190.152 18.0133 190.825 17.3667 191.678 16.9C192.532 16.4333 193.505 16.2 194.598 16.2C195.705 16.2 196.685 16.4333 197.538 16.9C198.405 17.3667 199.078 18.0067 199.558 18.82C200.052 19.6333 200.298 20.58 200.298 21.66C200.298 22.7133 200.052 23.6533 199.558 24.48C199.078 25.3067 198.405 25.96 197.538 26.44C196.685 26.9067 195.705 27.14 194.598 27.14ZM194.598 25C195.212 25 195.758 24.8667 196.238 24.6C196.718 24.3333 197.092 23.9467 197.358 23.44C197.638 22.9333 197.778 22.34 197.778 21.66C197.778 20.9667 197.638 20.3733 197.358 19.88C197.092 19.3733 196.718 18.9867 196.238 18.72C195.758 18.4533 195.218 18.32 194.618 18.32C194.005 18.32 193.458 18.4533 192.978 18.72C192.512 18.9867 192.138 19.3733 191.858 19.88C191.578 20.3733 191.438 20.9667 191.438 21.66C191.438 22.34 191.578 22.9333 191.858 23.44C192.138 23.9467 192.512 24.3333 192.978 24.6C193.458 24.8667 193.998 25 194.598 25ZM202.689 27V16.32H205.069V19.26L204.789 18.4C205.109 17.68 205.609 17.1333 206.289 16.76C206.982 16.3867 207.842 16.2 208.869 16.2V18.58C208.762 18.5533 208.662 18.54 208.569 18.54C208.475 18.5267 208.382 18.52 208.289 18.52C207.342 18.52 206.589 18.8 206.029 19.36C205.469 19.9067 205.189 20.7267 205.189 21.82V27H202.689ZM215.912 27.14C214.725 27.14 213.685 26.9067 212.792 26.44C211.912 25.96 211.225 25.3067 210.732 24.48C210.252 23.6533 210.012 22.7133 210.012 21.66C210.012 20.5933 210.245 19.6533 210.712 18.84C211.192 18.0133 211.845 17.3667 212.672 16.9C213.512 16.4333 214.465 16.2 215.532 16.2C216.572 16.2 217.499 16.4267 218.312 16.88C219.125 17.3333 219.765 17.9733 220.232 18.8C220.699 19.6267 220.932 20.6 220.932 21.72C220.932 21.8267 220.925 21.9467 220.912 22.08C220.912 22.2133 220.905 22.34 220.892 22.46H211.992V20.8H219.572L218.592 21.32C218.605 20.7067 218.479 20.1667 218.212 19.7C217.945 19.2333 217.579 18.8667 217.112 18.6C216.659 18.3333 216.132 18.2 215.532 18.2C214.919 18.2 214.379 18.3333 213.912 18.6C213.459 18.8667 213.099 19.24 212.832 19.72C212.579 20.1867 212.452 20.74 212.452 21.38V21.78C212.452 22.42 212.599 22.9867 212.892 23.48C213.185 23.9733 213.599 24.3533 214.132 24.62C214.665 24.8867 215.279 25.02 215.972 25.02C216.572 25.02 217.112 24.9267 217.592 24.74C218.072 24.5533 218.499 24.26 218.872 23.86L220.212 25.4C219.732 25.96 219.125 26.3933 218.392 26.7C217.672 26.9933 216.845 27.14 215.912 27.14ZM226.633 27.14C225.74 27.14 224.88 27.0267 224.053 26.8C223.24 26.56 222.593 26.2733 222.113 25.94L223.073 24.04C223.553 24.3467 224.127 24.6 224.793 24.8C225.46 25 226.127 25.1 226.793 25.1C227.58 25.1 228.147 24.9933 228.493 24.78C228.853 24.5667 229.033 24.28 229.033 23.92C229.033 23.6267 228.913 23.4067 228.673 23.26C228.433 23.1 228.12 22.98 227.733 22.9C227.347 22.82 226.913 22.7467 226.433 22.68C225.967 22.6133 225.493 22.5267 225.013 22.42C224.547 22.3 224.12 22.1333 223.733 21.92C223.347 21.6933 223.033 21.3933 222.793 21.02C222.553 20.6467 222.433 20.1533 222.433 19.54C222.433 18.86 222.627 18.2733 223.013 17.78C223.4 17.2733 223.94 16.8867 224.633 16.62C225.34 16.34 226.173 16.2 227.133 16.2C227.853 16.2 228.58 16.28 229.313 16.44C230.047 16.6 230.653 16.8267 231.133 17.12L230.173 19.02C229.667 18.7133 229.153 18.5067 228.633 18.4C228.127 18.28 227.62 18.22 227.113 18.22C226.353 18.22 225.787 18.3333 225.413 18.56C225.053 18.7867 224.873 19.0733 224.873 19.42C224.873 19.74 224.993 19.98 225.233 20.14C225.473 20.3 225.787 20.4267 226.173 20.52C226.56 20.6133 226.987 20.6933 227.453 20.76C227.933 20.8133 228.407 20.9 228.873 21.02C229.34 21.14 229.767 21.3067 230.153 21.52C230.553 21.72 230.873 22.0067 231.113 22.38C231.353 22.7533 231.473 23.24 231.473 23.84C231.473 24.5067 231.273 25.0867 230.873 25.58C230.487 26.0733 229.933 26.46 229.213 26.74C228.493 27.0067 227.633 27.14 226.633 27.14Z" fill="#005A32"/>
<path d="M633.687 83V69H639.447C640.687 69 641.747 69.2 642.627 69.6C643.52 70 644.207 70.5733 644.687 71.32C645.167 72.0667 645.407 72.9533 645.407 73.98C645.407 75.0067 645.167 75.8933 644.687 76.64C644.207 77.3867 643.52 77.96 642.627 78.36C641.747 78.76 640.687 78.96 639.447 78.96H635.127L636.287 77.74V83H633.687ZM636.287 78.02L635.127 76.76H639.327C640.473 76.76 641.333 76.52 641.907 76.04C642.493 75.5467 642.787 74.86 642.787 73.98C642.787 73.0867 642.493 72.4 641.907 71.92C641.333 71.44 640.473 71.2 639.327 71.2H635.127L636.287 69.92V78.02ZM647.958 83V68.16H650.458V83H647.958ZM660.32 83V80.84L660.18 80.38V76.6C660.18 75.8667 659.96 75.3 659.52 74.9C659.08 74.4867 658.413 74.28 657.52 74.28C656.92 74.28 656.326 74.3733 655.74 74.56C655.166 74.7467 654.68 75.0067 654.28 75.34L653.3 73.52C653.873 73.08 654.553 72.7533 655.34 72.54C656.14 72.3133 656.966 72.2 657.82 72.2C659.366 72.2 660.56 72.5733 661.4 73.32C662.253 74.0533 662.68 75.1933 662.68 76.74V83H660.32ZM656.96 83.14C656.16 83.14 655.46 83.0067 654.86 82.74C654.26 82.46 653.793 82.08 653.46 81.6C653.14 81.1067 652.98 80.5533 652.98 79.94C652.98 79.34 653.12 78.8 653.4 78.32C653.693 77.84 654.166 77.46 654.82 77.18C655.473 76.9 656.34 76.76 657.42 76.76H660.52V78.42H657.6C656.746 78.42 656.173 78.56 655.88 78.84C655.586 79.1067 655.44 79.44 655.44 79.84C655.44 80.2933 655.62 80.6533 655.98 80.92C656.34 81.1867 656.84 81.32 657.48 81.32C658.093 81.32 658.64 81.18 659.12 80.9C659.613 80.62 659.966 80.2067 660.18 79.66L660.6 81.16C660.36 81.7867 659.926 82.2733 659.3 82.62C658.686 82.9667 657.906 83.14 656.96 83.14ZM670.808 83.14C669.688 83.14 668.688 82.9067 667.808 82.44C666.941 81.96 666.261 81.3067 665.768 80.48C665.274 79.6533 665.028 78.7133 665.028 77.66C665.028 76.5933 665.274 75.6533 665.768 74.84C666.261 74.0133 666.941 73.3667 667.808 72.9C668.688 72.4333 669.688 72.2 670.808 72.2C671.848 72.2 672.761 72.4133 673.548 72.84C674.348 73.2533 674.954 73.8667 675.368 74.68L673.448 75.8C673.128 75.2933 672.734 74.92 672.268 74.68C671.814 74.44 671.321 74.32 670.788 74.32C670.174 74.32 669.621 74.4533 669.128 74.72C668.634 74.9867 668.248 75.3733 667.968 75.88C667.688 76.3733 667.548 76.9667 667.548 77.66C667.548 78.3533 667.688 78.9533 667.968 79.46C668.248 79.9533 668.634 80.3333 669.128 80.6C669.621 80.8667 670.174 81 670.788 81C671.321 81 671.814 80.88 672.268 80.64C672.734 80.4 673.128 80.0267 673.448 79.52L675.368 80.64C674.954 81.44 674.348 82.06 673.548 82.5C672.761 82.9267 671.848 83.14 670.808 83.14ZM684.109 83V80.84L683.969 80.38V76.6C683.969 75.8667 683.749 75.3 683.309 74.9C682.869 74.4867 682.202 74.28 681.309 74.28C680.709 74.28 680.115 74.3733 679.529 74.56C678.955 74.7467 678.469 75.0067 678.069 75.34L677.089 73.52C677.662 73.08 678.342 72.7533 679.129 72.54C679.929 72.3133 680.755 72.2 681.609 72.2C683.155 72.2 684.349 72.5733 685.189 73.32C686.042 74.0533 686.469 75.1933 686.469 76.74V83H684.109ZM680.749 83.14C679.949 83.14 679.249 83.0067 678.649 82.74C678.049 82.46 677.582 82.08 677.249 81.6C676.929 81.1067 676.769 80.5533 676.769 79.94C676.769 79.34 676.909 78.8 677.189 78.32C677.482 77.84 677.955 77.46 678.609 77.18C679.262 76.9 680.129 76.76 681.209 76.76H684.309V78.42H681.389C680.535 78.42 679.962 78.56 679.669 78.84C679.375 79.1067 679.229 79.44 679.229 79.84C679.229 80.2933 679.409 80.6533 679.769 80.92C680.129 81.1867 680.629 81.32 681.269 81.32C681.882 81.32 682.429 81.18 682.909 80.9C683.402 80.62 683.755 80.2067 683.969 79.66L684.389 81.16C684.149 81.7867 683.715 82.2733 683.089 82.62C682.475 82.9667 681.695 83.14 680.749 83.14ZM692.977 83.14C692.084 83.14 691.224 83.0267 690.397 82.8C689.584 82.56 688.937 82.2733 688.457 81.94L689.417 80.04C689.897 80.3467 690.47 80.6 691.137 80.8C691.804 81 692.47 81.1 693.137 81.1C693.924 81.1 694.49 80.9933 694.837 80.78C695.197 80.5667 695.377 80.28 695.377 79.92C695.377 79.6267 695.257 79.4067 695.017 79.26C694.777 79.1 694.464 78.98 694.077 78.9C693.69 78.82 693.257 78.7467 692.777 78.68C692.31 78.6133 691.837 78.5267 691.357 78.42C690.89 78.3 690.464 78.1333 690.077 77.92C689.69 77.6933 689.377 77.3933 689.137 77.02C688.897 76.6467 688.777 76.1533 688.777 75.54C688.777 74.86 688.97 74.2733 689.357 73.78C689.744 73.2733 690.284 72.8867 690.977 72.62C691.684 72.34 692.517 72.2 693.477 72.2C694.197 72.2 694.924 72.28 695.657 72.44C696.39 72.6 696.997 72.8267 697.477 73.12L696.517 75.02C696.01 74.7133 695.497 74.5067 694.977 74.4C694.47 74.28 693.964 74.22 693.457 74.22C692.697 74.22 692.13 74.3333 691.757 74.56C691.397 74.7867 691.217 75.0733 691.217 75.42C691.217 75.74 691.337 75.98 691.577 76.14C691.817 76.3 692.13 76.4267 692.517 76.52C692.904 76.6133 693.33 76.6933 693.797 76.76C694.277 76.8133 694.75 76.9 695.217 77.02C695.684 77.14 696.11 77.3067 696.497 77.52C696.897 77.72 697.217 78.0067 697.457 78.38C697.697 78.7533 697.817 79.24 697.817 79.84C697.817 80.5067 697.617 81.0867 697.217 81.58C696.83 82.0733 696.277 82.46 695.557 82.74C694.837 83.0067 693.977 83.14 692.977 83.14ZM710.077 83.2C708.984 83.2 707.937 83.0467 706.937 82.74C705.937 82.42 705.144 82.0133 704.557 81.52L705.457 79.5C706.017 79.94 706.711 80.3067 707.537 80.6C708.364 80.8933 709.211 81.04 710.077 81.04C710.811 81.04 711.404 80.96 711.857 80.8C712.311 80.64 712.644 80.4267 712.857 80.16C713.071 79.88 713.177 79.5667 713.177 79.22C713.177 78.7933 713.024 78.4533 712.717 78.2C712.411 77.9333 712.011 77.7267 711.517 77.58C711.037 77.42 710.497 77.2733 709.897 77.14C709.311 77.0067 708.717 76.8533 708.117 76.68C707.531 76.4933 706.991 76.26 706.497 75.98C706.017 75.6867 705.624 75.3 705.317 74.82C705.011 74.34 704.857 73.7267 704.857 72.98C704.857 72.22 705.057 71.5267 705.457 70.9C705.871 70.26 706.491 69.7533 707.317 69.38C708.157 68.9933 709.217 68.8 710.497 68.8C711.337 68.8 712.171 68.9067 712.997 69.12C713.824 69.3333 714.544 69.64 715.157 70.04L714.337 72.06C713.711 71.6867 713.064 71.4133 712.397 71.24C711.731 71.0533 711.091 70.96 710.477 70.96C709.757 70.96 709.171 71.0467 708.717 71.22C708.277 71.3933 707.951 71.62 707.737 71.9C707.537 72.18 707.437 72.5 707.437 72.86C707.437 73.2867 707.584 73.6333 707.877 73.9C708.184 74.1533 708.577 74.3533 709.057 74.5C709.551 74.6467 710.097 74.7933 710.697 74.94C711.297 75.0733 711.891 75.2267 712.477 75.4C713.077 75.5733 713.617 75.8 714.097 76.08C714.591 76.36 714.984 76.74 715.277 77.22C715.584 77.7 715.737 78.3067 715.737 79.04C715.737 79.7867 715.531 80.48 715.117 81.12C714.717 81.7467 714.097 82.2533 713.257 82.64C712.417 83.0133 711.357 83.2 710.077 83.2ZM722.876 83.14C721.782 83.14 720.809 82.9067 719.956 82.44C719.102 81.96 718.429 81.3067 717.936 80.48C717.442 79.6533 717.196 78.7133 717.196 77.66C717.196 76.5933 717.442 75.6533 717.936 74.84C718.429 74.0133 719.102 73.3667 719.956 72.9C720.809 72.4333 721.782 72.2 722.876 72.2C723.982 72.2 724.962 72.4333 725.816 72.9C726.682 73.3667 727.356 74.0067 727.836 74.82C728.329 75.6333 728.576 76.58 728.576 77.66C728.576 78.7133 728.329 79.6533 727.836 80.48C727.356 81.3067 726.682 81.96 725.816 82.44C724.962 82.9067 723.982 83.14 722.876 83.14ZM722.876 81C723.489 81 724.036 80.8667 724.516 80.6C724.996 80.3333 725.369 79.9467 725.636 79.44C725.916 78.9333 726.056 78.34 726.056 77.66C726.056 76.9667 725.916 76.3733 725.636 75.88C725.369 75.3733 724.996 74.9867 724.516 74.72C724.036 74.4533 723.496 74.32 722.896 74.32C722.282 74.32 721.736 74.4533 721.256 74.72C720.789 74.9867 720.416 75.3733 720.136 75.88C719.856 76.3733 719.716 76.9667 719.716 77.66C719.716 78.34 719.856 78.9333 720.136 79.44C720.416 79.9467 720.789 80.3333 721.256 80.6C721.736 80.8667 722.276 81 722.876 81ZM730.966 83V68.16H733.466V83H730.966ZM743.327 83V80.84L743.187 80.38V76.6C743.187 75.8667 742.967 75.3 742.527 74.9C742.087 74.4867 741.421 74.28 740.527 74.28C739.927 74.28 739.334 74.3733 738.747 74.56C738.174 74.7467 737.687 75.0067 737.287 75.34L736.307 73.52C736.881 73.08 737.561 72.7533 738.347 72.54C739.147 72.3133 739.974 72.2 740.827 72.2C742.374 72.2 743.567 72.5733 744.407 73.32C745.261 74.0533 745.687 75.1933 745.687 76.74V83H743.327ZM739.967 83.14C739.167 83.14 738.467 83.0067 737.867 82.74C737.267 82.46 736.801 82.08 736.467 81.6C736.147 81.1067 735.987 80.5533 735.987 79.94C735.987 79.34 736.127 78.8 736.407 78.32C736.701 77.84 737.174 77.46 737.827 77.18C738.481 76.9 739.347 76.76 740.427 76.76H743.527V78.42H740.607C739.754 78.42 739.181 78.56 738.887 78.84C738.594 79.1067 738.447 79.44 738.447 79.84C738.447 80.2933 738.627 80.6533 738.987 80.92C739.347 81.1867 739.847 81.32 740.487 81.32C741.101 81.32 741.647 81.18 742.127 80.9C742.621 80.62 742.974 80.2067 743.187 79.66L743.607 81.16C743.367 81.7867 742.934 82.2733 742.307 82.62C741.694 82.9667 740.914 83.14 739.967 83.14ZM748.896 83V72.32H751.276V75.26L750.996 74.4C751.316 73.68 751.816 73.1333 752.496 72.76C753.189 72.3867 754.049 72.2 755.076 72.2V74.58C754.969 74.5533 754.869 74.54 754.776 74.54C754.683 74.5267 754.589 74.52 754.496 74.52C753.549 74.52 752.796 74.8 752.236 75.36C751.676 75.9067 751.396 76.7267 751.396 77.82V83H748.896ZM762.119 83.14C760.932 83.14 759.892 82.9067 758.999 82.44C758.119 81.96 757.432 81.3067 756.939 80.48C756.459 79.6533 756.219 78.7133 756.219 77.66C756.219 76.5933 756.452 75.6533 756.919 74.84C757.399 74.0133 758.052 73.3667 758.879 72.9C759.719 72.4333 760.672 72.2 761.739 72.2C762.779 72.2 763.706 72.4267 764.519 72.88C765.332 73.3333 765.972 73.9733 766.439 74.8C766.906 75.6267 767.139 76.6 767.139 77.72C767.139 77.8267 767.132 77.9467 767.119 78.08C767.119 78.2133 767.112 78.34 767.099 78.46H758.199V76.8H765.779L764.799 77.32C764.812 76.7067 764.686 76.1667 764.419 75.7C764.152 75.2333 763.786 74.8667 763.319 74.6C762.866 74.3333 762.339 74.2 761.739 74.2C761.126 74.2 760.586 74.3333 760.119 74.6C759.666 74.8667 759.306 75.24 759.039 75.72C758.786 76.1867 758.659 76.74 758.659 77.38V77.78C758.659 78.42 758.806 78.9867 759.099 79.48C759.392 79.9733 759.806 80.3533 760.339 80.62C760.872 80.8867 761.486 81.02 762.179 81.02C762.779 81.02 763.319 80.9267 763.799 80.74C764.279 80.5533 764.706 80.26 765.079 79.86L766.419 81.4C765.939 81.96 765.332 82.3933 764.599 82.7C763.879 82.9933 763.052 83.14 762.119 83.14ZM772.84 83.14C771.947 83.14 771.087 83.0267 770.26 82.8C769.447 82.56 768.8 82.2733 768.32 81.94L769.28 80.04C769.76 80.3467 770.334 80.6 771 80.8C771.667 81 772.334 81.1 773 81.1C773.787 81.1 774.354 80.9933 774.7 80.78C775.06 80.5667 775.24 80.28 775.24 79.92C775.24 79.6267 775.12 79.4067 774.88 79.26C774.64 79.1 774.327 78.98 773.94 78.9C773.554 78.82 773.12 78.7467 772.64 78.68C772.174 78.6133 771.7 78.5267 771.22 78.42C770.754 78.3 770.327 78.1333 769.94 77.92C769.554 77.6933 769.24 77.3933 769 77.02C768.76 76.6467 768.64 76.1533 768.64 75.54C768.64 74.86 768.834 74.2733 769.22 73.78C769.607 73.2733 770.147 72.8867 770.84 72.62C771.547 72.34 772.38 72.2 773.34 72.2C774.06 72.2 774.787 72.28 775.52 72.44C776.254 72.6 776.86 72.8267 777.34 73.12L776.38 75.02C775.874 74.7133 775.36 74.5067 774.84 74.4C774.334 74.28 773.827 74.22 773.32 74.22C772.56 74.22 771.994 74.3333 771.62 74.56C771.26 74.7867 771.08 75.0733 771.08 75.42C771.08 75.74 771.2 75.98 771.44 76.14C771.68 76.3 771.994 76.4267 772.38 76.52C772.767 76.6133 773.194 76.6933 773.66 76.76C774.14 76.8133 774.614 76.9 775.08 77.02C775.547 77.14 775.974 77.3067 776.36 77.52C776.76 77.72 777.08 78.0067 777.32 78.38C777.56 78.7533 777.68 79.24 777.68 79.84C777.68 80.5067 777.48 81.0867 777.08 81.58C776.694 82.0733 776.14 82.46 775.42 82.74C774.7 83.0067 773.84 83.14 772.84 83.14Z" fill="#005A32"/>
<path d="M821.434 18.82H828.394V20.96H821.434V18.82ZM821.634 24.82H829.534V27H819.034V13H829.254V15.18H821.634V24.82ZM835.395 27.14C834.502 27.14 833.642 27.0267 832.815 26.8C832.002 26.56 831.355 26.2733 830.875 25.94L831.835 24.04C832.315 24.3467 832.888 24.6 833.555 24.8C834.222 25 834.888 25.1 835.555 25.1C836.342 25.1 836.908 24.9933 837.255 24.78C837.615 24.5667 837.795 24.28 837.795 23.92C837.795 23.6267 837.675 23.4067 837.435 23.26C837.195 23.1 836.882 22.98 836.495 22.9C836.108 22.82 835.675 22.7467 835.195 22.68C834.728 22.6133 834.255 22.5267 833.775 22.42C833.308 22.3 832.882 22.1333 832.495 21.92C832.108 21.6933 831.795 21.3933 831.555 21.02C831.315 20.6467 831.195 20.1533 831.195 19.54C831.195 18.86 831.388 18.2733 831.775 17.78C832.162 17.2733 832.702 16.8867 833.395 16.62C834.102 16.34 834.935 16.2 835.895 16.2C836.615 16.2 837.342 16.28 838.075 16.44C838.808 16.6 839.415 16.8267 839.895 17.12L838.935 19.02C838.428 18.7133 837.915 18.5067 837.395 18.4C836.888 18.28 836.382 18.22 835.875 18.22C835.115 18.22 834.548 18.3333 834.175 18.56C833.815 18.7867 833.635 19.0733 833.635 19.42C833.635 19.74 833.755 19.98 833.995 20.14C834.235 20.3 834.548 20.4267 834.935 20.52C835.322 20.6133 835.748 20.6933 836.215 20.76C836.695 20.8133 837.168 20.9 837.635 21.02C838.102 21.14 838.528 21.3067 838.915 21.52C839.315 21.72 839.635 22.0067 839.875 22.38C840.115 22.7533 840.235 23.24 840.235 23.84C840.235 24.5067 840.035 25.0867 839.635 25.58C839.248 26.0733 838.695 26.46 837.975 26.74C837.255 27.0067 836.395 27.14 835.395 27.14ZM848.308 27.14C847.441 27.14 846.648 26.94 845.928 26.54C845.221 26.14 844.655 25.54 844.228 24.74C843.815 23.9267 843.608 22.9 843.608 21.66C843.608 20.4067 843.808 19.38 844.208 18.58C844.621 17.78 845.181 17.1867 845.888 16.8C846.595 16.4 847.401 16.2 848.308 16.2C849.361 16.2 850.288 16.4267 851.088 16.88C851.901 17.3333 852.541 17.9667 853.008 18.78C853.488 19.5933 853.728 20.5533 853.728 21.66C853.728 22.7667 853.488 23.7333 853.008 24.56C852.541 25.3733 851.901 26.0067 851.088 26.46C850.288 26.9133 849.361 27.14 848.308 27.14ZM842.388 30.88V16.32H844.768V18.84L844.688 21.68L844.888 24.52V30.88H842.388ZM848.028 25C848.628 25 849.161 24.8667 849.628 24.6C850.108 24.3333 850.488 23.9467 850.768 23.44C851.048 22.9333 851.188 22.34 851.188 21.66C851.188 20.9667 851.048 20.3733 850.768 19.88C850.488 19.3733 850.108 18.9867 849.628 18.72C849.161 18.4533 848.628 18.32 848.028 18.32C847.428 18.32 846.888 18.4533 846.408 18.72C845.928 18.9867 845.548 19.3733 845.268 19.88C844.988 20.3733 844.848 20.9667 844.848 21.66C844.848 22.34 844.988 22.9333 845.268 23.44C845.548 23.9467 845.928 24.3333 846.408 24.6C846.888 24.8667 847.428 25 848.028 25ZM862.542 27V24.84L862.402 24.38V20.6C862.402 19.8667 862.182 19.3 861.742 18.9C861.302 18.4867 860.636 18.28 859.742 18.28C859.142 18.28 858.549 18.3733 857.962 18.56C857.389 18.7467 856.902 19.0067 856.502 19.34L855.522 17.52C856.096 17.08 856.776 16.7533 857.562 16.54C858.362 16.3133 859.189 16.2 860.042 16.2C861.589 16.2 862.782 16.5733 863.622 17.32C864.476 18.0533 864.902 19.1933 864.902 20.74V27H862.542ZM859.182 27.14C858.382 27.14 857.682 27.0067 857.082 26.74C856.482 26.46 856.016 26.08 855.682 25.6C855.362 25.1067 855.202 24.5533 855.202 23.94C855.202 23.34 855.342 22.8 855.622 22.32C855.916 21.84 856.389 21.46 857.042 21.18C857.696 20.9 858.562 20.76 859.642 20.76H862.742V22.42H859.822C858.969 22.42 858.396 22.56 858.102 22.84C857.809 23.1067 857.662 23.44 857.662 23.84C857.662 24.2933 857.842 24.6533 858.202 24.92C858.562 25.1867 859.062 25.32 859.702 25.32C860.316 25.32 860.862 25.18 861.342 24.9C861.836 24.62 862.189 24.2067 862.402 23.66L862.822 25.16C862.582 25.7867 862.149 26.2733 861.522 26.62C860.909 26.9667 860.129 27.14 859.182 27.14ZM873.03 27.14C871.91 27.14 870.91 26.9067 870.03 26.44C869.164 25.96 868.484 25.3067 867.99 24.48C867.497 23.6533 867.25 22.7133 867.25 21.66C867.25 20.5933 867.497 19.6533 867.99 18.84C868.484 18.0133 869.164 17.3667 870.03 16.9C870.91 16.4333 871.91 16.2 873.03 16.2C874.07 16.2 874.984 16.4133 875.77 16.84C876.57 17.2533 877.177 17.8667 877.59 18.68L875.67 19.8C875.35 19.2933 874.957 18.92 874.49 18.68C874.037 18.44 873.544 18.32 873.01 18.32C872.397 18.32 871.844 18.4533 871.35 18.72C870.857 18.9867 870.47 19.3733 870.19 19.88C869.91 20.3733 869.77 20.9667 869.77 21.66C869.77 22.3533 869.91 22.9533 870.19 23.46C870.47 23.9533 870.857 24.3333 871.35 24.6C871.844 24.8667 872.397 25 873.01 25C873.544 25 874.037 24.88 874.49 24.64C874.957 24.4 875.35 24.0267 875.67 23.52L877.59 24.64C877.177 25.44 876.57 26.06 875.77 26.5C874.984 26.9267 874.07 27.14 873.03 27.14ZM871.99 31.56C871.63 31.56 871.297 31.52 870.99 31.44C870.684 31.3733 870.404 31.2733 870.15 31.14L870.61 29.96C870.824 30.0667 871.037 30.1467 871.25 30.2C871.477 30.2533 871.717 30.28 871.97 30.28C872.357 30.28 872.63 30.2133 872.79 30.08C872.95 29.9467 873.03 29.7733 873.03 29.56C873.03 29.36 872.944 29.2 872.77 29.08C872.61 28.96 872.344 28.9 871.97 28.9H871.35L871.89 26.86H873.25L872.97 27.98C873.557 28.0467 873.99 28.2333 874.27 28.54C874.564 28.86 874.71 29.2333 874.71 29.66C874.71 30.2467 874.464 30.7067 873.97 31.04C873.477 31.3867 872.817 31.56 871.99 31.56ZM884.395 27.14C883.302 27.14 882.328 26.9067 881.475 26.44C880.622 25.96 879.948 25.3067 879.455 24.48C878.962 23.6533 878.715 22.7133 878.715 21.66C878.715 20.5933 878.962 19.6533 879.455 18.84C879.948 18.0133 880.622 17.3667 881.475 16.9C882.328 16.4333 883.302 16.2 884.395 16.2C885.502 16.2 886.482 16.4333 887.335 16.9C888.202 17.3667 888.875 18.0067 889.355 18.82C889.848 19.6333 890.095 20.58 890.095 21.66C890.095 22.7133 889.848 23.6533 889.355 24.48C888.875 25.3067 888.202 25.96 887.335 26.44C886.482 26.9067 885.502 27.14 884.395 27.14ZM884.395 25C885.008 25 885.555 24.8667 886.035 24.6C886.515 24.3333 886.888 23.9467 887.155 23.44C887.435 22.9333 887.575 22.34 887.575 21.66C887.575 20.9667 887.435 20.3733 887.155 19.88C886.888 19.3733 886.515 18.9867 886.035 18.72C885.555 18.4533 885.015 18.32 884.415 18.32C883.802 18.32 883.255 18.4533 882.775 18.72C882.308 18.9867 881.935 19.3733 881.655 19.88C881.375 20.3733 881.235 20.9667 881.235 21.66C881.235 22.34 881.375 22.9333 881.655 23.44C881.935 23.9467 882.308 24.3333 882.775 24.6C883.255 24.8667 883.795 25 884.395 25ZM900.653 18.82H907.613V20.96H900.653V18.82ZM900.853 24.82H908.753V27H898.253V13H908.473V15.18H900.853V24.82ZM918.131 27.2C917.065 27.2 916.071 27.0267 915.151 26.68C914.245 26.32 913.451 25.82 912.771 25.18C912.105 24.5267 911.585 23.76 911.211 22.88C910.838 22 910.651 21.04 910.651 20C910.651 18.96 910.838 18 911.211 17.12C911.585 16.24 912.111 15.48 912.791 14.84C913.471 14.1867 914.265 13.6867 915.171 13.34C916.078 12.98 917.071 12.8 918.151 12.8C919.298 12.8 920.345 13 921.291 13.4C922.238 13.7867 923.038 14.3667 923.691 15.14L922.011 16.72C921.505 16.1733 920.938 15.7667 920.311 15.5C919.685 15.22 919.005 15.08 918.271 15.08C917.538 15.08 916.865 15.2 916.251 15.44C915.651 15.68 915.125 16.02 914.671 16.46C914.231 16.9 913.885 17.42 913.631 18.02C913.391 18.62 913.271 19.28 913.271 20C913.271 20.72 913.391 21.38 913.631 21.98C913.885 22.58 914.231 23.1 914.671 23.54C915.125 23.98 915.651 24.32 916.251 24.56C916.865 24.8 917.538 24.92 918.271 24.92C919.005 24.92 919.685 24.7867 920.311 24.52C920.938 24.24 921.505 23.82 922.011 23.26L923.691 24.86C923.038 25.62 922.238 26.2 921.291 26.6C920.345 27 919.291 27.2 918.131 27.2ZM932.45 27.2C931.356 27.2 930.35 27.02 929.43 26.66C928.51 26.3 927.71 25.8 927.03 25.16C926.35 24.5067 925.823 23.7467 925.45 22.88C925.076 22 924.89 21.04 924.89 20C924.89 18.96 925.076 18.0067 925.45 17.14C925.823 16.26 926.35 15.5 927.03 14.86C927.71 14.2067 928.51 13.7 929.43 13.34C930.35 12.98 931.35 12.8 932.43 12.8C933.523 12.8 934.523 12.98 935.43 13.34C936.35 13.7 937.15 14.2067 937.83 14.86C938.51 15.5 939.036 16.26 939.41 17.14C939.783 18.0067 939.97 18.96 939.97 20C939.97 21.04 939.783 22 939.41 22.88C939.036 23.76 938.51 24.52 937.83 25.16C937.15 25.8 936.35 26.3 935.43 26.66C934.523 27.02 933.53 27.2 932.45 27.2ZM932.43 24.92C933.136 24.92 933.79 24.8 934.39 24.56C934.99 24.32 935.51 23.98 935.95 23.54C936.39 23.0867 936.73 22.5667 936.97 21.98C937.223 21.38 937.35 20.72 937.35 20C937.35 19.28 937.223 18.6267 936.97 18.04C936.73 17.44 936.39 16.92 935.95 16.48C935.51 16.0267 934.99 15.68 934.39 15.44C933.79 15.2 933.136 15.08 932.43 15.08C931.723 15.08 931.07 15.2 930.47 15.44C929.883 15.68 929.363 16.0267 928.91 16.48C928.47 16.92 928.123 17.44 927.87 18.04C927.63 18.6267 927.51 19.28 927.51 20C927.51 20.7067 927.63 21.36 927.87 21.96C928.123 22.56 928.47 23.0867 928.91 23.54C929.35 23.98 929.87 24.32 930.47 24.56C931.07 24.8 931.723 24.92 932.43 24.92Z" fill="#005A32"/>
<path d="M425.611 27.2C424.518 27.2 423.511 27.0267 422.591 26.68C421.685 26.32 420.891 25.82 420.211 25.18C419.531 24.5267 419.005 23.76 418.631 22.88C418.258 22 418.071 21.04 418.071 20C418.071 18.96 418.258 18 418.631 17.12C419.005 16.24 419.531 15.48 420.211 14.84C420.905 14.1867 421.711 13.6867 422.631 13.34C423.551 12.98 424.558 12.8 425.651 12.8C426.838 12.8 427.905 12.9933 428.851 13.38C429.811 13.7667 430.618 14.3333 431.271 15.08L429.631 16.68C429.085 16.1333 428.491 15.7333 427.851 15.48C427.225 15.2133 426.531 15.08 425.771 15.08C425.038 15.08 424.358 15.2 423.731 15.44C423.105 15.68 422.565 16.02 422.111 16.46C421.658 16.9 421.305 17.42 421.051 18.02C420.811 18.62 420.691 19.28 420.691 20C420.691 20.7067 420.811 21.36 421.051 21.96C421.305 22.56 421.658 23.0867 422.111 23.54C422.565 23.98 423.098 24.32 423.711 24.56C424.325 24.8 425.005 24.92 425.751 24.92C426.445 24.92 427.111 24.8133 427.751 24.6C428.405 24.3733 429.025 24 429.611 23.48L431.091 25.42C430.358 26.0067 429.505 26.4533 428.531 26.76C427.571 27.0533 426.598 27.2 425.611 27.2ZM428.631 25.08V19.84H431.091V25.42L428.631 25.08ZM439.301 27.14C438.114 27.14 437.074 26.9067 436.181 26.44C435.301 25.96 434.614 25.3067 434.121 24.48C433.641 23.6533 433.401 22.7133 433.401 21.66C433.401 20.5933 433.634 19.6533 434.101 18.84C434.581 18.0133 435.234 17.3667 436.061 16.9C436.901 16.4333 437.854 16.2 438.921 16.2C439.961 16.2 440.887 16.4267 441.701 16.88C442.514 17.3333 443.154 17.9733 443.621 18.8C444.087 19.6267 444.321 20.6 444.321 21.72C444.321 21.8267 444.314 21.9467 444.301 22.08C444.301 22.2133 444.294 22.34 444.281 22.46H435.381V20.8H442.961L441.981 21.32C441.994 20.7067 441.867 20.1667 441.601 19.7C441.334 19.2333 440.967 18.8667 440.501 18.6C440.047 18.3333 439.521 18.2 438.921 18.2C438.307 18.2 437.767 18.3333 437.301 18.6C436.847 18.8667 436.487 19.24 436.221 19.72C435.967 20.1867 435.841 20.74 435.841 21.38V21.78C435.841 22.42 435.987 22.9867 436.281 23.48C436.574 23.9733 436.987 24.3533 437.521 24.62C438.054 24.8867 438.667 25.02 439.361 25.02C439.961 25.02 440.501 24.9267 440.981 24.74C441.461 24.5533 441.887 24.26 442.261 23.86L443.601 25.4C443.121 25.96 442.514 26.3933 441.781 26.7C441.061 26.9933 440.234 27.14 439.301 27.14ZM450.022 27.14C449.129 27.14 448.269 27.0267 447.442 26.8C446.629 26.56 445.982 26.2733 445.502 25.94L446.462 24.04C446.942 24.3467 447.515 24.6 448.182 24.8C448.849 25 449.515 25.1 450.182 25.1C450.969 25.1 451.535 24.9933 451.882 24.78C452.242 24.5667 452.422 24.28 452.422 23.92C452.422 23.6267 452.302 23.4067 452.062 23.26C451.822 23.1 451.509 22.98 451.122 22.9C450.735 22.82 450.302 22.7467 449.822 22.68C449.355 22.6133 448.882 22.5267 448.402 22.42C447.935 22.3 447.509 22.1333 447.122 21.92C446.735 21.6933 446.422 21.3933 446.182 21.02C445.942 20.6467 445.822 20.1533 445.822 19.54C445.822 18.86 446.015 18.2733 446.402 17.78C446.789 17.2733 447.329 16.8867 448.022 16.62C448.729 16.34 449.562 16.2 450.522 16.2C451.242 16.2 451.969 16.28 452.702 16.44C453.435 16.6 454.042 16.8267 454.522 17.12L453.562 19.02C453.055 18.7133 452.542 18.5067 452.022 18.4C451.515 18.28 451.009 18.22 450.502 18.22C449.742 18.22 449.175 18.3333 448.802 18.56C448.442 18.7867 448.262 19.0733 448.262 19.42C448.262 19.74 448.382 19.98 448.622 20.14C448.862 20.3 449.175 20.4267 449.562 20.52C449.949 20.6133 450.375 20.6933 450.842 20.76C451.322 20.8133 451.795 20.9 452.262 21.02C452.729 21.14 453.155 21.3067 453.542 21.52C453.942 21.72 454.262 22.0067 454.502 22.38C454.742 22.7533 454.862 23.24 454.862 23.84C454.862 24.5067 454.662 25.0867 454.262 25.58C453.875 26.0733 453.322 26.46 452.602 26.74C451.882 27.0067 451.022 27.14 450.022 27.14ZM461.035 27.14C459.862 27.14 458.955 26.84 458.315 26.24C457.675 25.6267 457.355 24.7267 457.355 23.54V13.96H459.855V23.48C459.855 23.9867 459.982 24.38 460.235 24.66C460.502 24.94 460.868 25.08 461.335 25.08C461.895 25.08 462.362 24.9333 462.735 24.64L463.435 26.42C463.142 26.66 462.782 26.84 462.355 26.96C461.928 27.08 461.488 27.14 461.035 27.14ZM455.595 18.4V16.4H462.715V18.4H455.595ZM472.072 27V24.84L471.932 24.38V20.6C471.932 19.8667 471.712 19.3 471.272 18.9C470.832 18.4867 470.165 18.28 469.272 18.28C468.672 18.28 468.078 18.3733 467.492 18.56C466.918 18.7467 466.432 19.0067 466.032 19.34L465.052 17.52C465.625 17.08 466.305 16.7533 467.092 16.54C467.892 16.3133 468.718 16.2 469.572 16.2C471.118 16.2 472.312 16.5733 473.152 17.32C474.005 18.0533 474.432 19.1933 474.432 20.74V27H472.072ZM468.712 27.14C467.912 27.14 467.212 27.0067 466.612 26.74C466.012 26.46 465.545 26.08 465.212 25.6C464.892 25.1067 464.732 24.5533 464.732 23.94C464.732 23.34 464.872 22.8 465.152 22.32C465.445 21.84 465.918 21.46 466.572 21.18C467.225 20.9 468.092 20.76 469.172 20.76H472.272V22.42H469.352C468.498 22.42 467.925 22.56 467.632 22.84C467.338 23.1067 467.192 23.44 467.192 23.84C467.192 24.2933 467.372 24.6533 467.732 24.92C468.092 25.1867 468.592 25.32 469.232 25.32C469.845 25.32 470.392 25.18 470.872 24.9C471.365 24.62 471.718 24.2067 471.932 23.66L472.352 25.16C472.112 25.7867 471.678 26.2733 471.052 26.62C470.438 26.9667 469.658 27.14 468.712 27.14ZM471.232 14.86C470.912 14.86 470.618 14.8 470.352 14.68C470.098 14.5467 469.865 14.3933 469.652 14.22C469.452 14.0333 469.258 13.8733 469.072 13.74C468.885 13.6067 468.698 13.54 468.512 13.54C468.232 13.54 468.005 13.6467 467.832 13.86C467.658 14.0733 467.558 14.3667 467.532 14.74H466.192C466.218 13.9133 466.418 13.26 466.792 12.78C467.178 12.3 467.698 12.06 468.352 12.06C468.672 12.06 468.965 12.1267 469.232 12.26C469.498 12.3933 469.732 12.5467 469.932 12.72C470.145 12.8933 470.345 13.0467 470.532 13.18C470.718 13.3133 470.898 13.38 471.072 13.38C471.352 13.38 471.578 13.28 471.752 13.08C471.938 12.88 472.038 12.6 472.052 12.24H473.392C473.378 13.0133 473.178 13.6467 472.792 14.14C472.405 14.62 471.885 14.86 471.232 14.86ZM482.46 27.14C481.366 27.14 480.393 26.9067 479.54 26.44C478.686 25.96 478.013 25.3067 477.52 24.48C477.026 23.6533 476.78 22.7133 476.78 21.66C476.78 20.5933 477.026 19.6533 477.52 18.84C478.013 18.0133 478.686 17.3667 479.54 16.9C480.393 16.4333 481.366 16.2 482.46 16.2C483.566 16.2 484.546 16.4333 485.4 16.9C486.266 17.3667 486.94 18.0067 487.42 18.82C487.913 19.6333 488.16 20.58 488.16 21.66C488.16 22.7133 487.913 23.6533 487.42 24.48C486.94 25.3067 486.266 25.96 485.4 26.44C484.546 26.9067 483.566 27.14 482.46 27.14ZM482.46 25C483.073 25 483.62 24.8667 484.1 24.6C484.58 24.3333 484.953 23.9467 485.22 23.44C485.5 22.9333 485.64 22.34 485.64 21.66C485.64 20.9667 485.5 20.3733 485.22 19.88C484.953 19.3733 484.58 18.9867 484.1 18.72C483.62 18.4533 483.08 18.32 482.48 18.32C481.866 18.32 481.32 18.4533 480.84 18.72C480.373 18.9867 480 19.3733 479.72 19.88C479.44 20.3733 479.3 20.9667 479.3 21.66C479.3 22.34 479.44 22.9333 479.72 23.44C480 23.9467 480.373 24.3333 480.84 24.6C481.32 24.8667 481.86 25 482.46 25ZM500.598 27.14C499.571 27.14 498.644 26.9133 497.818 26.46C497.004 25.9933 496.364 25.3533 495.898 24.54C495.431 23.7267 495.198 22.7667 495.198 21.66C495.198 20.5533 495.431 19.5933 495.898 18.78C496.364 17.9667 497.004 17.3333 497.818 16.88C498.644 16.4267 499.571 16.2 500.598 16.2C501.491 16.2 502.291 16.4 502.998 16.8C503.704 17.1867 504.264 17.78 504.678 18.58C505.091 19.38 505.298 20.4067 505.298 21.66C505.298 22.9 505.098 23.9267 504.698 24.74C504.298 25.54 503.744 26.14 503.038 26.54C502.331 26.94 501.518 27.14 500.598 27.14ZM500.898 25C501.498 25 502.031 24.8667 502.498 24.6C502.978 24.3333 503.358 23.9467 503.638 23.44C503.931 22.9333 504.078 22.34 504.078 21.66C504.078 20.9667 503.931 20.3733 503.638 19.88C503.358 19.3733 502.978 18.9867 502.498 18.72C502.031 18.4533 501.498 18.32 500.898 18.32C500.298 18.32 499.758 18.4533 499.278 18.72C498.811 18.9867 498.431 19.3733 498.138 19.88C497.858 20.3733 497.718 20.9667 497.718 21.66C497.718 22.34 497.858 22.9333 498.138 23.44C498.431 23.9467 498.811 24.3333 499.278 24.6C499.758 24.8667 500.298 25 500.898 25ZM504.138 27V24.48L504.238 21.64L504.038 18.8V12.16H506.518V27H504.138ZM514.828 27.14C513.641 27.14 512.601 26.9067 511.708 26.44C510.828 25.96 510.141 25.3067 509.648 24.48C509.168 23.6533 508.928 22.7133 508.928 21.66C508.928 20.5933 509.161 19.6533 509.628 18.84C510.108 18.0133 510.761 17.3667 511.588 16.9C512.428 16.4333 513.381 16.2 514.448 16.2C515.488 16.2 516.415 16.4267 517.228 16.88C518.041 17.3333 518.681 17.9733 519.148 18.8C519.615 19.6267 519.848 20.6 519.848 21.72C519.848 21.8267 519.841 21.9467 519.828 22.08C519.828 22.2133 519.821 22.34 519.808 22.46H510.908V20.8H518.488L517.508 21.32C517.521 20.7067 517.395 20.1667 517.128 19.7C516.861 19.2333 516.495 18.8667 516.028 18.6C515.575 18.3333 515.048 18.2 514.448 18.2C513.835 18.2 513.295 18.3333 512.828 18.6C512.375 18.8667 512.015 19.24 511.748 19.72C511.495 20.1867 511.368 20.74 511.368 21.38V21.78C511.368 22.42 511.515 22.9867 511.808 23.48C512.101 23.9733 512.515 24.3533 513.048 24.62C513.581 24.8867 514.195 25.02 514.888 25.02C515.488 25.02 516.028 24.9267 516.508 24.74C516.988 24.5533 517.415 24.26 517.788 23.86L519.128 25.4C518.648 25.96 518.041 26.3933 517.308 26.7C516.588 26.9933 515.761 27.14 514.828 27.14ZM528.017 27V13H533.777C535.017 13 536.077 13.2 536.957 13.6C537.85 14 538.537 14.5733 539.017 15.32C539.497 16.0667 539.737 16.9533 539.737 17.98C539.737 19.0067 539.497 19.8933 539.017 20.64C538.537 21.3733 537.85 21.94 536.957 22.34C536.077 22.7267 535.017 22.92 533.777 22.92H529.457L530.617 21.74V27H528.017ZM537.177 27L533.637 21.92H536.417L539.977 27H537.177ZM530.617 22.02L529.457 20.78H533.657C534.803 20.78 535.663 20.5333 536.237 20.04C536.823 19.5467 537.117 18.86 537.117 17.98C537.117 17.0867 536.823 16.4 536.237 15.92C535.663 15.44 534.803 15.2 533.657 15.2H529.457L530.617 13.92V22.02ZM547.426 27.14C546.239 27.14 545.199 26.9067 544.306 26.44C543.426 25.96 542.739 25.3067 542.246 24.48C541.766 23.6533 541.526 22.7133 541.526 21.66C541.526 20.5933 541.759 19.6533 542.226 18.84C542.706 18.0133 543.359 17.3667 544.186 16.9C545.026 16.4333 545.979 16.2 547.046 16.2C548.086 16.2 549.012 16.4267 549.826 16.88C550.639 17.3333 551.279 17.9733 551.746 18.8C552.212 19.6267 552.446 20.6 552.446 21.72C552.446 21.8267 552.439 21.9467 552.426 22.08C552.426 22.2133 552.419 22.34 552.406 22.46H543.506V20.8H551.086L550.106 21.32C550.119 20.7067 549.992 20.1667 549.726 19.7C549.459 19.2333 549.092 18.8667 548.626 18.6C548.172 18.3333 547.646 18.2 547.046 18.2C546.432 18.2 545.892 18.3333 545.426 18.6C544.972 18.8667 544.612 19.24 544.346 19.72C544.092 20.1867 543.966 20.74 543.966 21.38V21.78C543.966 22.42 544.112 22.9867 544.406 23.48C544.699 23.9733 545.112 24.3533 545.646 24.62C546.179 24.8867 546.792 25.02 547.486 25.02C548.086 25.02 548.626 24.9267 549.106 24.74C549.586 24.5533 550.012 24.26 550.386 23.86L551.726 25.4C551.246 25.96 550.639 26.3933 549.906 26.7C549.186 26.9933 548.359 27.14 547.426 27.14ZM558.147 27.14C557.254 27.14 556.394 27.0267 555.567 26.8C554.754 26.56 554.107 26.2733 553.627 25.94L554.587 24.04C555.067 24.3467 555.64 24.6 556.307 24.8C556.974 25 557.64 25.1 558.307 25.1C559.094 25.1 559.66 24.9933 560.007 24.78C560.367 24.5667 560.547 24.28 560.547 23.92C560.547 23.6267 560.427 23.4067 560.187 23.26C559.947 23.1 559.634 22.98 559.247 22.9C558.86 22.82 558.427 22.7467 557.947 22.68C557.48 22.6133 557.007 22.5267 556.527 22.42C556.06 22.3 555.634 22.1333 555.247 21.92C554.86 21.6933 554.547 21.3933 554.307 21.02C554.067 20.6467 553.947 20.1533 553.947 19.54C553.947 18.86 554.14 18.2733 554.527 17.78C554.914 17.2733 555.454 16.8867 556.147 16.62C556.854 16.34 557.687 16.2 558.647 16.2C559.367 16.2 560.094 16.28 560.827 16.44C561.56 16.6 562.167 16.8267 562.647 17.12L561.687 19.02C561.18 18.7133 560.667 18.5067 560.147 18.4C559.64 18.28 559.134 18.22 558.627 18.22C557.867 18.22 557.3 18.3333 556.927 18.56C556.567 18.7867 556.387 19.0733 556.387 19.42C556.387 19.74 556.507 19.98 556.747 20.14C556.987 20.3 557.3 20.4267 557.687 20.52C558.074 20.6133 558.5 20.6933 558.967 20.76C559.447 20.8133 559.92 20.9 560.387 21.02C560.854 21.14 561.28 21.3067 561.667 21.52C562.067 21.72 562.387 22.0067 562.627 22.38C562.867 22.7533 562.987 23.24 562.987 23.84C562.987 24.5067 562.787 25.0867 562.387 25.58C562 26.0733 561.447 26.46 560.727 26.74C560.007 27.0067 559.147 27.14 558.147 27.14ZM565.14 27V16.32H567.64V27H565.14ZM564.72 14.86L567.42 12.12H570.36L566.88 14.86H564.72ZM575.441 27.14C574.415 27.14 573.488 26.9133 572.661 26.46C571.848 25.9933 571.208 25.3533 570.741 24.54C570.275 23.7267 570.041 22.7667 570.041 21.66C570.041 20.5533 570.275 19.5933 570.741 18.78C571.208 17.9667 571.848 17.3333 572.661 16.88C573.488 16.4267 574.415 16.2 575.441 16.2C576.335 16.2 577.135 16.4 577.841 16.8C578.548 17.1867 579.108 17.78 579.521 18.58C579.935 19.38 580.141 20.4067 580.141 21.66C580.141 22.9 579.941 23.9267 579.541 24.74C579.141 25.54 578.588 26.14 577.881 26.54C577.175 26.94 576.361 27.14 575.441 27.14ZM575.741 25C576.341 25 576.875 24.8667 577.341 24.6C577.821 24.3333 578.201 23.9467 578.481 23.44C578.775 22.9333 578.921 22.34 578.921 21.66C578.921 20.9667 578.775 20.3733 578.481 19.88C578.201 19.3733 577.821 18.9867 577.341 18.72C576.875 18.4533 576.341 18.32 575.741 18.32C575.141 18.32 574.601 18.4533 574.121 18.72C573.655 18.9867 573.275 19.3733 572.981 19.88C572.701 20.3733 572.561 20.9667 572.561 21.66C572.561 22.34 572.701 22.9333 572.981 23.44C573.275 23.9467 573.655 24.3333 574.121 24.6C574.601 24.8667 575.141 25 575.741 25ZM578.981 27V24.48L579.081 21.64L578.881 18.8V12.16H581.361V27H578.981ZM589.172 27.14C588.265 27.14 587.465 26.9733 586.772 26.64C586.078 26.2933 585.538 25.7733 585.152 25.08C584.765 24.3733 584.572 23.4867 584.572 22.42V16.32H587.072V22.08C587.072 23.04 587.285 23.76 587.712 24.24C588.152 24.7067 588.772 24.94 589.572 24.94C590.158 24.94 590.665 24.82 591.092 24.58C591.532 24.34 591.872 23.98 592.112 23.5C592.365 23.02 592.492 22.4267 592.492 21.72V16.32H594.992V27H592.612V24.12L593.032 25C592.672 25.6933 592.145 26.2267 591.452 26.6C590.758 26.96 589.998 27.14 589.172 27.14ZM603.065 27.14C601.972 27.14 600.998 26.9067 600.145 26.44C599.292 25.96 598.618 25.3067 598.125 24.48C597.632 23.6533 597.385 22.7133 597.385 21.66C597.385 20.5933 597.632 19.6533 598.125 18.84C598.618 18.0133 599.292 17.3667 600.145 16.9C600.998 16.4333 601.972 16.2 603.065 16.2C604.172 16.2 605.152 16.4333 606.005 16.9C606.872 17.3667 607.545 18.0067 608.025 18.82C608.518 19.6333 608.765 20.58 608.765 21.66C608.765 22.7133 608.518 23.6533 608.025 24.48C607.545 25.3067 606.872 25.96 606.005 26.44C605.152 26.9067 604.172 27.14 603.065 27.14ZM603.065 25C603.678 25 604.225 24.8667 604.705 24.6C605.185 24.3333 605.558 23.9467 605.825 23.44C606.105 22.9333 606.245 22.34 606.245 21.66C606.245 20.9667 606.105 20.3733 605.825 19.88C605.558 19.3733 605.185 18.9867 604.705 18.72C604.225 18.4533 603.685 18.32 603.085 18.32C602.472 18.32 601.925 18.4533 601.445 18.72C600.978 18.9867 600.605 19.3733 600.325 19.88C600.045 20.3733 599.905 20.9667 599.905 21.66C599.905 22.34 600.045 22.9333 600.325 23.44C600.605 23.9467 600.978 24.3333 601.445 24.6C601.925 24.8667 602.465 25 603.065 25ZM614.456 27.14C613.562 27.14 612.702 27.0267 611.876 26.8C611.062 26.56 610.416 26.2733 609.936 25.94L610.896 24.04C611.376 24.3467 611.949 24.6 612.616 24.8C613.282 25 613.949 25.1 614.616 25.1C615.402 25.1 615.969 24.9933 616.316 24.78C616.676 24.5667 616.856 24.28 616.856 23.92C616.856 23.6267 616.736 23.4067 616.496 23.26C616.256 23.1 615.942 22.98 615.556 22.9C615.169 22.82 614.736 22.7467 614.256 22.68C613.789 22.6133 613.316 22.5267 612.836 22.42C612.369 22.3 611.942 22.1333 611.556 21.92C611.169 21.6933 610.856 21.3933 610.616 21.02C610.376 20.6467 610.256 20.1533 610.256 19.54C610.256 18.86 610.449 18.2733 610.836 17.78C611.222 17.2733 611.762 16.8867 612.456 16.62C613.162 16.34 613.996 16.2 614.956 16.2C615.676 16.2 616.402 16.28 617.136 16.44C617.869 16.6 618.476 16.8267 618.956 17.12L617.996 19.02C617.489 18.7133 616.976 18.5067 616.456 18.4C615.949 18.28 615.442 18.22 614.936 18.22C614.176 18.22 613.609 18.3333 613.236 18.56C612.876 18.7867 612.696 19.0733 612.696 19.42C612.696 19.74 612.816 19.98 613.056 20.14C613.296 20.3 613.609 20.4267 613.996 20.52C614.382 20.6133 614.809 20.6933 615.276 20.76C615.756 20.8133 616.229 20.9 616.696 21.02C617.162 21.14 617.589 21.3067 617.976 21.52C618.376 21.72 618.696 22.0067 618.936 22.38C619.176 22.7533 619.296 23.24 619.296 23.84C619.296 24.5067 619.096 25.0867 618.696 25.58C618.309 26.0733 617.756 26.46 617.036 26.74C616.316 27.0067 615.456 27.14 614.456 27.14Z" fill="#005A32"/>
<path d="M257.753 67H260.353V81H257.753V67ZM250.513 81H247.913V67H250.513V81ZM257.953 75H250.293V72.78H257.953V75ZM268.665 81.14C267.571 81.14 266.598 80.9067 265.745 80.44C264.891 79.96 264.218 79.3067 263.725 78.48C263.231 77.6533 262.985 76.7133 262.985 75.66C262.985 74.5933 263.231 73.6533 263.725 72.84C264.218 72.0133 264.891 71.3667 265.745 70.9C266.598 70.4333 267.571 70.2 268.665 70.2C269.771 70.2 270.751 70.4333 271.605 70.9C272.471 71.3667 273.145 72.0067 273.625 72.82C274.118 73.6333 274.365 74.58 274.365 75.66C274.365 76.7133 274.118 77.6533 273.625 78.48C273.145 79.3067 272.471 79.96 271.605 80.44C270.751 80.9067 269.771 81.14 268.665 81.14ZM268.665 79C269.278 79 269.825 78.8667 270.305 78.6C270.785 78.3333 271.158 77.9467 271.425 77.44C271.705 76.9333 271.845 76.34 271.845 75.66C271.845 74.9667 271.705 74.3733 271.425 73.88C271.158 73.3733 270.785 72.9867 270.305 72.72C269.825 72.4533 269.285 72.32 268.685 72.32C268.071 72.32 267.525 72.4533 267.045 72.72C266.578 72.9867 266.205 73.3733 265.925 73.88C265.645 74.3733 265.505 74.9667 265.505 75.66C265.505 76.34 265.645 76.9333 265.925 77.44C266.205 77.9467 266.578 78.3333 267.045 78.6C267.525 78.8667 268.065 79 268.665 79ZM276.755 81V70.32H279.135V73.26L278.855 72.4C279.175 71.68 279.675 71.1333 280.355 70.76C281.049 70.3867 281.909 70.2 282.935 70.2V72.58C282.829 72.5533 282.729 72.54 282.635 72.54C282.542 72.5267 282.449 72.52 282.355 72.52C281.409 72.52 280.655 72.8 280.095 73.36C279.535 73.9067 279.255 74.7267 279.255 75.82V81H276.755ZM289.467 81.14C288.293 81.14 287.387 80.84 286.747 80.24C286.107 79.6267 285.787 78.7267 285.787 77.54V67.96H288.287V77.48C288.287 77.9867 288.413 78.38 288.667 78.66C288.933 78.94 289.3 79.08 289.767 79.08C290.327 79.08 290.793 78.9333 291.167 78.64L291.867 80.42C291.573 80.66 291.213 80.84 290.787 80.96C290.36 81.08 289.92 81.14 289.467 81.14ZM284.027 72.4V70.4H291.147V72.4H284.027ZM300.503 81V78.84L300.363 78.38V74.6C300.363 73.8667 300.143 73.3 299.703 72.9C299.263 72.4867 298.597 72.28 297.703 72.28C297.103 72.28 296.51 72.3733 295.923 72.56C295.35 72.7467 294.863 73.0067 294.463 73.34L293.483 71.52C294.057 71.08 294.737 70.7533 295.523 70.54C296.323 70.3133 297.15 70.2 298.003 70.2C299.55 70.2 300.743 70.5733 301.583 71.32C302.437 72.0533 302.863 73.1933 302.863 74.74V81H300.503ZM297.143 81.14C296.343 81.14 295.643 81.0067 295.043 80.74C294.443 80.46 293.977 80.08 293.643 79.6C293.323 79.1067 293.163 78.5533 293.163 77.94C293.163 77.34 293.303 76.8 293.583 76.32C293.877 75.84 294.35 75.46 295.003 75.18C295.657 74.9 296.523 74.76 297.603 74.76H300.703V76.42H297.783C296.93 76.42 296.357 76.56 296.063 76.84C295.77 77.1067 295.623 77.44 295.623 77.84C295.623 78.2933 295.803 78.6533 296.163 78.92C296.523 79.1867 297.023 79.32 297.663 79.32C298.277 79.32 298.823 79.18 299.303 78.9C299.797 78.62 300.15 78.2067 300.363 77.66L300.783 79.16C300.543 79.7867 300.11 80.2733 299.483 80.62C298.87 80.9667 298.09 81.14 297.143 81.14ZM318.319 81.2C317.252 81.2 316.259 81.0267 315.339 80.68C314.432 80.32 313.639 79.82 312.959 79.18C312.292 78.5267 311.772 77.76 311.399 76.88C311.026 76 310.839 75.04 310.839 74C310.839 72.96 311.026 72 311.399 71.12C311.772 70.24 312.299 69.48 312.979 68.84C313.659 68.1867 314.452 67.6867 315.359 67.34C316.266 66.98 317.259 66.8 318.339 66.8C319.486 66.8 320.532 67 321.479 67.4C322.426 67.7867 323.226 68.3667 323.879 69.14L322.199 70.72C321.692 70.1733 321.126 69.7667 320.499 69.5C319.872 69.22 319.192 69.08 318.459 69.08C317.726 69.08 317.052 69.2 316.439 69.44C315.839 69.68 315.312 70.02 314.859 70.46C314.419 70.9 314.072 71.42 313.819 72.02C313.579 72.62 313.459 73.28 313.459 74C313.459 74.72 313.579 75.38 313.819 75.98C314.072 76.58 314.419 77.1 314.859 77.54C315.312 77.98 315.839 78.32 316.439 78.56C317.052 78.8 317.726 78.92 318.459 78.92C319.192 78.92 319.872 78.7867 320.499 78.52C321.126 78.24 321.692 77.82 322.199 77.26L323.879 78.86C323.226 79.62 322.426 80.2 321.479 80.6C320.532 81 319.479 81.2 318.319 81.2ZM330.52 81.14C329.427 81.14 328.453 80.9067 327.6 80.44C326.747 79.96 326.073 79.3067 325.58 78.48C325.087 77.6533 324.84 76.7133 324.84 75.66C324.84 74.5933 325.087 73.6533 325.58 72.84C326.073 72.0133 326.747 71.3667 327.6 70.9C328.453 70.4333 329.427 70.2 330.52 70.2C331.627 70.2 332.607 70.4333 333.46 70.9C334.327 71.3667 335 72.0067 335.48 72.82C335.973 73.6333 336.22 74.58 336.22 75.66C336.22 76.7133 335.973 77.6533 335.48 78.48C335 79.3067 334.327 79.96 333.46 80.44C332.607 80.9067 331.627 81.14 330.52 81.14ZM330.52 79C331.133 79 331.68 78.8667 332.16 78.6C332.64 78.3333 333.013 77.9467 333.28 77.44C333.56 76.9333 333.7 76.34 333.7 75.66C333.7 74.9667 333.56 74.3733 333.28 73.88C333.013 73.3733 332.64 72.9867 332.16 72.72C331.68 72.4533 331.14 72.32 330.54 72.32C329.927 72.32 329.38 72.4533 328.9 72.72C328.433 72.9867 328.06 73.3733 327.78 73.88C327.5 74.3733 327.36 74.9667 327.36 75.66C327.36 76.34 327.5 76.9333 327.78 77.44C328.06 77.9467 328.433 78.3333 328.9 78.6C329.38 78.8667 329.92 79 330.52 79ZM352.091 70.2C352.944 70.2 353.697 70.3667 354.351 70.7C355.017 71.0333 355.537 71.5467 355.911 72.24C356.284 72.92 356.471 73.8 356.471 74.88V81H353.971V75.2C353.971 74.2533 353.764 73.5467 353.351 73.08C352.937 72.6133 352.344 72.38 351.571 72.38C351.024 72.38 350.537 72.5 350.111 72.74C349.697 72.98 349.371 73.3333 349.131 73.8C348.904 74.2667 348.791 74.86 348.791 75.58V81H346.291V75.2C346.291 74.2533 346.084 73.5467 345.671 73.08C345.257 72.6133 344.664 72.38 343.891 72.38C343.344 72.38 342.857 72.5 342.431 72.74C342.017 72.98 341.691 73.3333 341.451 73.8C341.224 74.2667 341.111 74.86 341.111 75.58V81H338.611V70.32H340.991V73.16L340.571 72.32C340.931 71.6267 341.451 71.1 342.131 70.74C342.824 70.38 343.611 70.2 344.491 70.2C345.491 70.2 346.357 70.4467 347.091 70.94C347.837 71.4333 348.331 72.18 348.571 73.18L347.591 72.84C347.937 72.04 348.511 71.4 349.311 70.92C350.111 70.44 351.037 70.2 352.091 70.2ZM364.185 81.14C363.279 81.14 362.479 80.9733 361.785 80.64C361.092 80.2933 360.552 79.7733 360.165 79.08C359.779 78.3733 359.585 77.4867 359.585 76.42V70.32H362.085V76.08C362.085 77.04 362.299 77.76 362.725 78.24C363.165 78.7067 363.785 78.94 364.585 78.94C365.172 78.94 365.679 78.82 366.105 78.58C366.545 78.34 366.885 77.98 367.125 77.5C367.379 77.02 367.505 76.4267 367.505 75.72V70.32H370.005V81H367.625V78.12L368.045 79C367.685 79.6933 367.159 80.2267 366.465 80.6C365.772 80.96 365.012 81.14 364.185 81.14ZM379.339 70.2C380.192 70.2 380.952 70.3667 381.619 70.7C382.299 71.0333 382.832 71.5467 383.219 72.24C383.605 72.92 383.799 73.8 383.799 74.88V81H381.299V75.2C381.299 74.2533 381.072 73.5467 380.619 73.08C380.179 72.6133 379.559 72.38 378.759 72.38C378.172 72.38 377.652 72.5 377.199 72.74C376.745 72.98 376.392 73.34 376.139 73.82C375.899 74.2867 375.779 74.88 375.779 75.6V81H373.279V70.32H375.659V73.2L375.239 72.32C375.612 71.64 376.152 71.12 376.859 70.76C377.579 70.3867 378.405 70.2 379.339 70.2ZM386.97 81V70.32H389.47V81H386.97ZM388.23 68.56C387.763 68.56 387.377 68.4133 387.07 68.12C386.777 67.8267 386.63 67.4733 386.63 67.06C386.63 66.6333 386.777 66.28 387.07 66C387.377 65.7067 387.763 65.56 388.23 65.56C388.697 65.56 389.077 65.7 389.37 65.98C389.677 66.2467 389.83 66.5867 389.83 67C389.83 67.44 389.683 67.8133 389.39 68.12C389.097 68.4133 388.71 68.56 388.23 68.56ZM396.771 81.14C395.598 81.14 394.691 80.84 394.051 80.24C393.411 79.6267 393.091 78.7267 393.091 77.54V67.96H395.591V77.48C395.591 77.9867 395.718 78.38 395.971 78.66C396.238 78.94 396.605 79.08 397.071 79.08C397.631 79.08 398.098 78.9333 398.471 78.64L399.171 80.42C398.878 80.66 398.518 80.84 398.091 80.96C397.665 81.08 397.225 81.14 396.771 81.14ZM391.331 72.4V70.4H398.451V72.4H391.331ZM407.808 81V78.84L407.668 78.38V74.6C407.668 73.8667 407.448 73.3 407.008 72.9C406.568 72.4867 405.901 72.28 405.008 72.28C404.408 72.28 403.815 72.3733 403.228 72.56C402.655 72.7467 402.168 73.0067 401.768 73.34L400.788 71.52C401.361 71.08 402.041 70.7533 402.828 70.54C403.628 70.3133 404.455 70.2 405.308 70.2C406.855 70.2 408.048 70.5733 408.888 71.32C409.741 72.0533 410.168 73.1933 410.168 74.74V81H407.808ZM404.448 81.14C403.648 81.14 402.948 81.0067 402.348 80.74C401.748 80.46 401.281 80.08 400.948 79.6C400.628 79.1067 400.468 78.5533 400.468 77.94C400.468 77.34 400.608 76.8 400.888 76.32C401.181 75.84 401.655 75.46 402.308 75.18C402.961 74.9 403.828 74.76 404.908 74.76H408.008V76.42H405.088C404.235 76.42 403.661 76.56 403.368 76.84C403.075 77.1067 402.928 77.44 402.928 77.84C402.928 78.2933 403.108 78.6533 403.468 78.92C403.828 79.1867 404.328 79.32 404.968 79.32C405.581 79.32 406.128 79.18 406.608 78.9C407.101 78.62 407.455 78.2067 407.668 77.66L408.088 79.16C407.848 79.7867 407.415 80.2733 406.788 80.62C406.175 80.9667 405.395 81.14 404.448 81.14ZM403.848 68.86L406.548 66.12H409.488L406.008 68.86H403.848ZM413.376 81V70.32H415.756V73.26L415.476 72.4C415.796 71.68 416.296 71.1333 416.976 70.76C417.67 70.3867 418.53 70.2 419.556 70.2V72.58C419.45 72.5533 419.35 72.54 419.256 72.54C419.163 72.5267 419.07 72.52 418.976 72.52C418.03 72.52 417.276 72.8 416.716 73.36C416.156 73.9067 415.876 74.7267 415.876 75.82V81H413.376ZM421.677 81V70.32H424.177V81H421.677ZM422.937 68.56C422.47 68.56 422.084 68.4133 421.777 68.12C421.484 67.8267 421.337 67.4733 421.337 67.06C421.337 66.6333 421.484 66.28 421.777 66C422.084 65.7067 422.47 65.56 422.937 65.56C423.404 65.56 423.784 65.7 424.077 65.98C424.384 66.2467 424.537 66.5867 424.537 67C424.537 67.44 424.39 67.8133 424.097 68.12C423.804 68.4133 423.417 68.56 422.937 68.56ZM434.038 81V78.84L433.898 78.38V74.6C433.898 73.8667 433.678 73.3 433.238 72.9C432.798 72.4867 432.132 72.28 431.238 72.28C430.638 72.28 430.045 72.3733 429.458 72.56C428.885 72.7467 428.398 73.0067 427.998 73.34L427.018 71.52C427.592 71.08 428.272 70.7533 429.058 70.54C429.858 70.3133 430.685 70.2 431.538 70.2C433.085 70.2 434.278 70.5733 435.118 71.32C435.972 72.0533 436.398 73.1933 436.398 74.74V81H434.038ZM430.678 81.14C429.878 81.14 429.178 81.0067 428.578 80.74C427.978 80.46 427.512 80.08 427.178 79.6C426.858 79.1067 426.698 78.5533 426.698 77.94C426.698 77.34 426.838 76.8 427.118 76.32C427.412 75.84 427.885 75.46 428.538 75.18C429.192 74.9 430.058 74.76 431.138 74.76H434.238V76.42H431.318C430.465 76.42 429.892 76.56 429.598 76.84C429.305 77.1067 429.158 77.44 429.158 77.84C429.158 78.2933 429.338 78.6533 429.698 78.92C430.058 79.1867 430.558 79.32 431.198 79.32C431.812 79.32 432.358 79.18 432.838 78.9C433.332 78.62 433.685 78.2067 433.898 77.66L434.318 79.16C434.078 79.7867 433.645 80.2733 433.018 80.62C432.405 80.9667 431.625 81.14 430.678 81.14Z" fill="#005A32"/>
</svg>
