<svg width="380" height="66" viewBox="0 0 380 66" fill="none" xmlns="http://www.w3.org/2000/svg">
<rect x="0.5" y="0.5" width="122" height="24" rx="12" stroke="#B8C429"/>
<rect x="58.5" y="33.5" width="122" height="24" rx="12" stroke="#B8C429"/>
<rect x="128.5" y="0.5" width="123" height="24" rx="12" stroke="#B8C429"/>
<rect x="184.5" y="33.5" width="123" height="24" rx="12" stroke="#B8C429"/>
<rect x="257.5" y="0.5" width="122" height="24" rx="12" stroke="#B8C429"/>
<path d="M23.4915 15V7.3H27.0995C28.0235 7.3 28.7275 7.48333 29.2115 7.85C29.6955 8.20933 29.9375 8.69333 29.9375 9.302C29.9375 9.71267 29.8422 10.0647 29.6515 10.358C29.4609 10.644 29.2042 10.8677 28.8815 11.029C28.5662 11.183 28.2215 11.26 27.8475 11.26L28.0455 10.864C28.4782 10.864 28.8669 10.9447 29.2115 11.106C29.5562 11.26 29.8275 11.4873 30.0255 11.788C30.2309 12.0887 30.3335 12.4627 30.3335 12.91C30.3335 13.57 30.0805 14.0833 29.5745 14.45C29.0685 14.8167 28.3169 15 27.3195 15H23.4915ZM24.9215 13.878H27.2315C27.7669 13.878 28.1775 13.79 28.4635 13.614C28.7495 13.438 28.8925 13.1557 28.8925 12.767C28.8925 12.3857 28.7495 12.107 28.4635 11.931C28.1775 11.7477 27.7669 11.656 27.2315 11.656H24.8115V10.545H26.9455C27.4442 10.545 27.8255 10.457 28.0895 10.281C28.3609 10.105 28.4965 9.841 28.4965 9.489C28.4965 9.12967 28.3609 8.862 28.0895 8.686C27.8255 8.51 27.4442 8.422 26.9455 8.422H24.9215V13.878ZM31.7277 15V9.126H33.1027V15H31.7277ZM32.4207 8.158C32.164 8.158 31.9514 8.07733 31.7827 7.916C31.6214 7.75467 31.5407 7.56033 31.5407 7.333C31.5407 7.09833 31.6214 6.904 31.7827 6.75C31.9514 6.58867 32.164 6.508 32.4207 6.508C32.6774 6.508 32.8864 6.585 33.0477 6.739C33.2164 6.88567 33.3007 7.07267 33.3007 7.3C33.3007 7.542 33.22 7.74733 33.0587 7.916C32.8974 8.07733 32.6847 8.158 32.4207 8.158ZM37.5474 15.077C36.946 15.077 36.4107 14.9487 35.9414 14.692C35.472 14.428 35.1017 14.0687 34.8304 13.614C34.559 13.1593 34.4234 12.6423 34.4234 12.063C34.4234 11.4763 34.559 10.9593 34.8304 10.512C35.1017 10.0573 35.472 9.70167 35.9414 9.445C36.4107 9.18833 36.946 9.06 37.5474 9.06C38.156 9.06 38.695 9.18833 39.1644 9.445C39.641 9.70167 40.0114 10.0537 40.2754 10.501C40.5467 10.9483 40.6824 11.469 40.6824 12.063C40.6824 12.6423 40.5467 13.1593 40.2754 13.614C40.0114 14.0687 39.641 14.428 39.1644 14.692C38.695 14.9487 38.156 15.077 37.5474 15.077ZM37.5474 13.9C37.8847 13.9 38.1854 13.8267 38.4494 13.68C38.7134 13.5333 38.9187 13.3207 39.0654 13.042C39.2194 12.7633 39.2964 12.437 39.2964 12.063C39.2964 11.6817 39.2194 11.3553 39.0654 11.084C38.9187 10.8053 38.7134 10.5927 38.4494 10.446C38.1854 10.2993 37.8884 10.226 37.5584 10.226C37.221 10.226 36.9204 10.2993 36.6564 10.446C36.3997 10.5927 36.1944 10.8053 36.0404 11.084C35.8864 11.3553 35.8094 11.6817 35.8094 12.063C35.8094 12.437 35.8864 12.7633 36.0404 13.042C36.1944 13.3207 36.3997 13.5333 36.6564 13.68C36.9204 13.8267 37.2174 13.9 37.5474 13.9ZM44.4832 15.077C43.9185 15.077 43.4089 14.9523 42.9542 14.703C42.5069 14.4463 42.1549 14.0943 41.8982 13.647C41.6415 13.1997 41.5132 12.6717 41.5132 12.063C41.5132 11.4543 41.6415 10.9263 41.8982 10.479C42.1549 10.0317 42.5069 9.68333 42.9542 9.434C43.4089 9.18467 43.9185 9.06 44.4832 9.06C44.9745 9.06 45.4145 9.17 45.8032 9.39C46.1919 9.60267 46.4999 9.929 46.7272 10.369C46.9545 10.809 47.0682 11.3737 47.0682 12.063C47.0682 12.745 46.9582 13.3097 46.7382 13.757C46.5182 14.197 46.2139 14.527 45.8252 14.747C45.4365 14.967 44.9892 15.077 44.4832 15.077ZM44.6482 13.9C44.9782 13.9 45.2715 13.8267 45.5282 13.68C45.7922 13.5333 46.0012 13.3207 46.1552 13.042C46.3165 12.7633 46.3972 12.437 46.3972 12.063C46.3972 11.6817 46.3165 11.3553 46.1552 11.084C46.0012 10.8053 45.7922 10.5927 45.5282 10.446C45.2715 10.2993 44.9782 10.226 44.6482 10.226C44.3182 10.226 44.0212 10.2993 43.7572 10.446C43.5005 10.5927 43.2915 10.8053 43.1302 11.084C42.9762 11.3553 42.8992 11.6817 42.8992 12.063C42.8992 12.437 42.9762 12.7633 43.1302 13.042C43.2915 13.3207 43.5005 13.5333 43.7572 13.68C44.0212 13.8267 44.3182 13.9 44.6482 13.9ZM46.4302 15V13.614L46.4852 12.052L46.3752 10.49V6.838H47.7392V15H46.4302ZM49.549 15V9.126H50.924V15H49.549ZM50.242 8.158C49.9853 8.158 49.7726 8.07733 49.604 7.916C49.4426 7.75467 49.362 7.56033 49.362 7.333C49.362 7.09833 49.4426 6.904 49.604 6.75C49.7726 6.58867 49.9853 6.508 50.242 6.508C50.4986 6.508 50.7076 6.585 50.869 6.739C51.0376 6.88567 51.122 7.07267 51.122 7.3C51.122 7.542 51.0413 7.74733 50.88 7.916C50.7186 8.07733 50.506 8.158 50.242 8.158ZM55.3907 17.211C54.848 17.211 54.3163 17.1377 53.7957 16.991C53.2823 16.8517 52.8607 16.6463 52.5307 16.375L53.1467 15.341C53.4033 15.5537 53.726 15.7223 54.1147 15.847C54.5107 15.979 54.9103 16.045 55.3137 16.045C55.959 16.045 56.432 15.8947 56.7327 15.594C57.0333 15.3007 57.1837 14.857 57.1837 14.263V13.218L57.2937 11.887L57.2497 10.556V9.126H58.5587V14.109C58.5587 15.1723 58.2873 15.9533 57.7447 16.452C57.202 16.958 56.4173 17.211 55.3907 17.211ZM55.2147 14.736C54.6573 14.736 54.1513 14.6187 53.6967 14.384C53.2493 14.142 52.8937 13.8083 52.6297 13.383C52.373 12.9577 52.2447 12.459 52.2447 11.887C52.2447 11.3223 52.373 10.8273 52.6297 10.402C52.8937 9.97667 53.2493 9.64667 53.6967 9.412C54.1513 9.17733 54.6573 9.06 55.2147 9.06C55.7133 9.06 56.1607 9.159 56.5567 9.357C56.9527 9.555 57.268 9.863 57.5027 10.281C57.7447 10.699 57.8657 11.2343 57.8657 11.887C57.8657 12.5397 57.7447 13.0787 57.5027 13.504C57.268 13.922 56.9527 14.2337 56.5567 14.439C56.1607 14.637 55.7133 14.736 55.2147 14.736ZM55.4237 13.57C55.7683 13.57 56.0763 13.5003 56.3477 13.361C56.619 13.2143 56.828 13.0163 56.9747 12.767C57.1287 12.5103 57.2057 12.217 57.2057 11.887C57.2057 11.557 57.1287 11.2673 56.9747 11.018C56.828 10.7613 56.619 10.567 56.3477 10.435C56.0763 10.2957 55.7683 10.226 55.4237 10.226C55.079 10.226 54.7673 10.2957 54.4887 10.435C54.2173 10.567 54.0047 10.7613 53.8507 11.018C53.704 11.2673 53.6307 11.557 53.6307 11.887C53.6307 12.217 53.704 12.5103 53.8507 12.767C54.0047 13.0163 54.2173 13.2143 54.4887 13.361C54.7673 13.5003 55.079 13.57 55.4237 13.57ZM63.1274 15.077C62.4747 15.077 61.9027 14.9487 61.4114 14.692C60.9274 14.428 60.5497 14.0687 60.2784 13.614C60.0144 13.1593 59.8824 12.6423 59.8824 12.063C59.8824 11.4763 60.0107 10.9593 60.2674 10.512C60.5314 10.0573 60.8907 9.70167 61.3454 9.445C61.8074 9.18833 62.3317 9.06 62.9184 9.06C63.4904 9.06 64 9.18467 64.4474 9.434C64.8947 9.68333 65.2467 10.0353 65.5034 10.49C65.76 10.9447 65.8884 11.48 65.8884 12.096C65.8884 12.1547 65.8847 12.2207 65.8774 12.294C65.8774 12.3673 65.8737 12.437 65.8664 12.503H60.9714V11.59H65.1404L64.6014 11.876C64.6087 11.5387 64.539 11.2417 64.3924 10.985C64.2457 10.7283 64.044 10.5267 63.7874 10.38C63.538 10.2333 63.2484 10.16 62.9184 10.16C62.581 10.16 62.284 10.2333 62.0274 10.38C61.778 10.5267 61.58 10.732 61.4334 10.996C61.294 11.2527 61.2244 11.557 61.2244 11.909V12.129C61.2244 12.481 61.305 12.7927 61.4664 13.064C61.6277 13.3353 61.855 13.5443 62.1484 13.691C62.4417 13.8377 62.779 13.911 63.1604 13.911C63.4904 13.911 63.7874 13.8597 64.0514 13.757C64.3154 13.6543 64.55 13.493 64.7554 13.273L65.4924 14.12C65.2284 14.428 64.8947 14.6663 64.4914 14.835C64.0954 14.9963 63.6407 15.077 63.1274 15.077ZM69.0241 15.077C68.5328 15.077 68.0598 15.0147 67.6051 14.89C67.1578 14.758 66.8021 14.6003 66.5381 14.417L67.0661 13.372C67.3301 13.5407 67.6455 13.68 68.0121 13.79C68.3788 13.9 68.7455 13.955 69.1121 13.955C69.5448 13.955 69.8565 13.8963 70.0471 13.779C70.2451 13.6617 70.3441 13.504 70.3441 13.306C70.3441 13.1447 70.2781 13.0237 70.1461 12.943C70.0141 12.855 69.8418 12.789 69.6291 12.745C69.4165 12.701 69.1781 12.6607 68.9141 12.624C68.6575 12.5873 68.3971 12.5397 68.1331 12.481C67.8765 12.415 67.6418 12.3233 67.4291 12.206C67.2165 12.0813 67.0441 11.9163 66.9121 11.711C66.7801 11.5057 66.7141 11.2343 66.7141 10.897C66.7141 10.523 66.8205 10.2003 67.0331 9.929C67.2458 9.65033 67.5428 9.43767 67.9241 9.291C68.3128 9.137 68.7711 9.06 69.2991 9.06C69.6951 9.06 70.0948 9.104 70.4981 9.192C70.9015 9.28 71.2351 9.40467 71.4991 9.566L70.9711 10.611C70.6925 10.4423 70.4101 10.3287 70.1241 10.27C69.8455 10.204 69.5668 10.171 69.2881 10.171C68.8701 10.171 68.5585 10.2333 68.3531 10.358C68.1551 10.4827 68.0561 10.6403 68.0561 10.831C68.0561 11.007 68.1221 11.139 68.2541 11.227C68.3861 11.315 68.5585 11.3847 68.7711 11.436C68.9838 11.4873 69.2185 11.5313 69.4751 11.568C69.7391 11.5973 69.9995 11.645 70.2561 11.711C70.5128 11.777 70.7475 11.8687 70.9601 11.986C71.1801 12.096 71.3561 12.2537 71.4881 12.459C71.6201 12.6643 71.6861 12.932 71.6861 13.262C71.6861 13.6287 71.5761 13.9477 71.3561 14.219C71.1435 14.4903 70.8391 14.703 70.4431 14.857C70.0471 15.0037 69.5741 15.077 69.0241 15.077ZM75.0813 15.077C74.4359 15.077 73.9373 14.912 73.5853 14.582C73.2333 14.2447 73.0573 13.7497 73.0573 13.097V7.828H74.4323V13.064C74.4323 13.3427 74.5019 13.559 74.6413 13.713C74.7879 13.867 74.9896 13.944 75.2463 13.944C75.5543 13.944 75.8109 13.8633 76.0163 13.702L76.4013 14.681C76.2399 14.813 76.0419 14.912 75.8073 14.978C75.5726 15.044 75.3306 15.077 75.0813 15.077ZM72.0893 10.27V9.17H76.0053V10.27H72.0893ZM79.979 15.077C79.3777 15.077 78.8423 14.9487 78.373 14.692C77.9037 14.428 77.5333 14.0687 77.262 13.614C76.9907 13.1593 76.855 12.6423 76.855 12.063C76.855 11.4763 76.9907 10.9593 77.262 10.512C77.5333 10.0573 77.9037 9.70167 78.373 9.445C78.8423 9.18833 79.3777 9.06 79.979 9.06C80.5877 9.06 81.1267 9.18833 81.596 9.445C82.0727 9.70167 82.443 10.0537 82.707 10.501C82.9783 10.9483 83.114 11.469 83.114 12.063C83.114 12.6423 82.9783 13.1593 82.707 13.614C82.443 14.0687 82.0727 14.428 81.596 14.692C81.1267 14.9487 80.5877 15.077 79.979 15.077ZM79.979 13.9C80.3163 13.9 80.617 13.8267 80.881 13.68C81.145 13.5333 81.3503 13.3207 81.497 13.042C81.651 12.7633 81.728 12.437 81.728 12.063C81.728 11.6817 81.651 11.3553 81.497 11.084C81.3503 10.8053 81.145 10.5927 80.881 10.446C80.617 10.2993 80.32 10.226 79.99 10.226C79.6527 10.226 79.352 10.2993 79.088 10.446C78.8313 10.5927 78.626 10.8053 78.472 11.084C78.318 11.3553 78.241 11.6817 78.241 12.063C78.241 12.437 78.318 12.7633 78.472 13.042C78.626 13.3207 78.8313 13.5333 79.088 13.68C79.352 13.8267 79.649 13.9 79.979 13.9ZM84.4289 15V9.126H85.7379V10.743L85.5839 10.27C85.7599 9.874 86.0349 9.57333 86.4089 9.368C86.7902 9.16267 87.2632 9.06 87.8279 9.06V10.369C87.7692 10.3543 87.7142 10.347 87.6629 10.347C87.6115 10.3397 87.5602 10.336 87.5089 10.336C86.9882 10.336 86.5739 10.49 86.2659 10.798C85.9579 11.0987 85.8039 11.5497 85.8039 12.151V15H84.4289ZM91.7016 15.077C91.0489 15.077 90.4769 14.9487 89.9856 14.692C89.5016 14.428 89.1239 14.0687 88.8526 13.614C88.5886 13.1593 88.4566 12.6423 88.4566 12.063C88.4566 11.4763 88.5849 10.9593 88.8416 10.512C89.1056 10.0573 89.4649 9.70167 89.9196 9.445C90.3816 9.18833 90.9059 9.06 91.4926 9.06C92.0646 9.06 92.5742 9.18467 93.0216 9.434C93.4689 9.68333 93.8209 10.0353 94.0776 10.49C94.3342 10.9447 94.4626 11.48 94.4626 12.096C94.4626 12.1547 94.4589 12.2207 94.4516 12.294C94.4516 12.3673 94.4479 12.437 94.4406 12.503H89.5456V11.59H93.7146L93.1756 11.876C93.1829 11.5387 93.1132 11.2417 92.9666 10.985C92.8199 10.7283 92.6182 10.5267 92.3616 10.38C92.1122 10.2333 91.8226 10.16 91.4926 10.16C91.1552 10.16 90.8582 10.2333 90.6016 10.38C90.3522 10.5267 90.1542 10.732 90.0076 10.996C89.8682 11.2527 89.7986 11.557 89.7986 11.909V12.129C89.7986 12.481 89.8792 12.7927 90.0406 13.064C90.2019 13.3353 90.4292 13.5443 90.7226 13.691C91.0159 13.8377 91.3532 13.911 91.7346 13.911C92.0646 13.911 92.3616 13.8597 92.6256 13.757C92.8896 13.6543 93.1242 13.493 93.3296 13.273L94.0666 14.12C93.8026 14.428 93.4689 14.6663 93.0656 14.835C92.6696 14.9963 92.2149 15.077 91.7016 15.077ZM97.5983 15.077C97.107 15.077 96.634 15.0147 96.1793 14.89C95.732 14.758 95.3763 14.6003 95.1123 14.417L95.6403 13.372C95.9043 13.5407 96.2197 13.68 96.5863 13.79C96.953 13.9 97.3197 13.955 97.6863 13.955C98.119 13.955 98.4307 13.8963 98.6213 13.779C98.8193 13.6617 98.9183 13.504 98.9183 13.306C98.9183 13.1447 98.8523 13.0237 98.7203 12.943C98.5883 12.855 98.416 12.789 98.2033 12.745C97.9907 12.701 97.7523 12.6607 97.4883 12.624C97.2317 12.5873 96.9713 12.5397 96.7073 12.481C96.4507 12.415 96.216 12.3233 96.0033 12.206C95.7907 12.0813 95.6183 11.9163 95.4863 11.711C95.3543 11.5057 95.2883 11.2343 95.2883 10.897C95.2883 10.523 95.3947 10.2003 95.6073 9.929C95.82 9.65033 96.117 9.43767 96.4983 9.291C96.887 9.137 97.3453 9.06 97.8733 9.06C98.2693 9.06 98.669 9.104 99.0723 9.192C99.4757 9.28 99.8093 9.40467 100.073 9.566L99.5453 10.611C99.2667 10.4423 98.9843 10.3287 98.6983 10.27C98.4197 10.204 98.141 10.171 97.8623 10.171C97.4443 10.171 97.1327 10.2333 96.9273 10.358C96.7293 10.4827 96.6303 10.6403 96.6303 10.831C96.6303 11.007 96.6963 11.139 96.8283 11.227C96.9603 11.315 97.1327 11.3847 97.3453 11.436C97.558 11.4873 97.7927 11.5313 98.0493 11.568C98.3133 11.5973 98.5737 11.645 98.8303 11.711C99.087 11.777 99.3217 11.8687 99.5343 11.986C99.7543 12.096 99.9303 12.2537 100.062 12.459C100.194 12.6643 100.26 12.932 100.26 13.262C100.26 13.6287 100.15 13.9477 99.9303 14.219C99.7177 14.4903 99.4133 14.703 99.0173 14.857C98.6213 15.0037 98.1483 15.077 97.5983 15.077Z" fill="#005A32"/>
<path d="M206.278 48V40.3H209.446C210.128 40.3 210.711 40.41 211.195 40.63C211.686 40.85 212.064 41.1653 212.328 41.576C212.592 41.9867 212.724 42.4743 212.724 43.039C212.724 43.6037 212.592 44.0913 212.328 44.502C212.064 44.9127 211.686 45.228 211.195 45.448C210.711 45.668 210.128 45.778 209.446 45.778H207.07L207.708 45.107V48H206.278ZM207.708 45.261L207.07 44.568H209.38C210.01 44.568 210.483 44.436 210.799 44.172C211.121 43.9007 211.283 43.523 211.283 43.039C211.283 42.5477 211.121 42.17 210.799 41.906C210.483 41.642 210.01 41.51 209.38 41.51H207.07L207.708 40.806V45.261ZM214.127 48V39.838H215.502V48H214.127ZM220.926 48V46.812L220.849 46.559V44.48C220.849 44.0767 220.728 43.765 220.486 43.545C220.244 43.3177 219.877 43.204 219.386 43.204C219.056 43.204 218.729 43.2553 218.407 43.358C218.091 43.4607 217.824 43.6037 217.604 43.787L217.065 42.786C217.38 42.544 217.754 42.3643 218.187 42.247C218.627 42.1223 219.081 42.06 219.551 42.06C220.401 42.06 221.058 42.2653 221.52 42.676C221.989 43.0793 222.224 43.7063 222.224 44.557V48H220.926ZM219.078 48.077C218.638 48.077 218.253 48.0037 217.923 47.857C217.593 47.703 217.336 47.494 217.153 47.23C216.977 46.9587 216.889 46.6543 216.889 46.317C216.889 45.987 216.966 45.69 217.12 45.426C217.281 45.162 217.541 44.953 217.901 44.799C218.26 44.645 218.737 44.568 219.331 44.568H221.036V45.481H219.43C218.96 45.481 218.645 45.558 218.484 45.712C218.322 45.8587 218.242 46.042 218.242 46.262C218.242 46.5113 218.341 46.7093 218.539 46.856C218.737 47.0027 219.012 47.076 219.364 47.076C219.701 47.076 220.002 46.999 220.266 46.845C220.537 46.691 220.731 46.4637 220.849 46.163L221.08 46.988C220.948 47.3327 220.709 47.6003 220.365 47.791C220.027 47.9817 219.598 48.077 219.078 48.077ZM226.694 48.077C226.078 48.077 225.528 47.9487 225.044 47.692C224.568 47.428 224.194 47.0687 223.922 46.614C223.651 46.1593 223.515 45.6423 223.515 45.063C223.515 44.4763 223.651 43.9593 223.922 43.512C224.194 43.0573 224.568 42.7017 225.044 42.445C225.528 42.1883 226.078 42.06 226.694 42.06C227.266 42.06 227.769 42.1773 228.201 42.412C228.641 42.6393 228.975 42.9767 229.202 43.424L228.146 44.04C227.97 43.7613 227.754 43.556 227.497 43.424C227.248 43.292 226.977 43.226 226.683 43.226C226.346 43.226 226.042 43.2993 225.77 43.446C225.499 43.5927 225.286 43.8053 225.132 44.084C224.978 44.3553 224.901 44.6817 224.901 45.063C224.901 45.4443 224.978 45.7743 225.132 46.053C225.286 46.3243 225.499 46.5333 225.77 46.68C226.042 46.8267 226.346 46.9 226.683 46.9C226.977 46.9 227.248 46.834 227.497 46.702C227.754 46.57 227.97 46.3647 228.146 46.086L229.202 46.702C228.975 47.142 228.641 47.483 228.201 47.725C227.769 47.9597 227.266 48.077 226.694 48.077ZM234.01 48V46.812L233.933 46.559V44.48C233.933 44.0767 233.812 43.765 233.57 43.545C233.328 43.3177 232.961 43.204 232.47 43.204C232.14 43.204 231.813 43.2553 231.491 43.358C231.175 43.4607 230.908 43.6037 230.688 43.787L230.149 42.786C230.464 42.544 230.838 42.3643 231.271 42.247C231.711 42.1223 232.165 42.06 232.635 42.06C233.485 42.06 234.142 42.2653 234.604 42.676C235.073 43.0793 235.308 43.7063 235.308 44.557V48H234.01ZM232.162 48.077C231.722 48.077 231.337 48.0037 231.007 47.857C230.677 47.703 230.42 47.494 230.237 47.23C230.061 46.9587 229.973 46.6543 229.973 46.317C229.973 45.987 230.05 45.69 230.204 45.426C230.365 45.162 230.625 44.953 230.985 44.799C231.344 44.645 231.821 44.568 232.415 44.568H234.12V45.481H232.514C232.044 45.481 231.729 45.558 231.568 45.712C231.406 45.8587 231.326 46.042 231.326 46.262C231.326 46.5113 231.425 46.7093 231.623 46.856C231.821 47.0027 232.096 47.076 232.448 47.076C232.785 47.076 233.086 46.999 233.35 46.845C233.621 46.691 233.815 46.4637 233.933 46.163L234.164 46.988C234.032 47.3327 233.793 47.6003 233.449 47.791C233.111 47.9817 232.682 48.077 232.162 48.077ZM238.887 48.077C238.396 48.077 237.923 48.0147 237.468 47.89C237.021 47.758 236.665 47.6003 236.401 47.417L236.929 46.372C237.193 46.5407 237.509 46.68 237.875 46.79C238.242 46.9 238.609 46.955 238.975 46.955C239.408 46.955 239.72 46.8963 239.91 46.779C240.108 46.6617 240.207 46.504 240.207 46.306C240.207 46.1447 240.141 46.0237 240.009 45.943C239.877 45.855 239.705 45.789 239.492 45.745C239.28 45.701 239.041 45.6607 238.777 45.624C238.521 45.5873 238.26 45.5397 237.996 45.481C237.74 45.415 237.505 45.3233 237.292 45.206C237.08 45.0813 236.907 44.9163 236.775 44.711C236.643 44.5057 236.577 44.2343 236.577 43.897C236.577 43.523 236.684 43.2003 236.896 42.929C237.109 42.6503 237.406 42.4377 237.787 42.291C238.176 42.137 238.634 42.06 239.162 42.06C239.558 42.06 239.958 42.104 240.361 42.192C240.765 42.28 241.098 42.4047 241.362 42.566L240.834 43.611C240.556 43.4423 240.273 43.3287 239.987 43.27C239.709 43.204 239.43 43.171 239.151 43.171C238.733 43.171 238.422 43.2333 238.216 43.358C238.018 43.4827 237.919 43.6403 237.919 43.831C237.919 44.007 237.985 44.139 238.117 44.227C238.249 44.315 238.422 44.3847 238.634 44.436C238.847 44.4873 239.082 44.5313 239.338 44.568C239.602 44.5973 239.863 44.645 240.119 44.711C240.376 44.777 240.611 44.8687 240.823 44.986C241.043 45.096 241.219 45.2537 241.351 45.459C241.483 45.6643 241.549 45.932 241.549 46.262C241.549 46.6287 241.439 46.9477 241.219 47.219C241.007 47.4903 240.702 47.703 240.306 47.857C239.91 48.0037 239.437 48.077 238.887 48.077ZM248.293 48.11C247.691 48.11 247.116 48.0257 246.566 47.857C246.016 47.681 245.579 47.4573 245.257 47.186L245.752 46.075C246.06 46.317 246.441 46.5187 246.896 46.68C247.35 46.8413 247.816 46.922 248.293 46.922C248.696 46.922 249.022 46.878 249.272 46.79C249.521 46.702 249.704 46.5847 249.822 46.438C249.939 46.284 249.998 46.1117 249.998 45.921C249.998 45.6863 249.913 45.4993 249.745 45.36C249.576 45.2133 249.356 45.0997 249.085 45.019C248.821 44.931 248.524 44.8503 248.194 44.777C247.871 44.7037 247.545 44.6193 247.215 44.524C246.892 44.4213 246.595 44.293 246.324 44.139C246.06 43.9777 245.843 43.765 245.675 43.501C245.506 43.237 245.422 42.8997 245.422 42.489C245.422 42.071 245.532 41.6897 245.752 41.345C245.979 40.993 246.32 40.7143 246.775 40.509C247.237 40.2963 247.82 40.19 248.524 40.19C248.986 40.19 249.444 40.2487 249.899 40.366C250.353 40.4833 250.749 40.652 251.087 40.872L250.636 41.983C250.291 41.7777 249.935 41.6273 249.569 41.532C249.202 41.4293 248.85 41.378 248.513 41.378C248.117 41.378 247.794 41.4257 247.545 41.521C247.303 41.6163 247.123 41.741 247.006 41.895C246.896 42.049 246.841 42.225 246.841 42.423C246.841 42.6577 246.921 42.8483 247.083 42.995C247.251 43.1343 247.468 43.2443 247.732 43.325C248.003 43.4057 248.304 43.4863 248.634 43.567C248.964 43.6403 249.29 43.7247 249.613 43.82C249.943 43.9153 250.24 44.04 250.504 44.194C250.775 44.348 250.991 44.557 251.153 44.821C251.321 45.085 251.406 45.4187 251.406 45.822C251.406 46.2327 251.292 46.614 251.065 46.966C250.845 47.3107 250.504 47.5893 250.042 47.802C249.58 48.0073 248.997 48.11 248.293 48.11ZM255.332 48.077C254.73 48.077 254.195 47.9487 253.726 47.692C253.256 47.428 252.886 47.0687 252.615 46.614C252.343 46.1593 252.208 45.6423 252.208 45.063C252.208 44.4763 252.343 43.9593 252.615 43.512C252.886 43.0573 253.256 42.7017 253.726 42.445C254.195 42.1883 254.73 42.06 255.332 42.06C255.94 42.06 256.479 42.1883 256.949 42.445C257.425 42.7017 257.796 43.0537 258.06 43.501C258.331 43.9483 258.467 44.469 258.467 45.063C258.467 45.6423 258.331 46.1593 258.06 46.614C257.796 47.0687 257.425 47.428 256.949 47.692C256.479 47.9487 255.94 48.077 255.332 48.077ZM255.332 46.9C255.669 46.9 255.97 46.8267 256.234 46.68C256.498 46.5333 256.703 46.3207 256.85 46.042C257.004 45.7633 257.081 45.437 257.081 45.063C257.081 44.6817 257.004 44.3553 256.85 44.084C256.703 43.8053 256.498 43.5927 256.234 43.446C255.97 43.2993 255.673 43.226 255.343 43.226C255.005 43.226 254.705 43.2993 254.441 43.446C254.184 43.5927 253.979 43.8053 253.825 44.084C253.671 44.3553 253.594 44.6817 253.594 45.063C253.594 45.437 253.671 45.7633 253.825 46.042C253.979 46.3207 254.184 46.5333 254.441 46.68C254.705 46.8267 255.002 46.9 255.332 46.9ZM259.781 48V39.838H261.156V48H259.781ZM266.58 48V46.812L266.503 46.559V44.48C266.503 44.0767 266.382 43.765 266.14 43.545C265.898 43.3177 265.531 43.204 265.04 43.204C264.71 43.204 264.384 43.2553 264.061 43.358C263.746 43.4607 263.478 43.6037 263.258 43.787L262.719 42.786C263.034 42.544 263.408 42.3643 263.841 42.247C264.281 42.1223 264.736 42.06 265.205 42.06C266.056 42.06 266.712 42.2653 267.174 42.676C267.643 43.0793 267.878 43.7063 267.878 44.557V48H266.58ZM264.732 48.077C264.292 48.077 263.907 48.0037 263.577 47.857C263.247 47.703 262.99 47.494 262.807 47.23C262.631 46.9587 262.543 46.6543 262.543 46.317C262.543 45.987 262.62 45.69 262.774 45.426C262.935 45.162 263.196 44.953 263.555 44.799C263.914 44.645 264.391 44.568 264.985 44.568H266.69V45.481H265.084C264.615 45.481 264.299 45.558 264.138 45.712C263.977 45.8587 263.896 46.042 263.896 46.262C263.896 46.5113 263.995 46.7093 264.193 46.856C264.391 47.0027 264.666 47.076 265.018 47.076C265.355 47.076 265.656 46.999 265.92 46.845C266.191 46.691 266.386 46.4637 266.503 46.163L266.734 46.988C266.602 47.3327 266.364 47.6003 266.019 47.791C265.682 47.9817 265.253 48.077 264.732 48.077ZM269.643 48V42.126H270.952V43.743L270.798 43.27C270.974 42.874 271.249 42.5733 271.623 42.368C272.004 42.1627 272.477 42.06 273.042 42.06V43.369C272.983 43.3543 272.928 43.347 272.877 43.347C272.825 43.3397 272.774 43.336 272.723 43.336C272.202 43.336 271.788 43.49 271.48 43.798C271.172 44.0987 271.018 44.5497 271.018 45.151V48H269.643ZM276.915 48.077C276.263 48.077 275.691 47.9487 275.199 47.692C274.715 47.428 274.338 47.0687 274.066 46.614C273.802 46.1593 273.67 45.6423 273.67 45.063C273.67 44.4763 273.799 43.9593 274.055 43.512C274.319 43.0573 274.679 42.7017 275.133 42.445C275.595 42.1883 276.12 42.06 276.706 42.06C277.278 42.06 277.788 42.1847 278.235 42.434C278.683 42.6833 279.035 43.0353 279.291 43.49C279.548 43.9447 279.676 44.48 279.676 45.096C279.676 45.1547 279.673 45.2207 279.665 45.294C279.665 45.3673 279.662 45.437 279.654 45.503H274.759V44.59H278.928L278.389 44.876C278.397 44.5387 278.327 44.2417 278.18 43.985C278.034 43.7283 277.832 43.5267 277.575 43.38C277.326 43.2333 277.036 43.16 276.706 43.16C276.369 43.16 276.072 43.2333 275.815 43.38C275.566 43.5267 275.368 43.732 275.221 43.996C275.082 44.2527 275.012 44.557 275.012 44.909V45.129C275.012 45.481 275.093 45.7927 275.254 46.064C275.416 46.3353 275.643 46.5443 275.936 46.691C276.23 46.8377 276.567 46.911 276.948 46.911C277.278 46.911 277.575 46.8597 277.839 46.757C278.103 46.6543 278.338 46.493 278.543 46.273L279.28 47.12C279.016 47.428 278.683 47.6663 278.279 47.835C277.883 47.9963 277.429 48.077 276.915 48.077ZM282.812 48.077C282.321 48.077 281.848 48.0147 281.393 47.89C280.946 47.758 280.59 47.6003 280.326 47.417L280.854 46.372C281.118 46.5407 281.434 46.68 281.8 46.79C282.167 46.9 282.534 46.955 282.9 46.955C283.333 46.955 283.645 46.8963 283.835 46.779C284.033 46.6617 284.132 46.504 284.132 46.306C284.132 46.1447 284.066 46.0237 283.934 45.943C283.802 45.855 283.63 45.789 283.417 45.745C283.205 45.701 282.966 45.6607 282.702 45.624C282.446 45.5873 282.185 45.5397 281.921 45.481C281.665 45.415 281.43 45.3233 281.217 45.206C281.005 45.0813 280.832 44.9163 280.7 44.711C280.568 44.5057 280.502 44.2343 280.502 43.897C280.502 43.523 280.609 43.2003 280.821 42.929C281.034 42.6503 281.331 42.4377 281.712 42.291C282.101 42.137 282.559 42.06 283.087 42.06C283.483 42.06 283.883 42.104 284.286 42.192C284.69 42.28 285.023 42.4047 285.287 42.566L284.759 43.611C284.481 43.4423 284.198 43.3287 283.912 43.27C283.634 43.204 283.355 43.171 283.076 43.171C282.658 43.171 282.347 43.2333 282.141 43.358C281.943 43.4827 281.844 43.6403 281.844 43.831C281.844 44.007 281.91 44.139 282.042 44.227C282.174 44.315 282.347 44.3847 282.559 44.436C282.772 44.4873 283.007 44.5313 283.263 44.568C283.527 44.5973 283.788 44.645 284.044 44.711C284.301 44.777 284.536 44.8687 284.748 44.986C284.968 45.096 285.144 45.2537 285.276 45.459C285.408 45.6643 285.474 45.932 285.474 46.262C285.474 46.6287 285.364 46.9477 285.144 47.219C284.932 47.4903 284.627 47.703 284.231 47.857C283.835 48.0037 283.362 48.077 282.812 48.077Z" fill="#005A32"/>
<path d="M286.339 10.501H290.167V11.678H286.339V10.501ZM286.449 13.801H290.794V15H285.019V7.3H290.64V8.499H286.449V13.801ZM294.017 15.077C293.526 15.077 293.053 15.0147 292.598 14.89C292.151 14.758 291.795 14.6003 291.531 14.417L292.059 13.372C292.323 13.5407 292.639 13.68 293.005 13.79C293.372 13.9 293.739 13.955 294.105 13.955C294.538 13.955 294.85 13.8963 295.04 13.779C295.238 13.6617 295.337 13.504 295.337 13.306C295.337 13.1447 295.271 13.0237 295.139 12.943C295.007 12.855 294.835 12.789 294.622 12.745C294.41 12.701 294.171 12.6607 293.907 12.624C293.651 12.5873 293.39 12.5397 293.126 12.481C292.87 12.415 292.635 12.3233 292.422 12.206C292.21 12.0813 292.037 11.9163 291.905 11.711C291.773 11.5057 291.707 11.2343 291.707 10.897C291.707 10.523 291.814 10.2003 292.026 9.929C292.239 9.65033 292.536 9.43767 292.917 9.291C293.306 9.137 293.764 9.06 294.292 9.06C294.688 9.06 295.088 9.104 295.491 9.192C295.895 9.28 296.228 9.40467 296.492 9.566L295.964 10.611C295.686 10.4423 295.403 10.3287 295.117 10.27C294.839 10.204 294.56 10.171 294.281 10.171C293.863 10.171 293.552 10.2333 293.346 10.358C293.148 10.4827 293.049 10.6403 293.049 10.831C293.049 11.007 293.115 11.139 293.247 11.227C293.379 11.315 293.552 11.3847 293.764 11.436C293.977 11.4873 294.212 11.5313 294.468 11.568C294.732 11.5973 294.993 11.645 295.249 11.711C295.506 11.777 295.741 11.8687 295.953 11.986C296.173 12.096 296.349 12.2537 296.481 12.459C296.613 12.6643 296.679 12.932 296.679 13.262C296.679 13.6287 296.569 13.9477 296.349 14.219C296.137 14.4903 295.832 14.703 295.436 14.857C295.04 15.0037 294.567 15.077 294.017 15.077ZM301.119 15.077C300.643 15.077 300.206 14.967 299.81 14.747C299.422 14.527 299.11 14.197 298.875 13.757C298.648 13.3097 298.534 12.745 298.534 12.063C298.534 11.3737 298.644 10.809 298.864 10.369C299.092 9.929 299.4 9.60267 299.788 9.39C300.177 9.17 300.621 9.06 301.119 9.06C301.699 9.06 302.208 9.18467 302.648 9.434C303.096 9.68333 303.448 10.0317 303.704 10.479C303.968 10.9263 304.1 11.4543 304.1 12.063C304.1 12.6717 303.968 13.2033 303.704 13.658C303.448 14.1053 303.096 14.4537 302.648 14.703C302.208 14.9523 301.699 15.077 301.119 15.077ZM297.863 17.134V9.126H299.172V10.512L299.128 12.074L299.238 13.636V17.134H297.863ZM300.965 13.9C301.295 13.9 301.589 13.8267 301.845 13.68C302.109 13.5333 302.318 13.3207 302.472 13.042C302.626 12.7633 302.703 12.437 302.703 12.063C302.703 11.6817 302.626 11.3553 302.472 11.084C302.318 10.8053 302.109 10.5927 301.845 10.446C301.589 10.2993 301.295 10.226 300.965 10.226C300.635 10.226 300.338 10.2993 300.074 10.446C299.81 10.5927 299.601 10.8053 299.447 11.084C299.293 11.3553 299.216 11.6817 299.216 12.063C299.216 12.437 299.293 12.7633 299.447 13.042C299.601 13.3207 299.81 13.5333 300.074 13.68C300.338 13.8267 300.635 13.9 300.965 13.9ZM308.948 15V13.812L308.871 13.559V11.48C308.871 11.0767 308.75 10.765 308.508 10.545C308.266 10.3177 307.9 10.204 307.408 10.204C307.078 10.204 306.752 10.2553 306.429 10.358C306.114 10.4607 305.846 10.6037 305.626 10.787L305.087 9.786C305.403 9.544 305.777 9.36433 306.209 9.247C306.649 9.12233 307.104 9.06 307.573 9.06C308.424 9.06 309.08 9.26533 309.542 9.676C310.012 10.0793 310.246 10.7063 310.246 11.557V15H308.948ZM307.1 15.077C306.66 15.077 306.275 15.0037 305.945 14.857C305.615 14.703 305.359 14.494 305.175 14.23C304.999 13.9587 304.911 13.6543 304.911 13.317C304.911 12.987 304.988 12.69 305.142 12.426C305.304 12.162 305.564 11.953 305.923 11.799C306.283 11.645 306.759 11.568 307.353 11.568H309.058V12.481H307.452C306.983 12.481 306.668 12.558 306.506 12.712C306.345 12.8587 306.264 13.042 306.264 13.262C306.264 13.5113 306.363 13.7093 306.561 13.856C306.759 14.0027 307.034 14.076 307.386 14.076C307.724 14.076 308.024 13.999 308.288 13.845C308.56 13.691 308.754 13.4637 308.871 13.163L309.102 13.988C308.97 14.3327 308.732 14.6003 308.387 14.791C308.05 14.9817 307.621 15.077 307.1 15.077ZM314.717 15.077C314.101 15.077 313.551 14.9487 313.067 14.692C312.59 14.428 312.216 14.0687 311.945 13.614C311.673 13.1593 311.538 12.6423 311.538 12.063C311.538 11.4763 311.673 10.9593 311.945 10.512C312.216 10.0573 312.59 9.70167 313.067 9.445C313.551 9.18833 314.101 9.06 314.717 9.06C315.289 9.06 315.791 9.17733 316.224 9.412C316.664 9.63933 316.997 9.97667 317.225 10.424L316.169 11.04C315.993 10.7613 315.776 10.556 315.52 10.424C315.27 10.292 314.999 10.226 314.706 10.226C314.368 10.226 314.064 10.2993 313.793 10.446C313.521 10.5927 313.309 10.8053 313.155 11.084C313.001 11.3553 312.924 11.6817 312.924 12.063C312.924 12.4443 313.001 12.7743 313.155 13.053C313.309 13.3243 313.521 13.5333 313.793 13.68C314.064 13.8267 314.368 13.9 314.706 13.9C314.999 13.9 315.27 13.834 315.52 13.702C315.776 13.57 315.993 13.3647 316.169 13.086L317.225 13.702C316.997 14.142 316.664 14.483 316.224 14.725C315.791 14.9597 315.289 15.077 314.717 15.077ZM314.145 17.508C313.947 17.508 313.763 17.486 313.595 17.442C313.426 17.4053 313.272 17.3503 313.133 17.277L313.386 16.628C313.503 16.6867 313.62 16.7307 313.738 16.76C313.862 16.7893 313.994 16.804 314.134 16.804C314.346 16.804 314.497 16.7673 314.585 16.694C314.673 16.6207 314.717 16.5253 314.717 16.408C314.717 16.298 314.669 16.21 314.574 16.144C314.486 16.078 314.339 16.045 314.134 16.045H313.793L314.09 14.923H314.838L314.684 15.539C315.006 15.5757 315.245 15.6783 315.399 15.847C315.56 16.023 315.641 16.2283 315.641 16.463C315.641 16.7857 315.505 17.0387 315.234 17.222C314.962 17.4127 314.599 17.508 314.145 17.508ZM320.967 15.077C320.366 15.077 319.831 14.9487 319.361 14.692C318.892 14.428 318.522 14.0687 318.25 13.614C317.979 13.1593 317.843 12.6423 317.843 12.063C317.843 11.4763 317.979 10.9593 318.25 10.512C318.522 10.0573 318.892 9.70167 319.361 9.445C319.831 9.18833 320.366 9.06 320.967 9.06C321.576 9.06 322.115 9.18833 322.584 9.445C323.061 9.70167 323.431 10.0537 323.695 10.501C323.967 10.9483 324.102 11.469 324.102 12.063C324.102 12.6423 323.967 13.1593 323.695 13.614C323.431 14.0687 323.061 14.428 322.584 14.692C322.115 14.9487 321.576 15.077 320.967 15.077ZM320.967 13.9C321.305 13.9 321.605 13.8267 321.869 13.68C322.133 13.5333 322.339 13.3207 322.485 13.042C322.639 12.7633 322.716 12.437 322.716 12.063C322.716 11.6817 322.639 11.3553 322.485 11.084C322.339 10.8053 322.133 10.5927 321.869 10.446C321.605 10.2993 321.308 10.226 320.978 10.226C320.641 10.226 320.34 10.2993 320.076 10.446C319.82 10.5927 319.614 10.8053 319.46 11.084C319.306 11.3553 319.229 11.6817 319.229 12.063C319.229 12.437 319.306 12.7633 319.46 13.042C319.614 13.3207 319.82 13.5333 320.076 13.68C320.34 13.8267 320.637 13.9 320.967 13.9ZM329.909 10.501H333.737V11.678H329.909V10.501ZM330.019 13.801H334.364V15H328.589V7.3H334.21V8.499H330.019V13.801ZM339.522 15.11C338.936 15.11 338.389 15.0147 337.883 14.824C337.385 14.626 336.948 14.351 336.574 13.999C336.208 13.6397 335.922 13.218 335.716 12.734C335.511 12.25 335.408 11.722 335.408 11.15C335.408 10.578 335.511 10.05 335.716 9.566C335.922 9.082 336.211 8.664 336.585 8.312C336.959 7.95267 337.396 7.67767 337.894 7.487C338.393 7.289 338.939 7.19 339.533 7.19C340.164 7.19 340.74 7.3 341.26 7.52C341.781 7.73267 342.221 8.05167 342.58 8.477L341.656 9.346C341.378 9.04533 341.066 8.82167 340.721 8.675C340.377 8.521 340.003 8.444 339.599 8.444C339.196 8.444 338.826 8.51 338.488 8.642C338.158 8.774 337.869 8.961 337.619 9.203C337.377 9.445 337.187 9.731 337.047 10.061C336.915 10.391 336.849 10.754 336.849 11.15C336.849 11.546 336.915 11.909 337.047 12.239C337.187 12.569 337.377 12.855 337.619 13.097C337.869 13.339 338.158 13.526 338.488 13.658C338.826 13.79 339.196 13.856 339.599 13.856C340.003 13.856 340.377 13.7827 340.721 13.636C341.066 13.482 341.378 13.251 341.656 12.943L342.58 13.823C342.221 14.241 341.781 14.56 341.26 14.78C340.74 15 340.16 15.11 339.522 15.11ZM347.397 15.11C346.796 15.11 346.242 15.011 345.736 14.813C345.23 14.615 344.79 14.34 344.416 13.988C344.042 13.6287 343.753 13.2107 343.547 12.734C343.342 12.25 343.239 11.722 343.239 11.15C343.239 10.578 343.342 10.0537 343.547 9.577C343.753 9.093 344.042 8.675 344.416 8.323C344.79 7.96367 345.23 7.685 345.736 7.487C346.242 7.289 346.792 7.19 347.386 7.19C347.988 7.19 348.538 7.289 349.036 7.487C349.542 7.685 349.982 7.96367 350.356 8.323C350.73 8.675 351.02 9.093 351.225 9.577C351.431 10.0537 351.533 10.578 351.533 11.15C351.533 11.722 351.431 12.25 351.225 12.734C351.02 13.218 350.73 13.636 350.356 13.988C349.982 14.34 349.542 14.615 349.036 14.813C348.538 15.011 347.991 15.11 347.397 15.11ZM347.386 13.856C347.775 13.856 348.134 13.79 348.464 13.658C348.794 13.526 349.08 13.339 349.322 13.097C349.564 12.8477 349.751 12.5617 349.883 12.239C350.023 11.909 350.092 11.546 350.092 11.15C350.092 10.754 350.023 10.3947 349.883 10.072C349.751 9.742 349.564 9.456 349.322 9.214C349.08 8.96467 348.794 8.774 348.464 8.642C348.134 8.51 347.775 8.444 347.386 8.444C346.998 8.444 346.638 8.51 346.308 8.642C345.986 8.774 345.7 8.96467 345.45 9.214C345.208 9.456 345.018 9.742 344.878 10.072C344.746 10.3947 344.68 10.754 344.68 11.15C344.68 11.5387 344.746 11.898 344.878 12.228C345.018 12.558 345.208 12.8477 345.45 13.097C345.692 13.339 345.978 13.526 346.308 13.658C346.638 13.79 346.998 13.856 347.386 13.856Z" fill="#005A32"/>
<path d="M139.411 15.11C138.81 15.11 138.256 15.0147 137.75 14.824C137.252 14.626 136.815 14.351 136.441 13.999C136.067 13.6397 135.778 13.218 135.572 12.734C135.367 12.25 135.264 11.722 135.264 11.15C135.264 10.578 135.367 10.05 135.572 9.566C135.778 9.082 136.067 8.664 136.441 8.312C136.823 7.95267 137.266 7.67767 137.772 7.487C138.278 7.289 138.832 7.19 139.433 7.19C140.086 7.19 140.673 7.29633 141.193 7.509C141.721 7.72167 142.165 8.03333 142.524 8.444L141.622 9.324C141.322 9.02333 140.995 8.80333 140.643 8.664C140.299 8.51733 139.917 8.444 139.499 8.444C139.096 8.444 138.722 8.51 138.377 8.642C138.033 8.774 137.736 8.961 137.486 9.203C137.237 9.445 137.043 9.731 136.903 10.061C136.771 10.391 136.705 10.754 136.705 11.15C136.705 11.5387 136.771 11.898 136.903 12.228C137.043 12.558 137.237 12.8477 137.486 13.097C137.736 13.339 138.029 13.526 138.366 13.658C138.704 13.79 139.078 13.856 139.488 13.856C139.87 13.856 140.236 13.7973 140.588 13.68C140.948 13.5553 141.289 13.35 141.611 13.064L142.425 14.131C142.022 14.4537 141.553 14.6993 141.017 14.868C140.489 15.0293 139.954 15.11 139.411 15.11ZM141.072 13.944V11.062H142.425V14.131L141.072 13.944ZM146.94 15.077C146.288 15.077 145.716 14.9487 145.224 14.692C144.74 14.428 144.363 14.0687 144.091 13.614C143.827 13.1593 143.695 12.6423 143.695 12.063C143.695 11.4763 143.824 10.9593 144.08 10.512C144.344 10.0573 144.704 9.70167 145.158 9.445C145.62 9.18833 146.145 9.06 146.731 9.06C147.303 9.06 147.813 9.18467 148.26 9.434C148.708 9.68333 149.06 10.0353 149.316 10.49C149.573 10.9447 149.701 11.48 149.701 12.096C149.701 12.1547 149.698 12.2207 149.69 12.294C149.69 12.3673 149.687 12.437 149.679 12.503H144.784V11.59H148.953L148.414 11.876C148.422 11.5387 148.352 11.2417 148.205 10.985C148.059 10.7283 147.857 10.5267 147.6 10.38C147.351 10.2333 147.061 10.16 146.731 10.16C146.394 10.16 146.097 10.2333 145.84 10.38C145.591 10.5267 145.393 10.732 145.246 10.996C145.107 11.2527 145.037 11.557 145.037 11.909V12.129C145.037 12.481 145.118 12.7927 145.279 13.064C145.441 13.3353 145.668 13.5443 145.961 13.691C146.255 13.8377 146.592 13.911 146.973 13.911C147.303 13.911 147.6 13.8597 147.864 13.757C148.128 13.6543 148.363 13.493 148.568 13.273L149.305 14.12C149.041 14.428 148.708 14.6663 148.304 14.835C147.908 14.9963 147.454 15.077 146.94 15.077ZM152.837 15.077C152.346 15.077 151.873 15.0147 151.418 14.89C150.971 14.758 150.615 14.6003 150.351 14.417L150.879 13.372C151.143 13.5407 151.458 13.68 151.825 13.79C152.192 13.9 152.558 13.955 152.925 13.955C153.358 13.955 153.669 13.8963 153.86 13.779C154.058 13.6617 154.157 13.504 154.157 13.306C154.157 13.1447 154.091 13.0237 153.959 12.943C153.827 12.855 153.655 12.789 153.442 12.745C153.229 12.701 152.991 12.6607 152.727 12.624C152.47 12.5873 152.21 12.5397 151.946 12.481C151.689 12.415 151.455 12.3233 151.242 12.206C151.029 12.0813 150.857 11.9163 150.725 11.711C150.593 11.5057 150.527 11.2343 150.527 10.897C150.527 10.523 150.633 10.2003 150.846 9.929C151.059 9.65033 151.356 9.43767 151.737 9.291C152.126 9.137 152.584 9.06 153.112 9.06C153.508 9.06 153.908 9.104 154.311 9.192C154.714 9.28 155.048 9.40467 155.312 9.566L154.784 10.611C154.505 10.4423 154.223 10.3287 153.937 10.27C153.658 10.204 153.38 10.171 153.101 10.171C152.683 10.171 152.371 10.2333 152.166 10.358C151.968 10.4827 151.869 10.6403 151.869 10.831C151.869 11.007 151.935 11.139 152.067 11.227C152.199 11.315 152.371 11.3847 152.584 11.436C152.797 11.4873 153.031 11.5313 153.288 11.568C153.552 11.5973 153.812 11.645 154.069 11.711C154.326 11.777 154.56 11.8687 154.773 11.986C154.993 12.096 155.169 12.2537 155.301 12.459C155.433 12.6643 155.499 12.932 155.499 13.262C155.499 13.6287 155.389 13.9477 155.169 14.219C154.956 14.4903 154.652 14.703 154.256 14.857C153.86 15.0037 153.387 15.077 152.837 15.077ZM158.894 15.077C158.249 15.077 157.75 14.912 157.398 14.582C157.046 14.2447 156.87 13.7497 156.87 13.097V7.828H158.245V13.064C158.245 13.3427 158.315 13.559 158.454 13.713C158.601 13.867 158.803 13.944 159.059 13.944C159.367 13.944 159.624 13.8633 159.829 13.702L160.214 14.681C160.053 14.813 159.855 14.912 159.62 14.978C159.386 15.044 159.144 15.077 158.894 15.077ZM155.902 10.27V9.17H159.818V10.27H155.902ZM164.964 15V13.812L164.887 13.559V11.48C164.887 11.0767 164.766 10.765 164.524 10.545C164.282 10.3177 163.916 10.204 163.424 10.204C163.094 10.204 162.768 10.2553 162.445 10.358C162.13 10.4607 161.862 10.6037 161.642 10.787L161.103 9.786C161.419 9.544 161.793 9.36433 162.225 9.247C162.665 9.12233 163.12 9.06 163.589 9.06C164.44 9.06 165.096 9.26533 165.558 9.676C166.028 10.0793 166.262 10.7063 166.262 11.557V15H164.964ZM163.116 15.077C162.676 15.077 162.291 15.0037 161.961 14.857C161.631 14.703 161.375 14.494 161.191 14.23C161.015 13.9587 160.927 13.6543 160.927 13.317C160.927 12.987 161.004 12.69 161.158 12.426C161.32 12.162 161.58 11.953 161.939 11.799C162.299 11.645 162.775 11.568 163.369 11.568H165.074V12.481H163.468C162.999 12.481 162.684 12.558 162.522 12.712C162.361 12.8587 162.28 13.042 162.28 13.262C162.28 13.5113 162.379 13.7093 162.577 13.856C162.775 14.0027 163.05 14.076 163.402 14.076C163.74 14.076 164.04 13.999 164.304 13.845C164.576 13.691 164.77 13.4637 164.887 13.163L165.118 13.988C164.986 14.3327 164.748 14.6003 164.403 14.791C164.066 14.9817 163.637 15.077 163.116 15.077ZM164.502 8.323C164.326 8.323 164.165 8.29 164.018 8.224C163.879 8.15067 163.751 8.06633 163.633 7.971C163.523 7.86833 163.417 7.78033 163.314 7.707C163.212 7.63367 163.109 7.597 163.006 7.597C162.852 7.597 162.728 7.65567 162.632 7.773C162.537 7.89033 162.482 8.05167 162.467 8.257H161.73C161.745 7.80233 161.855 7.443 162.06 7.179C162.273 6.915 162.559 6.783 162.918 6.783C163.094 6.783 163.256 6.81967 163.402 6.893C163.549 6.96633 163.677 7.05067 163.787 7.146C163.905 7.24133 164.015 7.32567 164.117 7.399C164.22 7.47233 164.319 7.509 164.414 7.509C164.568 7.509 164.693 7.454 164.788 7.344C164.891 7.234 164.946 7.08 164.953 6.882H165.69C165.683 7.30733 165.573 7.65567 165.36 7.927C165.148 8.191 164.862 8.323 164.502 8.323ZM170.678 15.077C170.076 15.077 169.541 14.9487 169.072 14.692C168.602 14.428 168.232 14.0687 167.961 13.614C167.689 13.1593 167.554 12.6423 167.554 12.063C167.554 11.4763 167.689 10.9593 167.961 10.512C168.232 10.0573 168.602 9.70167 169.072 9.445C169.541 9.18833 170.076 9.06 170.678 9.06C171.286 9.06 171.825 9.18833 172.295 9.445C172.771 9.70167 173.142 10.0537 173.406 10.501C173.677 10.9483 173.813 11.469 173.813 12.063C173.813 12.6423 173.677 13.1593 173.406 13.614C173.142 14.0687 172.771 14.428 172.295 14.692C171.825 14.9487 171.286 15.077 170.678 15.077ZM170.678 13.9C171.015 13.9 171.316 13.8267 171.58 13.68C171.844 13.5333 172.049 13.3207 172.196 13.042C172.35 12.7633 172.427 12.437 172.427 12.063C172.427 11.6817 172.35 11.3553 172.196 11.084C172.049 10.8053 171.844 10.5927 171.58 10.446C171.316 10.2993 171.019 10.226 170.689 10.226C170.351 10.226 170.051 10.2993 169.787 10.446C169.53 10.5927 169.325 10.8053 169.171 11.084C169.017 11.3553 168.94 11.6817 168.94 12.063C168.94 12.437 169.017 12.7633 169.171 13.042C169.325 13.3207 169.53 13.5333 169.787 13.68C170.051 13.8267 170.348 13.9 170.678 13.9ZM180.654 15.077C180.089 15.077 179.579 14.9523 179.125 14.703C178.677 14.4463 178.325 14.0943 178.069 13.647C177.812 13.1997 177.684 12.6717 177.684 12.063C177.684 11.4543 177.812 10.9263 178.069 10.479C178.325 10.0317 178.677 9.68333 179.125 9.434C179.579 9.18467 180.089 9.06 180.654 9.06C181.145 9.06 181.585 9.17 181.974 9.39C182.362 9.60267 182.67 9.929 182.898 10.369C183.125 10.809 183.239 11.3737 183.239 12.063C183.239 12.745 183.129 13.3097 182.909 13.757C182.689 14.197 182.384 14.527 181.996 14.747C181.607 14.967 181.16 15.077 180.654 15.077ZM180.819 13.9C181.149 13.9 181.442 13.8267 181.699 13.68C181.963 13.5333 182.172 13.3207 182.326 13.042C182.487 12.7633 182.568 12.437 182.568 12.063C182.568 11.6817 182.487 11.3553 182.326 11.084C182.172 10.8053 181.963 10.5927 181.699 10.446C181.442 10.2993 181.149 10.226 180.819 10.226C180.489 10.226 180.192 10.2993 179.928 10.446C179.671 10.5927 179.462 10.8053 179.301 11.084C179.147 11.3553 179.07 11.6817 179.07 12.063C179.07 12.437 179.147 12.7633 179.301 13.042C179.462 13.3207 179.671 13.5333 179.928 13.68C180.192 13.8267 180.489 13.9 180.819 13.9ZM182.601 15V13.614L182.656 12.052L182.546 10.49V6.838H183.91V15H182.601ZM188.48 15.077C187.828 15.077 187.256 14.9487 186.764 14.692C186.28 14.428 185.903 14.0687 185.631 13.614C185.367 13.1593 185.235 12.6423 185.235 12.063C185.235 11.4763 185.364 10.9593 185.62 10.512C185.884 10.0573 186.244 9.70167 186.698 9.445C187.16 9.18833 187.685 9.06 188.271 9.06C188.843 9.06 189.353 9.18467 189.8 9.434C190.248 9.68333 190.6 10.0353 190.856 10.49C191.113 10.9447 191.241 11.48 191.241 12.096C191.241 12.1547 191.238 12.2207 191.23 12.294C191.23 12.3673 191.227 12.437 191.219 12.503H186.324V11.59H190.493L189.954 11.876C189.962 11.5387 189.892 11.2417 189.745 10.985C189.599 10.7283 189.397 10.5267 189.14 10.38C188.891 10.2333 188.601 10.16 188.271 10.16C187.934 10.16 187.637 10.2333 187.38 10.38C187.131 10.5267 186.933 10.732 186.786 10.996C186.647 11.2527 186.577 11.557 186.577 11.909V12.129C186.577 12.481 186.658 12.7927 186.819 13.064C186.981 13.3353 187.208 13.5443 187.501 13.691C187.795 13.8377 188.132 13.911 188.513 13.911C188.843 13.911 189.14 13.8597 189.404 13.757C189.668 13.6543 189.903 13.493 190.108 13.273L190.845 14.12C190.581 14.428 190.248 14.6663 189.844 14.835C189.448 14.9963 188.994 15.077 188.48 15.077ZM195.734 15V7.3H198.902C199.584 7.3 200.167 7.41 200.651 7.63C201.143 7.85 201.52 8.16533 201.784 8.576C202.048 8.98667 202.18 9.47433 202.18 10.039C202.18 10.6037 202.048 11.0913 201.784 11.502C201.52 11.9053 201.143 12.217 200.651 12.437C200.167 12.6497 199.584 12.756 198.902 12.756H196.526L197.164 12.107V15H195.734ZM200.772 15L198.825 12.206H200.354L202.312 15H200.772ZM197.164 12.261L196.526 11.579H198.836C199.467 11.579 199.94 11.4433 200.255 11.172C200.578 10.9007 200.739 10.523 200.739 10.039C200.739 9.54767 200.578 9.17 200.255 8.906C199.94 8.642 199.467 8.51 198.836 8.51H196.526L197.164 7.806V12.261ZM206.409 15.077C205.756 15.077 205.184 14.9487 204.693 14.692C204.209 14.428 203.831 14.0687 203.56 13.614C203.296 13.1593 203.164 12.6423 203.164 12.063C203.164 11.4763 203.292 10.9593 203.549 10.512C203.813 10.0573 204.172 9.70167 204.627 9.445C205.089 9.18833 205.613 9.06 206.2 9.06C206.772 9.06 207.282 9.18467 207.729 9.434C208.176 9.68333 208.528 10.0353 208.785 10.49C209.042 10.9447 209.17 11.48 209.17 12.096C209.17 12.1547 209.166 12.2207 209.159 12.294C209.159 12.3673 209.155 12.437 209.148 12.503H204.253V11.59H208.422L207.883 11.876C207.89 11.5387 207.821 11.2417 207.674 10.985C207.527 10.7283 207.326 10.5267 207.069 10.38C206.82 10.2333 206.53 10.16 206.2 10.16C205.863 10.16 205.566 10.2333 205.309 10.38C205.06 10.5267 204.862 10.732 204.715 10.996C204.576 11.2527 204.506 11.557 204.506 11.909V12.129C204.506 12.481 204.587 12.7927 204.748 13.064C204.909 13.3353 205.137 13.5443 205.43 13.691C205.723 13.8377 206.061 13.911 206.442 13.911C206.772 13.911 207.069 13.8597 207.333 13.757C207.597 13.6543 207.832 13.493 208.037 13.273L208.774 14.12C208.51 14.428 208.176 14.6663 207.773 14.835C207.377 14.9963 206.922 15.077 206.409 15.077ZM212.306 15.077C211.815 15.077 211.342 15.0147 210.887 14.89C210.44 14.758 210.084 14.6003 209.82 14.417L210.348 13.372C210.612 13.5407 210.927 13.68 211.294 13.79C211.661 13.9 212.027 13.955 212.394 13.955C212.827 13.955 213.138 13.8963 213.329 13.779C213.527 13.6617 213.626 13.504 213.626 13.306C213.626 13.1447 213.56 13.0237 213.428 12.943C213.296 12.855 213.124 12.789 212.911 12.745C212.698 12.701 212.46 12.6607 212.196 12.624C211.939 12.5873 211.679 12.5397 211.415 12.481C211.158 12.415 210.924 12.3233 210.711 12.206C210.498 12.0813 210.326 11.9163 210.194 11.711C210.062 11.5057 209.996 11.2343 209.996 10.897C209.996 10.523 210.102 10.2003 210.315 9.929C210.528 9.65033 210.825 9.43767 211.206 9.291C211.595 9.137 212.053 9.06 212.581 9.06C212.977 9.06 213.377 9.104 213.78 9.192C214.183 9.28 214.517 9.40467 214.781 9.566L214.253 10.611C213.974 10.4423 213.692 10.3287 213.406 10.27C213.127 10.204 212.849 10.171 212.57 10.171C212.152 10.171 211.84 10.2333 211.635 10.358C211.437 10.4827 211.338 10.6403 211.338 10.831C211.338 11.007 211.404 11.139 211.536 11.227C211.668 11.315 211.84 11.3847 212.053 11.436C212.266 11.4873 212.5 11.5313 212.757 11.568C213.021 11.5973 213.281 11.645 213.538 11.711C213.795 11.777 214.029 11.8687 214.242 11.986C214.462 12.096 214.638 12.2537 214.77 12.459C214.902 12.6643 214.968 12.932 214.968 13.262C214.968 13.6287 214.858 13.9477 214.638 14.219C214.425 14.4903 214.121 14.703 213.725 14.857C213.329 15.0037 212.856 15.077 212.306 15.077ZM216.152 15V9.126H217.527V15H216.152ZM215.921 8.323L217.406 6.816H219.023L217.109 8.323H215.921ZM221.818 15.077C221.253 15.077 220.743 14.9523 220.289 14.703C219.841 14.4463 219.489 14.0943 219.233 13.647C218.976 13.1997 218.848 12.6717 218.848 12.063C218.848 11.4543 218.976 10.9263 219.233 10.479C219.489 10.0317 219.841 9.68333 220.289 9.434C220.743 9.18467 221.253 9.06 221.818 9.06C222.309 9.06 222.749 9.17 223.138 9.39C223.526 9.60267 223.834 9.929 224.062 10.369C224.289 10.809 224.403 11.3737 224.403 12.063C224.403 12.745 224.293 13.3097 224.073 13.757C223.853 14.197 223.548 14.527 223.16 14.747C222.771 14.967 222.324 15.077 221.818 15.077ZM221.983 13.9C222.313 13.9 222.606 13.8267 222.863 13.68C223.127 13.5333 223.336 13.3207 223.49 13.042C223.651 12.7633 223.732 12.437 223.732 12.063C223.732 11.6817 223.651 11.3553 223.49 11.084C223.336 10.8053 223.127 10.5927 222.863 10.446C222.606 10.2993 222.313 10.226 221.983 10.226C221.653 10.226 221.356 10.2993 221.092 10.446C220.835 10.5927 220.626 10.8053 220.465 11.084C220.311 11.3553 220.234 11.6817 220.234 12.063C220.234 12.437 220.311 12.7633 220.465 13.042C220.626 13.3207 220.835 13.5333 221.092 13.68C221.356 13.8267 221.653 13.9 221.983 13.9ZM223.765 15V13.614L223.82 12.052L223.71 10.49V6.838H225.074V15H223.765ZM229.369 15.077C228.871 15.077 228.431 14.9853 228.049 14.802C227.668 14.6113 227.371 14.3253 227.158 13.944C226.946 13.5553 226.839 13.0677 226.839 12.481V9.126H228.214V12.294C228.214 12.822 228.332 13.218 228.566 13.482C228.808 13.7387 229.149 13.867 229.589 13.867C229.912 13.867 230.191 13.801 230.425 13.669C230.667 13.537 230.854 13.339 230.986 13.075C231.126 12.811 231.195 12.4847 231.195 12.096V9.126H232.57V15H231.261V13.416L231.492 13.9C231.294 14.2813 231.005 14.5747 230.623 14.78C230.242 14.978 229.824 15.077 229.369 15.077ZM237.011 15.077C236.409 15.077 235.874 14.9487 235.405 14.692C234.935 14.428 234.565 14.0687 234.294 13.614C234.022 13.1593 233.887 12.6423 233.887 12.063C233.887 11.4763 234.022 10.9593 234.294 10.512C234.565 10.0573 234.935 9.70167 235.405 9.445C235.874 9.18833 236.409 9.06 237.011 9.06C237.619 9.06 238.158 9.18833 238.628 9.445C239.104 9.70167 239.475 10.0537 239.739 10.501C240.01 10.9483 240.146 11.469 240.146 12.063C240.146 12.6423 240.01 13.1593 239.739 13.614C239.475 14.0687 239.104 14.428 238.628 14.692C238.158 14.9487 237.619 15.077 237.011 15.077ZM237.011 13.9C237.348 13.9 237.649 13.8267 237.913 13.68C238.177 13.5333 238.382 13.3207 238.529 13.042C238.683 12.7633 238.76 12.437 238.76 12.063C238.76 11.6817 238.683 11.3553 238.529 11.084C238.382 10.8053 238.177 10.5927 237.913 10.446C237.649 10.2993 237.352 10.226 237.022 10.226C236.684 10.226 236.384 10.2993 236.12 10.446C235.863 10.5927 235.658 10.8053 235.504 11.084C235.35 11.3553 235.273 11.6817 235.273 12.063C235.273 12.437 235.35 12.7633 235.504 13.042C235.658 13.3207 235.863 13.5333 236.12 13.68C236.384 13.8267 236.681 13.9 237.011 13.9ZM243.276 15.077C242.784 15.077 242.311 15.0147 241.857 14.89C241.409 14.758 241.054 14.6003 240.79 14.417L241.318 13.372C241.582 13.5407 241.897 13.68 242.264 13.79C242.63 13.9 242.997 13.955 243.364 13.955C243.796 13.955 244.108 13.8963 244.299 13.779C244.497 13.6617 244.596 13.504 244.596 13.306C244.596 13.1447 244.53 13.0237 244.398 12.943C244.266 12.855 244.093 12.789 243.881 12.745C243.668 12.701 243.43 12.6607 243.166 12.624C242.909 12.5873 242.649 12.5397 242.385 12.481C242.128 12.415 241.893 12.3233 241.681 12.206C241.468 12.0813 241.296 11.9163 241.164 11.711C241.032 11.5057 240.966 11.2343 240.966 10.897C240.966 10.523 241.072 10.2003 241.285 9.929C241.497 9.65033 241.794 9.43767 242.176 9.291C242.564 9.137 243.023 9.06 243.551 9.06C243.947 9.06 244.346 9.104 244.75 9.192C245.153 9.28 245.487 9.40467 245.751 9.566L245.223 10.611C244.944 10.4423 244.662 10.3287 244.376 10.27C244.097 10.204 243.818 10.171 243.54 10.171C243.122 10.171 242.81 10.2333 242.605 10.358C242.407 10.4827 242.308 10.6403 242.308 10.831C242.308 11.007 242.374 11.139 242.506 11.227C242.638 11.315 242.81 11.3847 243.023 11.436C243.235 11.4873 243.47 11.5313 243.727 11.568C243.991 11.5973 244.251 11.645 244.508 11.711C244.764 11.777 244.999 11.8687 245.212 11.986C245.432 12.096 245.608 12.2537 245.74 12.459C245.872 12.6643 245.938 12.932 245.938 13.262C245.938 13.6287 245.828 13.9477 245.608 14.219C245.395 14.4903 245.091 14.703 244.695 14.857C244.299 15.0037 243.826 15.077 243.276 15.077Z" fill="#005A32"/>
<path d="M73.6643 40.3H75.0943V48H73.6643V40.3ZM69.6823 48H68.2523V40.3H69.6823V48ZM73.7743 44.7H69.5613V43.479H73.7743V44.7ZM79.6655 48.077C79.0642 48.077 78.5289 47.9487 78.0595 47.692C77.5902 47.428 77.2199 47.0687 76.9485 46.614C76.6772 46.1593 76.5415 45.6423 76.5415 45.063C76.5415 44.4763 76.6772 43.9593 76.9485 43.512C77.2199 43.0573 77.5902 42.7017 78.0595 42.445C78.5289 42.1883 79.0642 42.06 79.6655 42.06C80.2742 42.06 80.8132 42.1883 81.2825 42.445C81.7592 42.7017 82.1295 43.0537 82.3935 43.501C82.6649 43.9483 82.8005 44.469 82.8005 45.063C82.8005 45.6423 82.6649 46.1593 82.3935 46.614C82.1295 47.0687 81.7592 47.428 81.2825 47.692C80.8132 47.9487 80.2742 48.077 79.6655 48.077ZM79.6655 46.9C80.0029 46.9 80.3035 46.8267 80.5675 46.68C80.8315 46.5333 81.0369 46.3207 81.1835 46.042C81.3375 45.7633 81.4145 45.437 81.4145 45.063C81.4145 44.6817 81.3375 44.3553 81.1835 44.084C81.0369 43.8053 80.8315 43.5927 80.5675 43.446C80.3035 43.2993 80.0065 43.226 79.6765 43.226C79.3392 43.226 79.0385 43.2993 78.7745 43.446C78.5179 43.5927 78.3125 43.8053 78.1585 44.084C78.0045 44.3553 77.9275 44.6817 77.9275 45.063C77.9275 45.437 78.0045 45.7633 78.1585 46.042C78.3125 46.3207 78.5179 46.5333 78.7745 46.68C79.0385 46.8267 79.3355 46.9 79.6655 46.9ZM84.1154 48V42.126H85.4244V43.743L85.2704 43.27C85.4464 42.874 85.7214 42.5733 86.0954 42.368C86.4767 42.1627 86.9497 42.06 87.5144 42.06V43.369C87.4557 43.3543 87.4007 43.347 87.3494 43.347C87.298 43.3397 87.2467 43.336 87.1954 43.336C86.6747 43.336 86.2604 43.49 85.9524 43.798C85.6444 44.0987 85.4904 44.5497 85.4904 45.151V48H84.1154ZM91.1067 48.077C90.4613 48.077 89.9627 47.912 89.6107 47.582C89.2587 47.2447 89.0827 46.7497 89.0827 46.097V40.828H90.4577V46.064C90.4577 46.3427 90.5273 46.559 90.6667 46.713C90.8133 46.867 91.015 46.944 91.2717 46.944C91.5797 46.944 91.8363 46.8633 92.0417 46.702L92.4267 47.681C92.2653 47.813 92.0673 47.912 91.8327 47.978C91.598 48.044 91.356 48.077 91.1067 48.077ZM88.1147 43.27V42.17H92.0307V43.27H88.1147ZM97.1768 48V46.812L97.0998 46.559V44.48C97.0998 44.0767 96.9788 43.765 96.7368 43.545C96.4948 43.3177 96.1281 43.204 95.6368 43.204C95.3068 43.204 94.9804 43.2553 94.6578 43.358C94.3424 43.4607 94.0748 43.6037 93.8548 43.787L93.3158 42.786C93.6311 42.544 94.0051 42.3643 94.4378 42.247C94.8778 42.1223 95.3324 42.06 95.8018 42.06C96.6524 42.06 97.3088 42.2653 97.7708 42.676C98.2401 43.0793 98.4748 43.7063 98.4748 44.557V48H97.1768ZM95.3288 48.077C94.8888 48.077 94.5038 48.0037 94.1738 47.857C93.8438 47.703 93.5871 47.494 93.4038 47.23C93.2278 46.9587 93.1398 46.6543 93.1398 46.317C93.1398 45.987 93.2168 45.69 93.3708 45.426C93.5321 45.162 93.7924 44.953 94.1518 44.799C94.5111 44.645 94.9878 44.568 95.5818 44.568H97.2868V45.481H95.6808C95.2114 45.481 94.8961 45.558 94.7348 45.712C94.5734 45.8587 94.4928 46.042 94.4928 46.262C94.4928 46.5113 94.5918 46.7093 94.7898 46.856C94.9878 47.0027 95.2628 47.076 95.6148 47.076C95.9521 47.076 96.2528 46.999 96.5168 46.845C96.7881 46.691 96.9824 46.4637 97.0998 46.163L97.3308 46.988C97.1988 47.3327 96.9604 47.6003 96.6158 47.791C96.2784 47.9817 95.8494 48.077 95.3288 48.077ZM106.975 48.11C106.389 48.11 105.842 48.0147 105.336 47.824C104.838 47.626 104.401 47.351 104.027 46.999C103.661 46.6397 103.375 46.218 103.169 45.734C102.964 45.25 102.861 44.722 102.861 44.15C102.861 43.578 102.964 43.05 103.169 42.566C103.375 42.082 103.664 41.664 104.038 41.312C104.412 40.9527 104.849 40.6777 105.347 40.487C105.846 40.289 106.392 40.19 106.986 40.19C107.617 40.19 108.193 40.3 108.713 40.52C109.234 40.7327 109.674 41.0517 110.033 41.477L109.109 42.346C108.831 42.0453 108.519 41.8217 108.174 41.675C107.83 41.521 107.456 41.444 107.052 41.444C106.649 41.444 106.279 41.51 105.941 41.642C105.611 41.774 105.322 41.961 105.072 42.203C104.83 42.445 104.64 42.731 104.5 43.061C104.368 43.391 104.302 43.754 104.302 44.15C104.302 44.546 104.368 44.909 104.5 45.239C104.64 45.569 104.83 45.855 105.072 46.097C105.322 46.339 105.611 46.526 105.941 46.658C106.279 46.79 106.649 46.856 107.052 46.856C107.456 46.856 107.83 46.7827 108.174 46.636C108.519 46.482 108.831 46.251 109.109 45.943L110.033 46.823C109.674 47.241 109.234 47.56 108.713 47.78C108.193 48 107.613 48.11 106.975 48.11ZM113.686 48.077C113.085 48.077 112.549 47.9487 112.08 47.692C111.611 47.428 111.24 47.0687 110.969 46.614C110.698 46.1593 110.562 45.6423 110.562 45.063C110.562 44.4763 110.698 43.9593 110.969 43.512C111.24 43.0573 111.611 42.7017 112.08 42.445C112.549 42.1883 113.085 42.06 113.686 42.06C114.295 42.06 114.834 42.1883 115.303 42.445C115.78 42.7017 116.15 43.0537 116.414 43.501C116.685 43.9483 116.821 44.469 116.821 45.063C116.821 45.6423 116.685 46.1593 116.414 46.614C116.15 47.0687 115.78 47.428 115.303 47.692C114.834 47.9487 114.295 48.077 113.686 48.077ZM113.686 46.9C114.023 46.9 114.324 46.8267 114.588 46.68C114.852 46.5333 115.057 46.3207 115.204 46.042C115.358 45.7633 115.435 45.437 115.435 45.063C115.435 44.6817 115.358 44.3553 115.204 44.084C115.057 43.8053 114.852 43.5927 114.588 43.446C114.324 43.2993 114.027 43.226 113.697 43.226C113.36 43.226 113.059 43.2993 112.795 43.446C112.538 43.5927 112.333 43.8053 112.179 44.084C112.025 44.3553 111.948 44.6817 111.948 45.063C111.948 45.437 112.025 45.7633 112.179 46.042C112.333 46.3207 112.538 46.5333 112.795 46.68C113.059 46.8267 113.356 46.9 113.686 46.9ZM125.55 42.06C126.019 42.06 126.434 42.1517 126.793 42.335C127.16 42.5183 127.446 42.8007 127.651 43.182C127.856 43.556 127.959 44.04 127.959 44.634V48H126.584V44.81C126.584 44.2893 126.47 43.9007 126.243 43.644C126.016 43.3873 125.689 43.259 125.264 43.259C124.963 43.259 124.696 43.325 124.461 43.457C124.234 43.589 124.054 43.7833 123.922 44.04C123.797 44.2967 123.735 44.623 123.735 45.019V48H122.36V44.81C122.36 44.2893 122.246 43.9007 122.019 43.644C121.792 43.3873 121.465 43.259 121.04 43.259C120.739 43.259 120.472 43.325 120.237 43.457C120.01 43.589 119.83 43.7833 119.698 44.04C119.573 44.2967 119.511 44.623 119.511 45.019V48H118.136V42.126H119.445V43.688L119.214 43.226C119.412 42.8447 119.698 42.555 120.072 42.357C120.453 42.159 120.886 42.06 121.37 42.06C121.92 42.06 122.397 42.1957 122.8 42.467C123.211 42.7383 123.482 43.149 123.614 43.699L123.075 43.512C123.266 43.072 123.581 42.72 124.021 42.456C124.461 42.192 124.971 42.06 125.55 42.06ZM132.202 48.077C131.703 48.077 131.263 47.9853 130.882 47.802C130.501 47.6113 130.204 47.3253 129.991 46.944C129.778 46.5553 129.672 46.0677 129.672 45.481V42.126H131.047V45.294C131.047 45.822 131.164 46.218 131.399 46.482C131.641 46.7387 131.982 46.867 132.422 46.867C132.745 46.867 133.023 46.801 133.258 46.669C133.5 46.537 133.687 46.339 133.819 46.075C133.958 45.811 134.028 45.4847 134.028 45.096V42.126H135.403V48H134.094V46.416L134.325 46.9C134.127 47.2813 133.837 47.5747 133.456 47.78C133.075 47.978 132.657 48.077 132.202 48.077ZM140.536 42.06C141.006 42.06 141.424 42.1517 141.79 42.335C142.164 42.5183 142.458 42.8007 142.67 43.182C142.883 43.556 142.989 44.04 142.989 44.634V48H141.614V44.81C141.614 44.2893 141.49 43.9007 141.24 43.644C140.998 43.3873 140.657 43.259 140.217 43.259C139.895 43.259 139.609 43.325 139.359 43.457C139.11 43.589 138.916 43.787 138.776 44.051C138.644 44.3077 138.578 44.634 138.578 45.03V48H137.203V42.126H138.512V43.71L138.281 43.226C138.487 42.852 138.784 42.566 139.172 42.368C139.568 42.1627 140.023 42.06 140.536 42.06ZM144.734 48V42.126H146.109V48H144.734ZM145.427 41.158C145.17 41.158 144.957 41.0773 144.789 40.916C144.627 40.7547 144.547 40.5603 144.547 40.333C144.547 40.0983 144.627 39.904 144.789 39.75C144.957 39.5887 145.17 39.508 145.427 39.508C145.683 39.508 145.892 39.585 146.054 39.739C146.222 39.8857 146.307 40.0727 146.307 40.3C146.307 40.542 146.226 40.7473 146.065 40.916C145.903 41.0773 145.691 41.158 145.427 41.158ZM150.124 48.077C149.479 48.077 148.98 47.912 148.628 47.582C148.276 47.2447 148.1 46.7497 148.1 46.097V40.828H149.475V46.064C149.475 46.3427 149.545 46.559 149.684 46.713C149.831 46.867 150.033 46.944 150.289 46.944C150.597 46.944 150.854 46.8633 151.059 46.702L151.444 47.681C151.283 47.813 151.085 47.912 150.85 47.978C150.616 48.044 150.374 48.077 150.124 48.077ZM147.132 43.27V42.17H151.048V43.27H147.132ZM156.194 48V46.812L156.117 46.559V44.48C156.117 44.0767 155.996 43.765 155.754 43.545C155.512 43.3177 155.146 43.204 154.654 43.204C154.324 43.204 153.998 43.2553 153.675 43.358C153.36 43.4607 153.092 43.6037 152.872 43.787L152.333 42.786C152.649 42.544 153.023 42.3643 153.455 42.247C153.895 42.1223 154.35 42.06 154.819 42.06C155.67 42.06 156.326 42.2653 156.788 42.676C157.258 43.0793 157.492 43.7063 157.492 44.557V48H156.194ZM154.346 48.077C153.906 48.077 153.521 48.0037 153.191 47.857C152.861 47.703 152.605 47.494 152.421 47.23C152.245 46.9587 152.157 46.6543 152.157 46.317C152.157 45.987 152.234 45.69 152.388 45.426C152.55 45.162 152.81 44.953 153.169 44.799C153.529 44.645 154.005 44.568 154.599 44.568H156.304V45.481H154.698C154.229 45.481 153.914 45.558 153.752 45.712C153.591 45.8587 153.51 46.042 153.51 46.262C153.51 46.5113 153.609 46.7093 153.807 46.856C154.005 47.0027 154.28 47.076 154.632 47.076C154.97 47.076 155.27 46.999 155.534 46.845C155.806 46.691 156 46.4637 156.117 46.163L156.348 46.988C156.216 47.3327 155.978 47.6003 155.633 47.791C155.296 47.9817 154.867 48.077 154.346 48.077ZM154.016 41.323L155.501 39.816H157.118L155.204 41.323H154.016ZM159.257 48V42.126H160.566V43.743L160.412 43.27C160.588 42.874 160.863 42.5733 161.237 42.368C161.618 42.1627 162.091 42.06 162.656 42.06V43.369C162.597 43.3543 162.542 43.347 162.491 43.347C162.44 43.3397 162.388 43.336 162.337 43.336C161.816 43.336 161.402 43.49 161.094 43.798C160.786 44.0987 160.632 44.5497 160.632 45.151V48H159.257ZM163.822 48V42.126H165.197V48H163.822ZM164.515 41.158C164.259 41.158 164.046 41.0773 163.877 40.916C163.716 40.7547 163.635 40.5603 163.635 40.333C163.635 40.0983 163.716 39.904 163.877 39.75C164.046 39.5887 164.259 39.508 164.515 39.508C164.772 39.508 164.981 39.585 165.142 39.739C165.311 39.8857 165.395 40.0727 165.395 40.3C165.395 40.542 165.315 40.7473 165.153 40.916C164.992 41.0773 164.779 41.158 164.515 41.158ZM170.621 48V46.812L170.544 46.559V44.48C170.544 44.0767 170.423 43.765 170.181 43.545C169.939 43.3177 169.572 43.204 169.081 43.204C168.751 43.204 168.425 43.2553 168.102 43.358C167.787 43.4607 167.519 43.6037 167.299 43.787L166.76 42.786C167.075 42.544 167.449 42.3643 167.882 42.247C168.322 42.1223 168.777 42.06 169.246 42.06C170.097 42.06 170.753 42.2653 171.215 42.676C171.684 43.0793 171.919 43.7063 171.919 44.557V48H170.621ZM168.773 48.077C168.333 48.077 167.948 48.0037 167.618 47.857C167.288 47.703 167.031 47.494 166.848 47.23C166.672 46.9587 166.584 46.6543 166.584 46.317C166.584 45.987 166.661 45.69 166.815 45.426C166.976 45.162 167.237 44.953 167.596 44.799C167.955 44.645 168.432 44.568 169.026 44.568H170.731V45.481H169.125C168.656 45.481 168.34 45.558 168.179 45.712C168.018 45.8587 167.937 46.042 167.937 46.262C167.937 46.5113 168.036 46.7093 168.234 46.856C168.432 47.0027 168.707 47.076 169.059 47.076C169.396 47.076 169.697 46.999 169.961 46.845C170.232 46.691 170.427 46.4637 170.544 46.163L170.775 46.988C170.643 47.3327 170.405 47.6003 170.06 47.791C169.723 47.9817 169.294 48.077 168.773 48.077Z" fill="#005A32"/>
</svg>
