<svg width="32" height="36" viewBox="0 0 32 36" fill="none" xmlns="http://www.w3.org/2000/svg">
<path fill-rule="evenodd" clip-rule="evenodd" d="M8.31528 9.80914C8.66794 6.09332 11.7996 3.18543 15.6086 3.18543C19.4176 3.18543 22.5493 6.09332 22.902 9.80914C22.9608 10.4297 23.3762 10.9589 23.9651 11.1633C26.3346 11.9858 28.0318 14.2381 28.0318 16.8828C28.0318 20.2254 25.3221 22.9351 21.9795 22.9351H9.23775C5.89514 22.9351 3.18543 20.2254 3.18543 16.8828C3.18543 14.2381 4.8826 11.9858 7.252 11.1633C7.84088 10.9589 8.25638 10.4297 8.31528 9.80914ZM15.6086 0C10.4794 0 6.2096 3.67255 5.28303 8.53244C2.1613 10.0135 0 13.194 0 16.8828C0 21.9846 4.13589 26.1205 9.23775 26.1205H13.3788V33.4473C13.3788 34.6789 14.3771 35.6771 15.6086 35.6771C16.8401 35.6771 17.8384 34.6789 17.8384 33.4473V26.1205H21.9795C27.0813 26.1205 31.2172 21.9846 31.2172 16.8828C31.2172 13.194 29.056 10.0135 25.9343 8.53244C25.0077 3.67257 20.7378 0 15.6086 0Z" fill="white"/>
</svg>
