<svg width="31" height="29" viewBox="0 0 31 29" fill="none" xmlns="http://www.w3.org/2000/svg">
<path fill-rule="evenodd" clip-rule="evenodd" d="M15.5 28.0938C22.9904 28.0938 29.0625 22.4134 29.0625 15.4062C29.0625 8.39914 22.9904 2.71875 15.5 2.71875C8.00964 2.71875 1.9375 8.39914 1.9375 15.4062C1.9375 17.6817 2.57784 19.8173 3.69915 21.6639L1.9375 28.0938L9.02377 26.5566C10.9482 27.5368 13.1546 28.0938 15.5 28.0938ZM15.5 26.1418C21.838 26.1418 26.976 21.3353 26.976 15.4062C26.976 9.47715 21.838 4.67067 15.5 4.67067C9.162 4.67067 4.02404 9.47715 4.02404 15.4062C4.02404 17.6955 4.78999 19.8174 6.09522 21.5599L5.06731 25.1659L8.98993 24.2485C10.8397 25.4426 13.0826 26.1418 15.5 26.1418Z" fill="#BFC8D0"/>
<path d="M27.125 14.5C27.125 20.5061 21.9203 25.375 15.5 25.375C13.0512 25.375 10.7792 24.6667 8.90539 23.4571L4.93182 24.3864L5.97308 20.7336C4.6509 18.9684 3.875 16.819 3.875 14.5C3.875 8.4939 9.07969 3.625 15.5 3.625C21.9203 3.625 27.125 8.4939 27.125 14.5Z" fill="url(#paint0_linear_3517_151)"/>
<path fill-rule="evenodd" clip-rule="evenodd" d="M15.5 27.1875C22.9904 27.1875 29.0625 21.5071 29.0625 14.5C29.0625 7.49289 22.9904 1.8125 15.5 1.8125C8.00964 1.8125 1.9375 7.49289 1.9375 14.5C1.9375 16.7755 2.57784 18.9111 3.69915 20.7576L1.9375 27.1875L9.02377 25.6503C10.9482 26.6306 13.1546 27.1875 15.5 27.1875ZM15.5 25.2356C21.838 25.2356 26.976 20.4291 26.976 14.5C26.976 8.5709 21.838 3.76442 15.5 3.76442C9.162 3.76442 4.02404 8.5709 4.02404 14.5C4.02404 16.7892 4.78999 18.9111 6.09522 20.6536L5.06731 24.2596L8.98993 23.3422C10.8397 24.5363 13.0826 25.2356 15.5 25.2356Z" fill="white"/>
<path d="M12.1094 8.60962C11.7869 8.00373 11.2923 8.05737 10.7925 8.05737C9.89942 8.05737 8.50684 9.05812 8.50684 10.9206C8.50684 12.447 9.22584 14.1179 11.6487 16.6175C13.9869 19.0297 17.0591 20.2775 19.6096 20.235C22.1602 20.1926 22.6849 18.1393 22.6849 17.446C22.6849 17.1386 22.4811 16.9853 22.3406 16.9436C21.4714 16.5534 19.8684 15.8263 19.5037 15.6897C19.1389 15.5531 18.9485 15.7379 18.8301 15.8384C18.4993 16.1333 17.8436 17.0023 17.6192 17.1978C17.3947 17.3932 17.06 17.2943 16.9207 17.2204C16.4081 17.028 15.0185 16.4498 13.9107 15.4452C12.5408 14.2029 12.4604 13.7755 12.2023 13.395C11.9958 13.0906 12.1473 12.9039 12.2229 12.8223C12.5181 12.5037 12.9256 12.0118 13.1084 11.7673C13.2912 11.5229 13.1461 11.1518 13.059 10.9206C12.6846 9.92652 12.3674 9.09434 12.1094 8.60962Z" fill="white"/>
<defs>
<linearGradient id="paint0_linear_3517_151" x1="25.6719" y1="6.34375" x2="5.23275" y2="26.7359" gradientUnits="userSpaceOnUse">
<stop stop-color="#5BD066"/>
<stop offset="1" stop-color="#27B43E"/>
</linearGradient>
</defs>
</svg>
